<svg width="250" height="90" viewBox="0 0 250 90" fill="none" xmlns="http://www.w3.org/2000/svg">
<path fill-rule="evenodd" clip-rule="evenodd" d="M149.468 41.3977C149.774 41.926 149.874 42.527 149.907 43.2026L149.951 44.1032V50.4006L149.995 51.3021C150.084 52.7744 151.168 53.863 152.65 53.9556L153.546 54V44.1032L153.59 43.2026C153.627 42.5345 153.726 41.9222 154.036 41.3902C154.353 40.8445 154.807 40.3917 155.354 40.0774C155.9 39.7631 156.519 39.5982 157.15 39.5993C157.78 39.6005 158.399 39.7676 158.944 40.0839C159.489 40.4003 159.942 40.8547 160.256 41.4015C160.562 41.9298 160.657 42.5421 160.694 43.2026L160.738 44.1004V50.4006L160.783 51.3021C160.875 52.7819 161.951 53.8705 163.438 53.9556L164.333 54V43.2026C164.333 41.2934 163.576 39.4623 162.228 38.1119C160.88 36.7616 159.051 36.0026 157.144 36.0019C156.124 36.0008 155.115 36.2178 154.185 36.6384C153.254 37.059 152.425 37.6735 151.751 38.4409C151.076 37.6738 150.246 37.0595 149.316 36.6388C148.386 36.218 147.377 36.0006 146.357 36.0009C144.863 36.0009 143.478 36.4545 142.33 37.2379C141.63 36.4555 140.063 36.0009 139.164 36.0009V54L140.063 53.9556C141.568 53.8564 142.655 52.797 142.713 51.3021L142.762 50.4006V44.1032L142.806 43.2026C142.844 42.5232 142.938 41.926 143.245 41.394C143.561 40.8486 144.015 40.396 144.562 40.0812C145.108 39.7665 145.727 39.6007 146.357 39.6004C146.987 39.6005 147.607 39.7666 148.153 40.0821C148.699 40.3976 149.153 40.8513 149.468 41.3977ZM87.9285 53.9565L88.828 54H102.31L102.266 53.1023C102.144 51.6224 101.098 50.5414 99.6149 50.445L98.7154 50.4006H90.6269L101.411 39.5994L101.367 38.7026C101.297 37.2077 100.206 36.1276 98.7154 36.0454L97.816 36.0047L84.3335 36.0009L84.3779 36.9015C84.4958 38.3672 85.5576 39.4709 87.0281 39.556L87.9285 39.6004H96.017L85.233 50.4015L85.2773 51.3021C85.366 52.7857 86.4354 53.8601 87.9285 53.9556V53.9565ZM135.635 38.6356C136.47 39.4712 137.132 40.4634 137.584 41.5553C138.035 42.6472 138.268 43.8176 138.268 44.9995C138.268 46.1815 138.035 47.3518 137.584 48.4438C137.132 49.5357 136.47 50.5278 135.635 51.3635C133.948 53.0508 131.661 53.9986 129.277 53.9986C126.893 53.9986 124.606 53.0508 122.92 51.3635C119.41 47.8491 119.41 42.1499 122.92 38.6356C123.754 37.8002 124.744 37.1375 125.834 36.6852C126.924 36.233 128.092 36.0002 129.272 36C130.453 35.9992 131.623 36.2316 132.715 36.684C133.807 37.1364 134.799 37.7999 135.635 38.6365V38.6356ZM133.091 41.1842C134.102 42.1972 134.67 43.5707 134.67 45.0028C134.67 46.4349 134.102 47.8085 133.091 48.8215C132.079 49.8338 130.708 50.4024 129.277 50.4024C127.847 50.4024 126.475 49.8338 125.463 48.8215C124.452 47.8085 123.884 46.4349 123.884 45.0028C123.884 43.5707 124.452 42.1972 125.463 41.1842C126.475 40.1719 127.847 39.6033 129.277 39.6033C130.708 39.6033 132.079 40.1719 133.091 41.1842ZM110.407 36C111.586 36.0003 112.755 36.2333 113.844 36.6857C114.934 37.1381 115.924 37.8009 116.758 38.6365C120.269 42.1499 120.269 47.8501 116.758 51.3635C115.072 53.0508 112.785 53.9986 110.401 53.9986C108.017 53.9986 105.73 53.0508 104.043 51.3635C100.533 47.8491 100.533 42.1499 104.043 38.6356C104.877 37.8002 105.868 37.1375 106.957 36.6852C108.047 36.233 109.215 36.0002 110.395 36H110.407ZM114.215 41.1823C115.226 42.1954 115.794 43.5691 115.794 45.0014C115.794 46.4338 115.226 47.8075 114.215 48.8206C113.203 49.8328 111.831 50.4015 110.401 50.4015C108.97 50.4015 107.599 49.8328 106.587 48.8206C105.576 47.8075 105.008 46.434 105.008 45.0019C105.008 43.5698 105.576 42.1963 106.587 41.1832C107.599 40.1709 108.97 39.6023 110.401 39.6023C111.831 39.6023 113.203 40.1709 114.215 41.1832V41.1823Z" fill="#E6E6E6"/>
</svg>
