<svg width="94" height="103" viewBox="0 0 94 103" fill="none" xmlns="http://www.w3.org/2000/svg">
<path d="M47.4287 48.2881C56.222 41.8447 60.7573 34.6319 61.0322 26.6494L61.0449 25.874C61.0449 18.5851 58.4129 12.6175 53.1484 7.9707C48.1362 3.46914 41.8034 1.14755 34.1504 1.00684L33.4053 1V0C41.5974 0 48.4259 2.3886 53.8096 7.2207L54.3164 7.67871C59.4678 12.4567 62.0449 18.5468 62.0449 25.874C62.0449 34.5886 57.2564 42.3247 48.0244 49.0908L48.0254 49.0918L45.7988 50.7422L57.2432 62.835L83.9668 35.4443V63.7324L70.7393 77.1406L91.7275 99.4004L93.3174 101.087H64.4199L56.1172 92.1006C48.7705 99.3383 40.3275 103 30.8184 103C21.5357 103 14.0055 100.291 8.33691 94.791L8.3252 94.7793L7.81445 94.2559C2.62458 88.8234 0.000119324 82.5091 0 75.3496C0 69.629 1.35648 64.6875 4.11816 60.5771L4.12109 60.5732L4.66504 59.7979C7.31099 56.1405 11.0987 52.4855 15.9922 48.8242L15.3721 48.1396C8.57648 40.6725 5.03814 33.5168 5.03809 26.6943C5.03809 18.597 7.8669 12.0662 13.5586 7.20996L13.5645 7.2041L14.1641 7.91992L14.207 7.96973C8.76098 12.6165 6.03809 18.8587 6.03809 26.6943L6.04785 27.3018C6.25112 33.5963 9.60621 40.3182 16.1133 47.4678L17.4746 48.9717C11.8469 53.0717 7.67134 57.1268 4.94824 61.1357C2.31606 65.0536 1 69.7919 1 75.3496L1.00781 76.0127C1.1699 82.8452 3.845 88.8655 9.0332 94.0732C14.3093 99.1927 21.2892 101.832 29.9727 101.992L30.8184 102C40.3493 102 48.7911 98.2187 56.1436 90.6562L64.8574 100.087L91 100.086L69.3506 77.126L82.9668 63.3223V37.9014L57.2334 64.2783L44.2979 50.6113L47.4287 48.2881ZM21.0146 74.2559C21.0146 70.019 23.3577 66.124 28.043 62.5713L28.5039 62.2285L29.1846 61.6816L44.1621 77.8096C40.0775 82.0918 35.811 84.2324 31.3633 84.2324V83.2324C35.229 83.2324 39.0307 81.4825 42.7783 77.7891L29.084 63.043C24.2422 66.5803 22.0146 70.3228 22.0146 74.2559C22.0147 76.6214 22.8551 78.6963 24.583 80.5205L24.9248 80.8477C26.6616 82.4343 28.7879 83.2324 31.3633 83.2324V84.2324L30.8076 84.2207C28.0577 84.1033 25.7463 83.1049 23.874 81.2256L23.5283 80.8467C21.9644 79.0577 21.1305 77.0245 21.0264 74.7471L21.0146 74.2559ZM27.5498 19.8604L28.2139 20.6094C26.9492 21.7295 26.2363 23.4651 26.2363 26.0107C26.2363 28.4537 27.6606 31.3594 30.8652 34.7549L30.8662 34.7559L32.5811 36.5781L35.6816 34.3555C39.2338 31.7438 40.8477 28.9154 40.8477 25.874C40.8476 23.9925 40.2264 22.4244 38.9688 21.1172L38.708 20.8594L38.6982 20.8496L38.6875 20.8398L39.3877 20.1416L39.3955 20.1338L38.6875 20.8398C37.2453 19.3923 35.5052 18.6738 33.4053 18.6738C31.372 18.6739 29.6602 19.3188 28.2168 20.6064L28.2139 20.6094L27.5498 19.8604C29.1836 18.4027 31.1361 17.6739 33.4053 17.6738L33.8438 17.6836C36.0137 17.7797 37.8638 18.5963 39.3955 20.1338C41.0294 21.6827 41.8476 23.5962 41.8477 25.874L41.8418 26.1973C41.7293 29.5295 39.8701 32.5199 36.2646 35.168L32.4521 37.9004L30.1377 35.4414C26.972 32.0872 25.3401 29.032 25.2412 26.2764L25.2363 26.0107C25.2363 23.2776 26.0069 21.227 27.5498 19.8604ZM33.4053 1C26.1437 1.00004 19.744 3.32301 14.207 7.96973L13.5645 7.2041C19.2825 2.40546 25.9097 3.7542e-05 33.4053 0V1Z" fill="#313131"/>
</svg>
