<svg width="21" height="18" viewBox="0 0 21 18" fill="none" xmlns="http://www.w3.org/2000/svg">
<path d="M4.06641 1.65724C4.4435 1.55472 4.84029 1.5 5.24986 1.5H15.7499C16.1594 1.5 16.5562 1.55472 16.9333 1.65724C16.4406 0.674537 15.424 0 14.2499 0H6.74986C5.5757 0 4.5591 0.674537 4.06641 1.65724Z" fill="#999999"/>
<path d="M0.75 9C0.75 7.34315 2.09315 6 3.75 6H17.25C18.9069 6 20.25 7.34315 20.25 9V15C20.25 16.6569 18.9069 18 17.25 18H3.75C2.09315 18 0.75 16.6569 0.75 15V9Z" fill="#999999"/>
<path d="M3.74986 4.5C3.34029 4.5 2.9435 4.55472 2.56641 4.65724C3.0591 3.67454 4.0757 3 5.24986 3H15.7499C16.924 3 17.9406 3.67454 18.4333 4.65724C18.0562 4.55472 17.6594 4.5 17.2499 4.5H3.74986Z" fill="#999999"/>
</svg>
