<svg width="20" height="21" viewBox="0 0 20 21" fill="none" xmlns="http://www.w3.org/2000/svg">
<path d="M13.7499 7.5C14.0413 7.5 14.3064 7.66865 14.4296 7.93262L19.6796 19.1826C19.8548 19.5579 19.6926 20.0045 19.3173 20.1797C18.942 20.3548 18.4955 20.1926 18.3203 19.8174L17.122 17.25H10.3779L9.17964 19.8174C9.00442 20.1926 8.55787 20.3548 8.18257 20.1797C7.80733 20.0045 7.64512 19.5579 7.82026 19.1826L13.0703 7.93262L13.123 7.83887C13.2602 7.6295 13.4949 7.5 13.7499 7.5ZM6.24995 1.5C6.24995 1.08579 6.58574 0.75 6.99995 0.75C7.41416 0.75 7.74995 1.08579 7.74995 1.5V3.00586C8.63433 3.0192 9.5132 3.05635 10.3857 3.11621C11.295 3.17861 12.1977 3.26534 13.0927 3.37695C13.5037 3.4282 13.7952 3.80295 13.7441 4.21387C13.6928 4.6249 13.3182 4.91649 12.9072 4.86523C12.2469 4.78291 11.5825 4.71398 10.914 4.65918C10.3234 6.96838 9.30477 9.10478 7.94722 10.9805C8.26456 11.3645 8.5973 11.7358 8.94624 12.0908C9.23634 12.3863 9.23182 12.8611 8.93647 13.1514C8.64102 13.4413 8.16614 13.4369 7.87593 13.1416C7.57266 12.833 7.28047 12.5135 6.99897 12.1846C5.42774 14.0203 3.50914 15.5503 1.3437 16.6689C0.975874 16.8586 0.524039 16.7143 0.333934 16.3467C0.143822 15.9787 0.288191 15.526 0.6562 15.3359C2.73822 14.2603 4.5717 12.7721 6.05171 10.9814C5.18608 9.78543 4.4577 8.48335 3.89057 7.09766C3.73371 6.71438 3.91656 6.27612 4.29975 6.11914C4.68301 5.96229 5.12128 6.14614 5.27827 6.5293C5.74033 7.65827 6.32002 8.72704 6.99995 9.72168C8.06417 8.16483 8.87956 6.42529 9.3896 4.55957C8.59808 4.52015 7.80138 4.5 6.99995 4.5C4.99909 4.5 3.02757 4.62396 1.09272 4.86523C0.681693 4.91649 0.307064 4.6249 0.255809 4.21387C0.204724 3.80295 0.496241 3.4282 0.907176 3.37695C2.66111 3.15824 4.44375 3.03213 6.24995 3.00488V1.5ZM11.0781 15.75H16.4218L13.7499 10.0234L11.0781 15.75Z" fill="#999999"/>
</svg>
