<svg width="25" height="24" viewBox="0 0 25 24" fill="none" xmlns="http://www.w3.org/2000/svg">
<path d="M3.625 16.6459C3.625 14.6297 4.14546 12.7327 5.05859 11.0834H4.33301C3.70542 11.0834 3.20738 11.4199 3.02539 11.8812C2.44452 13.3552 2.125 14.9622 2.125 16.6459C2.125 17.9693 2.32213 19.245 2.68848 20.4457C2.84205 20.9489 3.36126 21.3333 4.0332 21.3334H4.62109C4.56576 21.2096 4.51198 21.0845 4.46094 20.9584C3.92138 19.6253 3.625 18.169 3.625 16.6459ZM13.25 2.20837C13.25 1.17284 14.0895 0.333374 15.125 0.333374C17.127 0.333374 18.75 1.95634 18.75 3.95837C18.75 5.45361 18.4131 6.87306 17.8096 8.14197C17.8078 8.14562 17.8039 8.15446 17.8047 8.17126C17.8053 8.18397 17.8102 8.19665 17.8145 8.20837H21.3994C23.0134 8.20856 24.5995 9.31471 24.79 11.1029C24.8462 11.6306 24.875 12.1664 24.875 12.7084C24.875 16.2669 23.6347 19.5389 21.5635 22.1107C20.895 22.9407 19.8908 23.3334 18.9121 23.3334H14.2266C13.5551 23.3333 12.888 23.2253 12.251 23.0131L8.61719 21.8011C8.18396 21.6567 7.7301 21.5834 7.27344 21.5834H6.77051C6.77925 22.4627 6.14283 23.3332 5.09277 23.3334H4.0332C2.63166 23.3333 1.22698 22.5087 0.775391 21.0287C0.352072 19.6411 0.125 18.1691 0.125 16.6459C0.125 14.7072 0.493715 12.8524 1.16504 11.1488L1.27344 10.9037C1.86039 9.71658 3.10148 9.08337 4.33301 9.08337H5.56055C6.17934 9.08337 6.64866 9.37889 6.93262 9.79822C7.25482 9.6522 7.56274 9.4101 7.82129 9.08044L8.00977 8.84705C8.96517 7.692 10.1423 6.72656 11.4766 6.01599C12.1815 5.64057 12.7053 5.12832 12.9463 4.52576L13.0166 4.3363C13.1709 3.89006 13.25 3.42075 13.25 2.94763V2.20837ZM15.25 2.94763C15.25 3.64329 15.1341 4.33346 14.9072 4.98962L14.8027 5.26892C14.3347 6.4385 13.3968 7.25975 12.417 7.78162C11.2414 8.40769 10.2113 9.27345 9.39453 10.3148C8.79798 11.0754 7.92901 11.7021 6.89648 11.8949C6.08806 13.2917 5.625 14.9133 5.625 16.6459C5.625 17.6728 5.79051 18.6591 6.09082 19.5834H7.27344C7.94488 19.5834 8.61202 19.6914 9.24902 19.9037L12.8828 21.1156C13.316 21.26 13.7699 21.3333 14.2266 21.3334H18.9121C19.3752 21.3334 19.7699 21.1488 20.0059 20.8558C21.8012 18.6265 22.875 15.7942 22.875 12.7084C22.875 12.2373 22.8505 11.7723 22.8018 11.3148C22.7386 10.7214 22.1805 10.2086 21.3994 10.2084H15.125C14.5727 10.2084 14.125 9.76066 14.125 9.20837C14.125 8.65609 14.5727 8.20837 15.125 8.20837H15.8076C15.8012 7.90082 15.8596 7.58402 16.0029 7.28259C16.4815 6.2764 16.75 5.15016 16.75 3.95837C16.75 3.103 16.089 2.4031 15.25 2.33923V2.94763Z" fill="white"/>
</svg>
