<svg width="24" height="24" viewBox="0 0 24 24" fill="none" xmlns="http://www.w3.org/2000/svg">
<path d="M22.5 12C22.5 6.20101 17.799 1.5 12 1.5C6.20101 1.5 1.5 6.20101 1.5 12C1.5 17.799 6.20101 22.5 12 22.5C17.799 22.5 22.5 17.799 22.5 12ZM8.4375 8.10938C8.4375 7.23829 9.31481 6.66705 10.0938 6.9707L10.248 7.04395L17.252 10.9346C18.0875 11.399 18.0875 12.601 17.252 13.0654L10.248 16.9561C9.43571 17.4074 8.4375 16.8199 8.4375 15.8906V8.10938ZM9.9375 15.4121L16.0801 12L9.9375 8.58691V15.4121ZM24 12C24 18.6274 18.6274 24 12 24C5.37258 24 0 18.6274 0 12C0 5.37258 5.37258 0 12 0C18.6274 0 24 5.37258 24 12Z" fill="#E4E4E7"/>
</svg>
