<svg width="20" height="20" viewBox="0 0 20 20" fill="none" xmlns="http://www.w3.org/2000/svg">
<path d="M8.83234 1.61319C9.31375 0.665206 10.6849 0.66526 11.1663 1.61319L11.2112 1.71084L13.2923 6.71573L18.6976 7.14932C19.8612 7.24274 20.3332 8.69551 19.4466 9.45498L15.3284 12.9823L16.5872 18.2548C16.8581 19.3904 15.6226 20.2881 14.6263 19.6796L9.99933 16.8534L5.37238 19.6796C4.3761 20.2879 3.14155 19.3903 3.41242 18.2548L4.66925 12.9814L0.552067 9.45498C-0.334274 8.69553 0.137692 7.24289 1.30109 7.14932L6.70539 6.71573L8.78742 1.71084L8.83234 1.61319ZM8.04621 7.39834C7.85717 7.85259 7.4302 8.16267 6.93976 8.20205L1.87043 8.6083L5.73273 11.9169C6.10652 12.2371 6.26978 12.7399 6.15558 13.2187L4.9759 18.164L9.31574 15.5136L9.47785 15.4296C9.81058 15.2854 10.1891 15.2853 10.5218 15.4296L10.6839 15.5136L15.0228 18.164L13.8431 13.2187C13.7289 12.74 13.8922 12.2371 14.2659 11.9169L18.1273 8.6083L13.0589 8.20205C12.5685 8.1626 12.1415 7.85256 11.9525 7.39834L9.99933 2.70205L8.04621 7.39834Z" fill="#999999"/>
</svg>
