<svg width="25" height="24" viewBox="0 0 25 24" fill="none" xmlns="http://www.w3.org/2000/svg">
<path d="M20.0928 3.86851C20.4833 3.47798 21.1163 3.47798 21.5068 3.86851C25.9976 8.35946 25.9975 15.6402 21.5068 20.1312C21.1163 20.5217 20.4833 20.5217 20.0928 20.1312C19.7024 19.7407 19.7023 19.1076 20.0928 18.7171C23.8024 15.0072 23.8025 8.99248 20.0928 5.28257C19.7023 4.89206 19.7023 4.25903 20.0928 3.86851ZM16.999 6.96226C17.3895 6.57175 18.0226 6.57178 18.4131 6.96226C21.1956 9.74474 21.1956 14.2559 18.4131 17.0384C18.0225 17.4286 17.3894 17.4288 16.999 17.0384C16.6086 16.648 16.6089 16.0149 16.999 15.6244C19.0005 13.6229 19.0005 10.3778 16.999 8.37632C16.6087 7.9859 16.6088 7.35279 16.999 6.96226ZM14.375 21.263C14.3746 22.8809 12.4793 23.7167 11.2871 22.6937L11.1738 22.5882L5.96094 17.3753H3.76074C2.47158 17.3753 1.13276 16.6707 0.626953 15.3363L0.537109 15.0609C0.26838 14.0854 0.12503 13.0587 0.125 12.0003C0.125 10.942 0.268416 9.91532 0.537109 8.9398L0.626953 8.6644C1.13259 7.32964 2.4714 6.62534 3.76074 6.62534H5.96094L11.1738 1.41147L11.2871 1.30698C12.4794 0.28348 14.375 1.11931 14.375 2.73765V21.263ZM2.125 12.0003C2.12503 12.8775 2.24333 13.7255 2.46484 14.5296C2.59303 14.9949 3.08419 15.3753 3.76074 15.3753H6.375L6.47363 15.3802C6.70262 15.4029 6.9179 15.5042 7.08203 15.6683L12.375 20.9603V3.0394L7.08203 8.33237C6.89451 8.51981 6.64014 8.62534 6.375 8.62534H3.76074C3.08433 8.62534 2.59316 9.00496 2.46484 9.47007C2.2433 10.2743 2.125 11.1231 2.125 12.0003Z" fill="white"/>
</svg>
