<svg width="16" height="22" viewBox="0 0 16 22" fill="none" xmlns="http://www.w3.org/2000/svg">
<path d="M9.76201 -0.000244141L9.91631 0.00854492C10.2228 0.0406345 10.5121 0.165603 10.7454 0.366943L10.8577 0.473389L10.8606 0.477295L10.9622 0.598389C11.1841 0.893052 11.2906 1.26154 11.2562 1.63257L10.7815 6.99976H13.2708L13.387 7.00464C13.9633 7.04895 14.4841 7.37486 14.7757 7.87964L14.7767 7.88062L14.9671 8.21069C15.2427 8.68703 15.2308 9.27504 14.9407 9.74194L14.9427 9.74292L7.94268 21.1628L7.94073 21.1658L7.16143 20.6833L7.09014 20.6394L7.94073 21.1658C7.62264 21.6797 7.06268 21.9948 6.4583 21.9998L6.44951 20.9402V20.9998L6.4583 21.9998H6.24834C5.83362 21.999 5.43725 21.8278 5.15264 21.5261L5.88311 20.8376L5.82158 20.8933L5.15264 21.5261L5.14971 21.5232L5.04717 21.4011C4.8572 21.1487 4.75276 20.842 4.74834 20.5261L4.7542 20.3669L5.22002 14.9998H2.72881L2.61358 14.9949C2.03691 14.9507 1.51554 14.625 1.22393 14.1199L1.22295 14.1189L2.09014 13.6199L2.41143 13.4343L1.22295 14.1189L1.0335 13.7888L1.03545 13.7878C0.757998 13.3152 0.760273 12.7287 1.04619 12.2595L1.04717 12.2576L8.04717 0.837646L8.04912 0.83374L8.11358 0.737061C8.44539 0.27207 8.9846 -0.00372844 9.55987 0.000732422L9.76201 -0.000244141ZM6.23467 20.5046L5.82549 20.4666L5.81865 20.4656L6.23467 20.5046ZM2.93779 12.9998H7.40069L6.87334 19.0789L13.0521 8.99976H8.59795L9.13701 2.8855L2.93779 12.9998ZM14.1106 9.23218L14.0901 9.21948L13.6683 8.96069L14.1106 9.23218Z" fill="#FFD703"/>
</svg>
