<svg width="20" height="18" viewBox="0 0 20 18" fill="none" xmlns="http://www.w3.org/2000/svg">
<path d="M7 2C7 2.79565 6.6837 3.55848 6.12109 4.12109C5.55848 4.6837 4.79565 5 4 5H3C2.73478 5 2.48051 5.10543 2.29297 5.29297C2.10543 5.4805 2 5.73478 2 6V15C2 15.2652 2.10543 15.5195 2.29297 15.707C2.48051 15.8946 2.73478 16 3 16H17C17.2652 16 17.5195 15.8946 17.707 15.707C17.8946 15.5195 18 15.2652 18 15V6C18 5.73478 17.8946 5.4805 17.707 5.29297C17.5195 5.10543 17.2652 5 17 5H16C15.2044 5 14.4415 4.6837 13.8789 4.12109C13.3163 3.55849 13 2.79565 13 2H7ZM12 10C12 8.89543 11.1046 8 10 8C8.89543 8 8 8.89543 8 10C8 11.1046 8.89543 12 10 12C11.1046 12 12 11.1046 12 10ZM14 10C14 12.2091 12.2091 14 10 14C7.79086 14 6 12.2091 6 10C6 7.79086 7.79086 6 10 6C12.2091 6 14 7.79086 14 10ZM15.0049 2.09863C15.0276 2.32763 15.1288 2.54289 15.293 2.70703C15.4805 2.89457 15.7348 3 16 3H17C17.7957 3 18.5585 3.3163 19.1211 3.87891C19.6837 4.44151 20 5.20435 20 6V15C20 15.7956 19.6837 16.5585 19.1211 17.1211C18.5585 17.6837 17.7957 18 17 18H3C2.20435 18 1.44151 17.6837 0.878906 17.1211C0.316298 16.5585 5.05127e-07 15.7956 0 15V6C0 5.20435 0.316297 4.44152 0.878906 3.87891C1.44152 3.3163 2.20435 3 3 3H4C4.26522 3 4.5195 2.89457 4.70703 2.70703C4.87117 2.54289 4.97243 2.32763 4.99512 2.09863L5.00977 1.80273C5.05515 1.34474 5.25765 0.914223 5.58594 0.585938C5.96101 0.210865 6.46957 0 7 0H13C13.5304 0 14.039 0.210865 14.4141 0.585938C14.7423 0.914223 14.9449 1.34474 14.9902 1.80273L15.0049 2.09863Z" fill="#2E2E2E"/>
</svg>
