<svg width="27" height="24" viewBox="0 0 27 24" fill="none" xmlns="http://www.w3.org/2000/svg">
<path d="M9 21.75C9 21.6119 8.88807 21.5 8.75 21.5C8.61193 21.5 8.5 21.6119 8.5 21.75C8.5 21.8881 8.61193 22 8.75 22C8.88807 22 9 21.8881 9 21.75ZM23 21.75C23 21.6119 22.8881 21.5 22.75 21.5C22.6119 21.5 22.5 21.6119 22.5 21.75C22.5 21.8881 22.6119 22 22.75 22C22.8881 22 23 21.8881 23 21.75ZM4.75 0C5.11393 0 5.42503 0.261724 5.48828 0.620117L5.67285 1.66992C5.69819 1.66733 5.72398 1.66699 5.75 1.66699H25.1396V2.91699L26.3662 3.16211L24.5664 12.1621L24.54 12.2666C24.4697 12.5078 24.3285 12.7235 24.1328 12.8838C23.9093 13.0669 23.6288 13.1671 23.3398 13.167H7.75C7.73357 13.167 7.71734 13.1651 7.70117 13.1641L8.37891 17H23.75C24.1642 17 24.5 17.3358 24.5 17.75C24.5 18.1642 24.1642 18.5 23.75 18.5H7.75C7.38607 18.5 7.07497 18.2383 7.01172 17.8799L4.12109 1.5H0.75C0.335786 1.5 0 1.16421 0 0.75C0 0.335786 0.335786 0 0.75 0H4.75ZM7.44824 11.7305C7.54064 11.6898 7.64256 11.667 7.75 11.667H23.1348L24.8359 3.16699H5.9375L7.44824 11.7305ZM25.1396 1.66699C25.2782 1.66691 25.4154 1.68963 25.5459 1.73438L25.6748 1.78613L25.7959 1.85254C25.8743 1.90087 25.9477 1.95715 26.0137 2.02148L26.1064 2.12402L26.1885 2.23535C26.2387 2.31259 26.2804 2.39508 26.3125 2.48145L26.3535 2.61426L26.3789 2.75C26.3973 2.8868 26.3934 3.02613 26.3662 3.16211L25.1396 2.91699V1.66699ZM10.5 21.75C10.5 22.7165 9.7165 23.5 8.75 23.5C7.7835 23.5 7 22.7165 7 21.75C7 20.7835 7.7835 20 8.75 20C9.7165 20 10.5 20.7835 10.5 21.75ZM24.5 21.75C24.5 22.7165 23.7165 23.5 22.75 23.5C21.7835 23.5 21 22.7165 21 21.75C21 20.7835 21.7835 20 22.75 20C23.7165 20 24.5 20.7835 24.5 21.75Z" fill="black"/>
</svg>
