<svg width="24" height="24" viewBox="0 0 24 24" fill="none" xmlns="http://www.w3.org/2000/svg">
<path d="M17.6465 5.64651C17.8418 5.45125 18.1583 5.45125 18.3535 5.64651C18.5488 5.84177 18.5488 6.15828 18.3535 6.35354L6.35354 18.3535C6.15828 18.5488 5.84177 18.5488 5.64651 18.3535C5.45125 18.1583 5.45125 17.8418 5.64651 17.6465L17.6465 5.64651Z" fill="#222222"/>
<path d="M6.35349 5.64651C6.15823 5.45125 5.84172 5.45125 5.64646 5.64651C5.4512 5.84177 5.4512 6.15828 5.64646 6.35354L17.6465 18.3535C17.8417 18.5488 18.1582 18.5488 18.3535 18.3535C18.5488 18.1583 18.5488 17.8418 18.3535 17.6465L6.35349 5.64651Z" fill="#222222"/>
</svg>
