<svg width="24" height="24" viewBox="0 0 24 24" fill="none" xmlns="http://www.w3.org/2000/svg">
<path d="M16.5 11C16.5 10.0431 16.4993 9.37563 16.4316 8.87207C16.3659 8.38289 16.2451 8.12396 16.0605 7.93945C15.876 7.75494 15.6171 7.63413 15.1279 7.56836C14.6244 7.50066 13.9569 7.5 13 7.5H11C10.0431 7.5 9.37563 7.50066 8.87207 7.56836C8.38289 7.63413 8.12396 7.75495 7.93945 7.93945C7.75495 8.12396 7.63413 8.38289 7.56836 8.87207C7.50066 9.37563 7.5 10.0431 7.5 11V13C7.5 13.9569 7.50066 14.6244 7.56836 15.1279C7.63413 15.6171 7.75494 15.876 7.93945 16.0605C8.12396 16.2451 8.38289 16.3659 8.87207 16.4316C9.37563 16.4993 10.0431 16.5 11 16.5H13C13.9569 16.5 14.6244 16.4993 15.1279 16.4316C15.6171 16.3659 15.876 16.2451 16.0605 16.0605C16.2451 15.876 16.3659 15.6171 16.4316 15.1279C16.4993 14.6244 16.5 13.9569 16.5 13V11ZM17.5 13C17.5 13.9285 17.5006 14.6751 17.4219 15.2607C17.3412 15.8608 17.1689 16.3663 16.7676 16.7676C16.3663 17.1689 15.8608 17.3412 15.2607 17.4219C14.6751 17.5006 13.9285 17.5 13 17.5H11C10.0715 17.5 9.32489 17.5006 8.73926 17.4219C8.13919 17.3412 7.63369 17.1689 7.23242 16.7676C6.83115 16.3663 6.6588 15.8608 6.57813 15.2607C6.49943 14.6751 6.5 13.9285 6.5 13V11C6.5 10.0715 6.49943 9.32489 6.57813 8.73926C6.6588 8.13919 6.83114 7.6337 7.23242 7.23242C7.6337 6.83114 8.13919 6.6588 8.73926 6.57813C9.32489 6.49943 10.0715 6.5 11 6.5H13C13.9285 6.5 14.6751 6.49943 15.2607 6.57813C15.8608 6.6588 16.3663 6.83115 16.7676 7.23242C17.1689 7.63369 17.3412 8.13919 17.4219 8.73926C17.5006 9.32489 17.5 10.0715 17.5 11V13Z" fill="#4E4E4E"/>
<path d="M13 10H11C10.4477 10 10 10.4477 10 11V13C10 13.5523 10.4477 14 11 14H13C13.5523 14 14 13.5523 14 13V11C14 10.4477 13.5523 10 13 10Z" fill="#4E4E4E"/>
<path d="M9.5 7V4C9.5 3.72386 9.72386 3.5 10 3.5C10.2761 3.5 10.5 3.72386 10.5 4V7C10.5 7.27614 10.2761 7.5 10 7.5C9.72386 7.5 9.5 7.27614 9.5 7Z" fill="#4E4E4E"/>
<path d="M13.5 7V4C13.5 3.72386 13.7239 3.5 14 3.5C14.2761 3.5 14.5 3.72386 14.5 4V7C14.5 7.27614 14.2761 7.5 14 7.5C13.7239 7.5 13.5 7.27614 13.5 7Z" fill="#4E4E4E"/>
<path d="M20 9.5C20.2761 9.5 20.5 9.72386 20.5 10C20.5 10.2761 20.2761 10.5 20 10.5H17C16.7239 10.5 16.5 10.2761 16.5 10C16.5 9.72386 16.7239 9.5 17 9.5H20Z" fill="#4E4E4E"/>
<path d="M20 13.5C20.2761 13.5 20.5 13.7239 20.5 14C20.5 14.2761 20.2761 14.5 20 14.5H17C16.7239 14.5 16.5 14.2761 16.5 14C16.5 13.7239 16.7239 13.5 17 13.5H20Z" fill="#4E4E4E"/>
<path d="M9.5 20V17C9.5 16.7239 9.72386 16.5 10 16.5C10.2761 16.5 10.5 16.7239 10.5 17V20C10.5 20.2761 10.2761 20.5 10 20.5C9.72386 20.5 9.5 20.2761 9.5 20Z" fill="#4E4E4E"/>
<path d="M13.5 20V17C13.5 16.7239 13.7239 16.5 14 16.5C14.2761 16.5 14.5 16.7239 14.5 17V20C14.5 20.2761 14.2761 20.5 14 20.5C13.7239 20.5 13.5 20.2761 13.5 20Z" fill="#4E4E4E"/>
<path d="M7 9.5C7.27614 9.5 7.5 9.72386 7.5 10C7.5 10.2761 7.27614 10.5 7 10.5H4C3.72386 10.5 3.5 10.2761 3.5 10C3.5 9.72386 3.72386 9.5 4 9.5H7Z" fill="#4E4E4E"/>
<path d="M7 13.5C7.27614 13.5 7.5 13.7239 7.5 14C7.5 14.2761 7.27614 14.5 7 14.5H4C3.72386 14.5 3.5 14.2761 3.5 14C3.5 13.7239 3.72386 13.5 4 13.5H7Z" fill="#4E4E4E"/>
</svg>
