<svg width="24" height="24" viewBox="0 0 24 24" fill="none" xmlns="http://www.w3.org/2000/svg">
<path d="M6 16.5C7.20949 16.5 8.21858 17.3588 8.4502 18.5H20C20.2761 18.5 20.5 18.7239 20.5 19C20.5 19.2761 20.2761 19.5 20 19.5H8.4502C8.21858 20.6412 7.20949 21.5 6 21.5C4.61929 21.5 3.5 20.3807 3.5 19C3.5 17.6193 4.61929 16.5 6 16.5ZM19.5 12C19.5 11.1715 18.8285 10.5 18 10.5C17.1715 10.5 16.5 11.1715 16.5 12C16.5 12.8285 17.1715 13.5 18 13.5C18.8285 13.5 19.5 12.8285 19.5 12ZM12 2.5C13.2095 2.5 14.2186 3.35886 14.4502 4.5H20C20.2761 4.5 20.5 4.72386 20.5 5C20.5 5.27614 20.2761 5.5 20 5.5H14.4502C14.2186 6.64114 13.2095 7.5 12 7.5C10.7905 7.5 9.78142 6.64114 9.5498 5.5H4C3.72386 5.5 3.5 5.27614 3.5 5C3.5 4.72386 3.72386 4.5 4 4.5H9.5498C9.78142 3.35886 10.7905 2.5 12 2.5ZM12 3.5C11.1715 3.5 10.5 4.17157 10.5 5C10.5 5.82843 11.1715 6.5 12 6.5C12.8285 6.5 13.5 5.82843 13.5 5C13.5 4.17157 12.8285 3.5 12 3.5ZM4.5 19C4.5 19.8285 5.17157 20.5 6 20.5C6.82843 20.5 7.5 19.8285 7.5 19C7.5 18.1715 6.82843 17.5 6 17.5C5.17157 17.5 4.5 18.1715 4.5 19ZM20.5 12C20.5 13.3807 19.3807 14.5 18 14.5C16.7905 14.5 15.7814 13.6412 15.5498 12.5H4C3.72386 12.5 3.5 12.2761 3.5 12C3.5 11.7239 3.72386 11.5 4 11.5H15.5498C15.7814 10.3588 16.7905 9.5 18 9.5C19.3807 9.5 20.5 10.6193 20.5 12Z" fill="black"/>
</svg>
