<svg width="18" height="18" viewBox="0 0 18 18" fill="none" xmlns="http://www.w3.org/2000/svg">
<path d="M5 12C5 11.4477 4.55228 11 4 11H3C2.44772 11 2 11.4477 2 12V15C2 15.5523 2.44772 16 3 16H4C4.55228 16 5 15.5523 5 15V12ZM16 12C16 11.4477 15.5523 11 15 11H14C13.4477 11 13 11.4477 13 12V15C13 15.5523 13.4477 16 14 16H15C15.5523 16 16 15.5523 16 15V12ZM18 15C18 16.6569 16.6569 18 15 18H14C12.3431 18 11 16.6569 11 15V12C11 10.3431 12.3431 9 14 9H15C15.351 9 15.6869 9.06306 16 9.17383V9C16 7.14348 15.2629 5.36256 13.9502 4.0498C12.6374 2.73705 10.8565 2 9 2C7.14348 2 5.36256 2.73705 4.0498 4.0498C2.73705 5.36256 2 7.14348 2 9V9.17383C2.31306 9.06306 2.649 9 3 9H4C5.65685 9 7 10.3431 7 12V15C7 16.6569 5.65685 18 4 18H3C1.34315 18 0 16.6569 0 15V9C2.52568e-07 6.61305 0.947915 4.32357 2.63574 2.63574C4.32357 0.947915 6.61305 0 9 0C11.3869 2.52568e-07 13.6764 0.947915 15.3643 2.63574C17.0521 4.32357 18 6.61305 18 9V15Z" fill="#2E2E2E"/>
</svg>
