<svg width="22" height="20" viewBox="0 0 22 20" fill="none" xmlns="http://www.w3.org/2000/svg">
<path d="M20 5.7002C20 3.38756 18.104 1.5 15.75 1.5C14.6307 1.5 13.5499 2.11723 12.6934 2.82715C12.2757 3.17332 11.9354 3.52182 11.7002 3.7832C11.5832 3.91326 11.4931 4.02049 11.4336 4.09375C11.4039 4.13037 11.3821 4.15881 11.3682 4.17676C11.3614 4.18542 11.3564 4.19154 11.3535 4.19531C11.3521 4.19719 11.351 4.19872 11.3506 4.19922C11.209 4.38852 10.9864 4.5 10.75 4.5C10.5133 4.5 10.291 4.38792 10.1494 4.19824V4.19922C10.149 4.19872 10.1479 4.19719 10.1465 4.19531C10.1436 4.19154 10.1386 4.18542 10.1318 4.17676C10.1179 4.15881 10.0961 4.13037 10.0664 4.09375C10.0069 4.02049 9.9168 3.91326 9.7998 3.7832C9.56463 3.52182 9.2243 3.17332 8.80664 2.82715C7.95006 2.11723 6.86929 1.5 5.75 1.5C3.39603 1.5 1.5 3.38756 1.5 5.7002C1.50003 6.69503 1.69505 8.42224 2.91406 10.5371C4.13543 12.656 6.40845 15.2043 10.6279 17.7988L10.6865 17.8252C10.7071 17.8309 10.7285 17.834 10.75 17.834C10.7931 17.834 10.8353 17.8212 10.8721 17.7988C15.0915 15.2043 17.3646 12.656 18.5859 10.5371C19.805 8.42225 20 6.69503 20 5.7002ZM21.5 5.7002C21.5 6.91232 21.257 8.907 19.8857 11.2861C18.5167 13.6612 16.0467 16.3794 11.6553 19.0791L11.2197 18.3721L11.2617 18.4404L11.6553 19.0791L11.6514 19.0811L11.5479 19.1387C11.3017 19.2662 11.0283 19.334 10.75 19.334C10.4717 19.334 10.1983 19.2662 9.95215 19.1387L9.84863 19.0811L9.84473 19.0791L10.2383 18.4404L10.2793 18.3721L9.84473 19.0791C5.45335 16.3794 2.98332 13.6612 1.61426 11.2861C0.242953 8.907 2.61043e-05 6.91232 0 5.7002C0 2.54483 2.58197 0 5.75 0C7.39159 0 8.81053 0.882859 9.76367 1.67285C10.1597 2.00113 10.4936 2.32791 10.75 2.60059C11.0064 2.32791 11.3403 2.00113 11.7363 1.67285C12.6895 0.882859 14.1084 0 15.75 0C18.918 0 21.5 2.54483 21.5 5.7002Z" fill="black"/>
</svg>
