<svg width="14" height="21" viewBox="0 0 14 21" fill="none" xmlns="http://www.w3.org/2000/svg">
<path d="M11.7188 15.875H2V18.5781C2 18.673 2.07695 18.75 2.17188 18.75H11.5469C11.6418 18.75 11.7188 18.673 11.7188 18.5781V15.875ZM5.85938 17.2451V17.2344C5.85938 16.6821 6.30709 16.2344 6.85938 16.2344C7.41166 16.2344 7.85938 16.6821 7.85938 17.2344V17.2451C7.85938 17.7974 7.41166 18.2451 6.85938 18.2451C6.30709 18.2451 5.85938 17.7974 5.85938 17.2451ZM11.7188 2.17188C11.7188 2.07695 11.6418 2 11.5469 2H8.98242C8.79914 2.22823 8.51861 2.375 8.20312 2.375H5.85938C5.54389 2.375 5.26336 2.22823 5.08008 2H2.17188C2.07695 2 2 2.07695 2 2.17188V13.875H11.7188V2.17188ZM13.7188 18.5781C13.7188 19.7776 12.7464 20.75 11.5469 20.75H2.17188C0.972382 20.75 0 19.7776 0 18.5781V2.17188C0 0.972381 0.972381 0 2.17188 0H11.5469C12.7464 0 13.7188 0.972382 13.7188 2.17188V18.5781Z" fill="#2E2E2E"/>
</svg>
