<svg width="19" height="24" viewBox="0 0 19 24" fill="none" xmlns="http://www.w3.org/2000/svg">
<path d="M17 22.75V20.083C16.9999 18.8317 16.5761 17.6514 15.8506 16.7979C15.1282 15.948 14.1771 15.5 13.2168 15.5H5.2832C4.32285 15.5 3.37184 15.948 2.64941 16.7979C1.92386 17.6514 1.50007 18.8317 1.5 20.083V22.75C1.5 23.1642 1.16421 23.5 0.75 23.5C0.335786 23.5 0 23.1642 0 22.75V20.083C7.32653e-05 18.5056 0.531277 16.9728 1.50586 15.8262C2.4837 14.6758 3.83904 14 5.2832 14H13.2168C14.661 14 16.0163 14.6758 16.9941 15.8262C17.9687 16.9728 18.4999 18.5056 18.5 20.083V22.75C18.5 23.1642 18.1642 23.5 17.75 23.5C17.3358 23.5 17 23.1642 17 22.75ZM14 5.25C14 3.17893 12.3211 1.5 10.25 1.5C8.17893 1.5 6.5 3.17893 6.5 5.25C6.5 7.32107 8.17893 9 10.25 9C12.3211 9 14 7.32107 14 5.25ZM15.5 5.25C15.5 8.1495 13.1495 10.5 10.25 10.5C7.3505 10.5 5 8.1495 5 5.25C5 2.3505 7.3505 0 10.25 0C13.1495 0 15.5 2.3505 15.5 5.25Z" fill="black"/>
</svg>
