<svg width="13" height="20" viewBox="0 0 13 20" fill="none" xmlns="http://www.w3.org/2000/svg">
<path fill-rule="evenodd" clip-rule="evenodd" d="M0.842906 0.842878C-8.34788e-07 1.68578 4.86456e-05 3.04235 -1.00338e-06 5.75561L-8.34788e-07 13.4297C-8.34788e-07 16.143 -1.50914e-06 17.4995 0.84294 18.3425C1.68581 19.1853 3.0424 19.1854 5.75563 19.1853L6.7149 19.1853C9.42806 19.1853 10.7847 19.1853 11.6276 18.3425C12.4705 17.4996 12.4705 16.1429 12.4705 13.4298L12.4705 5.75562C12.4705 3.04236 12.4705 1.6858 11.6276 0.842877C10.7847 -8.43144e-06 9.4281 -7.92568e-06 6.71489 -7.92568e-06L5.75561 -7.75709e-06C3.0424 -7.84139e-06 1.68579 -7.75709e-06 0.842906 0.842878ZM8.63308 3.62821C9.04729 3.62821 9.38308 3.29242 9.38308 2.87821C9.38307 2.46399 9.04729 2.12821 8.63308 2.12821L3.83674 2.1282C3.42252 2.12821 3.08674 2.46399 3.08674 2.8782C3.08674 3.29242 3.42252 3.62821 3.83674 3.6282L8.63308 3.62821ZM6.2347 16.308C7.02942 16.308 7.67359 15.6638 7.67366 14.8691C7.67366 14.0744 7.02942 13.4302 6.23477 13.4302C5.44005 13.4303 4.79588 14.0744 4.79581 14.8692C4.79581 15.6638 5.44005 16.308 6.2347 16.308Z" fill="#4E4E4E"/>
</svg>
