<svg width="18" height="18" viewBox="0 0 18 18" fill="none" xmlns="http://www.w3.org/2000/svg">
<path d="M14.3154 7.9082C14.3154 6.20872 13.6402 4.57867 12.4385 3.37695C11.2369 2.17543 9.60749 1.50008 7.9082 1.5C6.20872 1.5 4.57867 2.17524 3.37695 3.37695C2.17524 4.57867 1.5 6.20872 1.5 7.9082C1.50008 9.60749 2.17543 11.2369 3.37695 12.4385C4.57867 13.6402 6.20872 14.3154 7.9082 14.3154C9.60757 14.3153 11.2368 13.6401 12.4385 12.4385C13.6401 11.2368 14.3153 9.60757 14.3154 7.9082ZM15.8154 7.9082C15.8154 9.75251 15.1708 11.5299 14.0068 12.9404L17.2812 16.2197C17.5739 16.5129 17.5734 16.9886 17.2803 17.2812C16.9871 17.5739 16.5114 17.5734 16.2188 17.2803L12.9463 14.001C11.5348 15.1683 9.75528 15.8154 7.9082 15.8154C5.81104 15.8154 3.79939 14.9828 2.31641 13.5C0.833461 12.0171 8.17001e-05 10.0054 0 7.9082C0 5.8109 0.833388 3.79942 2.31641 2.31641C3.79942 0.833388 5.8109 0 7.9082 0C10.0054 8.17008e-05 12.0171 0.833461 13.5 2.31641C14.9828 3.79939 15.8154 5.81104 15.8154 7.9082Z" fill="#989898"/>
</svg>
