<svg width="24" height="24" viewBox="0 0 24 24" fill="none" xmlns="http://www.w3.org/2000/svg">
<path d="M15 12C15 10.3431 13.6569 9 12 9C10.3431 9 9 10.3431 9 12C9 13.6569 10.3431 15 12 15V16C9.79086 16 8 14.2091 8 12C8 9.79086 9.79086 8 12 8C14.2091 8 16 9.79086 16 12C16 14.2091 14.2091 16 12 16V15C13.6569 15 15 13.6569 15 12Z" fill="#979797"/>
<path d="M20.2705 12C20.2705 11.8565 20.2261 11.7672 19.8018 11.252C19.1066 10.408 17.9997 9.21 16.6328 8.22656C15.2618 7.24017 13.6718 6.5 12 6.5C10.3282 6.5 8.73821 7.24017 7.36719 8.22656C6.00027 9.21 4.89339 10.408 4.19824 11.252C3.77388 11.7672 3.72949 11.8565 3.72949 12C3.72949 12.1435 3.77388 12.2328 4.19824 12.748C4.89339 13.592 6.00027 14.79 7.36719 15.7734C8.73821 16.7598 10.3282 17.5 12 17.5C13.6718 17.5 15.2618 16.7598 16.6328 15.7734C17.9997 14.79 19.1066 13.592 19.8018 12.748C20.2261 12.2328 20.2705 12.1435 20.2705 12ZM21.2705 12C21.2705 12.5741 20.9262 12.9565 20.5742 13.3838C19.8493 14.2639 18.6797 15.5324 17.2168 16.585C15.7578 17.6347 13.9639 18.5 12 18.5C10.0361 18.5 8.24224 17.6347 6.7832 16.585C5.32026 15.5324 4.15072 14.2639 3.42578 13.3838C3.07382 12.9565 2.72949 12.5741 2.72949 12C2.72949 11.4259 3.07382 11.0435 3.42578 10.6162C4.15072 9.73605 5.32026 8.46758 6.7832 7.41504C8.24224 6.36533 10.0361 5.5 12 5.5C13.9639 5.5 15.7578 6.36533 17.2168 7.41504C18.6797 8.46758 19.8493 9.73605 20.5742 10.6162C20.9262 11.0435 21.2705 11.4259 21.2705 12Z" fill="#979797"/>
</svg>
