<svg width="80" height="82" viewBox="0 0 80 82" fill="none" xmlns="http://www.w3.org/2000/svg">
<g clip-path="url(#clip0_48_526)">
<path d="M59.0069 28.9502L59.1835 29.131C59.3213 28.8536 58.9365 27.7159 58.8294 27.3752C59.5911 26.3006 63.4737 24.9215 64.5428 24.0865L64.6271 24.0198C65.0982 24.2174 65.0754 26.1645 65.6288 26.7592C65.7666 27.2199 65.8598 28.1915 65.9243 28.7032C66.2674 29.0726 66.1911 30.2379 66.202 30.7763C66.2169 30.3582 66.2109 29.0086 66.3795 28.7304L66.5848 28.715C66.5729 34.1523 65.9937 37.9566 62.0149 42.0744C61.6797 42.421 60.4301 43.5256 60.081 43.7273C58.9891 44.4506 57.2238 45.5553 55.9504 45.947C52.5626 46.989 48.6691 46.8216 45.1584 46.882C41.9709 46.9368 38.7299 46.8328 35.563 46.9049L35.5516 55.2497C35.5499 56.6328 35.6489 59.2246 35.3704 60.4425C35.0904 61.6741 34.4703 62.7997 33.5823 63.6884C30.8243 66.4894 29.2277 65.3516 26.5624 65.8685C26.4615 65.7387 26.4063 65.535 26.4096 65.3719C26.4988 60.9782 26.261 56.4403 26.4376 52.0588C26.3954 51.4198 26.3888 50.7078 26.4155 50.0677C26.5492 46.8737 25.7031 43.1963 28.4504 40.8482C30.882 38.7698 33.3131 38.556 36.3162 38.7664C36.571 38.8465 36.9736 39.0371 37.1955 39.0938C37.9048 39.2749 38.7577 39.2287 39.4975 39.3865C42.203 39.7102 45.2972 39.3982 48.0393 39.4199C49.3772 39.3852 50.8093 39.3923 52.1134 39.1102L52.037 39.0292C51.918 39.0127 51.8099 39.0129 51.6899 39.0268C51.9746 38.6253 52.6271 38.8727 53.1676 38.2572C54.4479 37.4749 55.0588 37.6522 56.3848 36.2154C58.5676 33.8515 58.6965 32.2802 58.6569 29.263C58.8076 28.8087 58.7243 28.3399 58.6827 27.8567L58.5656 27.839C58.5527 27.7076 58.5448 27.7204 58.5646 27.5969L58.6727 27.6621L58.5944 27.7287L58.7253 27.7749L58.6479 27.8928C58.8096 28.2604 58.8046 28.4848 58.9772 28.8844L59.0069 28.9502Z" fill="#F9CA5D"/>
<path d="M59.0069 28.9502L59.1835 29.131C59.3213 28.8536 58.9365 27.7159 58.8294 27.3752C59.5911 26.3006 63.4737 24.9215 64.5428 24.0865L64.6271 24.0198C65.0982 24.2174 65.0754 26.1645 65.6288 26.7592C65.7666 27.2199 65.8598 28.1915 65.9243 28.7032C66.2674 29.0726 66.1911 30.2379 66.202 30.7763C66.2169 30.3582 66.2109 29.0086 66.3795 28.7304L66.5848 28.715C66.5729 34.1523 65.9937 37.9566 62.0149 42.0744C61.6797 42.421 60.4301 43.5256 60.081 43.7273L59.8073 43.3344C57.3041 45.1075 55.3157 45.8113 52.3187 46.0781C51.7445 46.11 50.1696 46.0973 49.7104 46.2041C47.6575 46.2114 45.6046 46.1546 43.5547 46.0338C44.4017 45.9855 45.1365 45.9906 45.9845 46.0002C47.3689 44.5731 48.7782 43.1227 49.9326 41.5003C50.4899 40.7174 51.085 40.0357 51.7564 39.3534C50.9402 39.4815 48.0879 39.7633 47.3788 39.5331C47.6605 39.5381 47.7974 39.5714 48.0393 39.4199C49.3772 39.3852 50.8093 39.3923 52.1134 39.1102L52.037 39.0292C51.918 39.0127 51.8099 39.0129 51.6899 39.0268C51.9746 38.6253 52.6271 38.8727 53.1676 38.2572C54.4479 37.4749 55.0588 37.6522 56.3848 36.2154C58.5676 33.8515 58.6965 32.2802 58.6569 29.263C58.8076 28.8087 58.7243 28.3399 58.6827 27.8567L58.5656 27.839C58.5527 27.7076 58.5448 27.7204 58.5646 27.5969L58.6727 27.6621L58.5944 27.7287L58.7253 27.7749L58.6479 27.8928C58.8096 28.2604 58.8046 28.4848 58.9772 28.8844L59.0069 28.9502Z" fill="#D28F28"/>
<path d="M65.9243 28.7032C66.2675 29.0726 66.1911 30.2379 66.202 30.7763C66.2169 30.3582 66.2109 29.0086 66.3795 28.7304L66.5848 28.715C66.5729 34.1523 65.9937 37.9566 62.0149 42.0744C61.6797 42.421 60.4301 43.5256 60.081 43.7273L59.8073 43.3344C57.3042 45.1075 55.3157 45.8113 52.3187 46.0781C53.2291 45.6384 53.0893 45.1001 53.6139 44.6595C55.2403 43.2926 55.9881 41.3304 57.4321 39.8631C58.5736 38.6929 59.6982 37.283 60.9111 36.2166C61.5032 35.6963 64.9841 33.9169 65.5663 33.958C65.9957 32.3265 65.9432 30.3825 65.9243 28.7032Z" fill="#9A580A"/>
<path d="M65.9243 28.7032C66.2674 29.0726 66.1911 30.2379 66.202 30.7763C66.2169 30.3582 66.2109 29.0086 66.3795 28.7304L66.5848 28.715C66.5729 34.1523 65.9937 37.9566 62.0149 42.0744C61.6797 42.421 60.4301 43.5256 60.081 43.7273L59.8073 43.3344C62.9124 40.6316 64.8264 38.16 65.5663 33.958C65.9957 32.3265 65.9431 30.3825 65.9243 28.7032Z" fill="#E69C25"/>
<path d="M58.6569 29.2631C58.8076 28.8088 58.7243 28.3399 58.6826 27.8567L58.5656 27.8391C58.5527 27.7076 58.5448 27.7205 58.5646 27.5969L58.6727 27.6622L58.5944 27.7288L58.7253 27.775L58.6479 27.8929C58.8096 28.2604 58.8046 28.4848 58.9772 28.8844L59.0069 28.9503C58.9782 29.1823 58.9891 29.1311 59.0446 29.3366C60.2397 33.7011 56.5256 38.7029 52.1134 39.1103L52.037 39.0293C51.918 39.0127 51.8099 39.0129 51.6899 39.0269C51.9745 38.6254 52.6271 38.8727 53.1676 38.2573C54.4479 37.475 55.0588 37.6523 56.3848 36.2155C58.5676 33.8516 58.6965 32.2803 58.6569 29.2631Z" fill="#FBE181"/>
<path d="M26.9554 52.4722C27.0838 49.2491 26.2866 44.5962 28.2715 42.0927C29.4471 40.6099 31.0912 39.706 32.9426 39.4617C33.5415 39.4722 35.7258 39.4726 36.2469 39.5576C35.3817 39.5787 34.5161 39.5847 33.6506 39.5758C32.505 47.7521 31.6847 48.4649 27.1893 55.2209C27.1857 55.5584 27.2054 56.1095 27.1219 56.4165L27.125 56.4145C27.1729 55.7754 27.0372 53.16 26.9554 52.4722Z" fill="#D7932A"/>
<path d="M26.9433 62.4545C27.2089 62.2049 27.1687 62.3407 27.5328 62.3008C28.3657 62.2096 29.5511 61.1372 30.2077 60.6829C31.3345 59.9033 33.9208 56.698 34.8711 56.3256L34.8764 58.3324C34.7234 60.5889 34.5497 62.04 32.7267 63.7234C31.2077 65.126 29.3609 65.3377 27.3806 65.308C27.2767 65.3064 27.1752 65.2728 27.075 65.2434L26.9504 65.0696C26.9323 64.2136 26.9447 63.3143 26.9433 62.4545Z" fill="#A86614"/>
<path d="M59.8073 43.3345L60.081 43.7273C58.9891 44.4507 57.2238 45.5553 55.9504 45.9471C52.5626 46.9891 48.6691 46.8217 45.1583 46.8821C41.9709 46.9369 38.7299 46.8329 35.563 46.905L35.5516 55.2498C35.5499 56.6329 35.6489 59.2247 35.3704 60.4426C35.0904 61.6742 34.4703 62.7998 33.5823 63.6885C30.8243 66.4895 29.2277 65.3517 26.5624 65.8686C26.7989 65.5654 26.9117 65.464 26.9504 65.0696L27.075 65.2435C27.1752 65.2729 27.2767 65.3064 27.3806 65.308C29.3609 65.3377 31.2077 65.126 32.7267 63.7234C34.5497 62.0401 34.7234 60.5889 34.8764 58.3324L34.8711 56.3256L34.8746 55.1296L34.8711 53.8574C35.0023 51.806 34.6614 48.9207 34.9394 46.8002C34.9553 46.6792 35.1212 46.4875 35.2102 46.3931C36.6098 45.5217 44.9025 46.3729 47.1904 46.3415C47.9878 46.2493 48.9507 46.4026 49.7104 46.2042C50.1696 46.0974 51.7445 46.1101 52.3187 46.0782C55.3157 45.8114 57.3041 45.1076 59.8073 43.3345Z" fill="#D99B30"/>
<path d="M35.2102 46.3931C36.6098 45.5217 44.9025 46.3729 47.1904 46.3415L47.1002 46.5372C45.2476 46.9303 36.1403 46.3789 35.4968 46.8143C35.42 47.123 35.4212 47.1694 35.4188 47.4911C35.3801 47.1021 35.3682 46.7522 35.2102 46.3931Z" fill="#FBE181"/>
<path d="M35.2102 46.3931C35.3682 46.7522 35.3801 47.1021 35.4188 47.4911C35.5371 49.4534 35.4522 52.1969 35.4438 54.1949L35.3409 54.6551C35.0572 54.7803 34.9846 54.8172 34.8746 55.1296L34.8711 53.8574C35.0023 51.806 34.6614 48.9207 34.9394 46.8002C34.9553 46.6792 35.1212 46.4875 35.2102 46.3931Z" fill="#FCEDA6"/>
<path d="M34.8747 55.1295C34.9846 54.8171 35.0572 54.7802 35.341 54.655L35.4438 54.1948C35.4444 55.2051 35.5371 59.0913 35.1445 59.8069L35.0363 59.7768C34.9404 59.2735 34.9805 58.6243 34.8765 58.3323L34.8711 56.3255L34.8747 55.1295Z" fill="#FBE181"/>
<path d="M26.4376 52.0588C26.3954 51.4198 26.3888 50.7077 26.4155 50.0677C26.5492 46.8736 25.7031 43.1963 28.4504 40.8482C30.882 38.7698 33.3131 38.556 36.3162 38.7664C36.571 38.8465 36.9736 39.037 37.1955 39.0937C37.9048 39.2749 38.7577 39.2287 39.4975 39.3865C38.3183 39.4044 33.7137 39.2944 32.9426 39.4616C31.0912 39.706 29.4471 40.6098 28.2715 42.0926C26.2866 44.5962 27.0838 49.249 26.9554 52.4722C26.7923 55.4811 27.1444 58.3273 26.8844 61.4412L26.958 61.5077L26.9433 62.4544C26.9447 63.3142 26.9323 64.2135 26.9504 65.0695C26.9117 65.4639 26.7989 65.5653 26.5624 65.8685C26.4615 65.7387 26.4063 65.535 26.4096 65.3719C26.4988 60.9781 26.261 56.4403 26.4376 52.0588Z" fill="#FBE38C"/>
<path d="M26.4376 52.0588C26.7874 53.057 26.3057 59.7065 26.6247 61.4085C26.6606 61.1078 26.6191 60.9788 26.7968 60.8039L26.8844 61.4412L26.958 61.5078L26.9433 62.4545C26.9447 63.3143 26.9323 64.2136 26.9504 65.0696C26.9117 65.464 26.7989 65.5653 26.5624 65.8686C26.4615 65.7388 26.4063 65.535 26.4096 65.372C26.4988 60.9782 26.261 56.4404 26.4376 52.0588Z" fill="#F9CA5D"/>
<path d="M26.958 61.5078C27.0657 61.4062 27.0735 61.3995 27.2012 61.3706C28.1655 61.1523 29.8842 59.2935 30.7322 58.514C31.746 57.5817 34.2298 55.0545 34.5895 53.8173C34.6603 53.574 34.7059 51.174 34.7151 50.7672C34.7168 51.5695 34.6466 53.1488 34.8711 53.8573L34.8746 55.1296L34.8711 56.3255C33.9208 56.6979 31.3345 59.9032 30.2077 60.6829C29.5511 61.1372 28.3657 62.2096 27.5328 62.3008C27.1686 62.3407 27.2089 62.2049 26.9433 62.4545L26.958 61.5078Z" fill="#D99B30"/>
<path d="M26.188 13.3291L42.924 13.3007C46.2651 13.3004 52.1481 13.0623 55.1887 13.8266C57.6483 14.4556 59.8965 15.7391 61.7005 17.544C65.0337 20.9188 65.9858 24.1471 66.5848 28.7151L66.3795 28.7305C66.2109 29.0087 66.2169 30.3583 66.202 30.7764C66.1911 30.238 66.2674 29.0727 65.9243 28.7033C65.8598 28.1915 65.7666 27.2199 65.6287 26.7593C65.0754 26.1645 65.0982 24.2174 64.6271 24.0198L64.5428 24.0866C63.4737 24.9216 59.5911 26.3007 58.8294 27.3753C58.9365 27.716 59.3213 28.8536 59.1835 29.1311L59.0069 28.9503L58.9772 28.8844C58.8046 28.4849 58.8096 28.2605 58.6479 27.8929L58.7253 27.775L58.5944 27.7288L58.6727 27.6622L58.5646 27.5969C58.5448 27.7205 58.5527 27.7076 58.5656 27.8391L58.6826 27.8568C58.7243 28.3399 58.8076 28.8088 58.6569 29.2631C58.6033 29.1533 58.6003 29.1701 58.5825 29.0698C58.2145 27.0343 57.0859 24.9322 55.4258 23.6689C53.8648 22.7232 52.7362 22.2214 50.9402 21.8263C49.3107 21.4804 47.5028 21.8362 45.8357 21.7595C41.4959 21.5598 36.9802 21.8518 32.6669 21.6221C32.4274 21.7412 22.9171 21.6374 21.737 21.6359L21.4689 21.761C21.2299 21.4552 21.3665 16.1886 21.4414 15.399C22.6374 13.385 24.0764 13.2893 26.188 13.3291Z" fill="#FFF1A3"/>
<path d="M25.3755 13.9817C28.0729 14.0656 30.8555 13.9328 33.5297 14.0182C34.3274 14.2262 36.0865 13.9402 36.5513 14.3681C36.8849 15.4147 38.7894 20.7132 37.0731 20.8544C35.7847 20.9603 33.4522 20.8948 32.0641 20.9185C31.316 21.0565 29.503 20.8919 28.9444 21.2607C29.781 21.6212 31.9687 21.4439 32.6669 21.622C32.4274 21.7411 22.9171 21.6373 21.737 21.6358C21.8608 20.3874 21.5805 18.1194 21.8392 16.9626C22.253 14.6718 23.2118 14.2366 25.3755 13.9817Z" fill="#EFB03B"/>
<path d="M21.737 21.6359C21.8608 20.3874 21.5805 18.1194 21.8392 16.9626L21.8496 17.0567C21.9544 18.0756 21.6335 20.5576 22.0233 21.1971C22.7658 20.9283 30.9402 20.7843 32.0641 20.9186C31.316 21.0566 29.503 20.892 28.9444 21.2608C29.781 21.6212 31.9687 21.4439 32.6669 21.622C32.4274 21.7411 22.9171 21.6374 21.737 21.6359Z" fill="#EAB445"/>
<path d="M26.188 13.3291L42.924 13.3007C46.2651 13.3004 52.1481 13.0623 55.1887 13.8266C57.6483 14.4556 59.8965 15.7391 61.7005 17.544C65.0337 20.9188 65.9858 24.1471 66.5848 28.7151L66.3795 28.7305C66.2109 29.0087 66.2169 30.3583 66.202 30.7764C66.1911 30.238 66.2674 29.0727 65.9243 28.7033C65.8598 28.1915 65.7666 27.2199 65.6287 26.7593C65.4651 25.7278 65.1289 24.9017 64.8889 23.8914C65.0297 24.0554 65.238 24.4491 65.354 24.6527C65.6605 22.6225 61.9177 17.3729 60.1316 16.5767C59.7448 16.4947 59.6446 16.3058 59.3134 16.1177C58.2939 15.5391 57.5352 15.0441 56.363 14.9699L56.3441 15.0144C57.0165 15.2617 57.1593 15.4204 57.7028 15.9078C56.2697 15.5139 54.9983 14.4474 53.4572 14.2431C50.8896 13.9027 47.9283 14.0383 45.3299 14.0474L33.5296 14.0183C30.8555 13.9329 28.0729 14.0657 25.3755 13.9818C23.2118 14.2367 22.253 14.6719 21.8392 16.9627C21.5805 18.1194 21.8608 20.3874 21.737 21.6359L21.4689 21.761C21.2299 21.4552 21.3665 16.1886 21.4414 15.399C22.6374 13.385 24.0764 13.2893 26.188 13.3291Z" fill="#FBE181"/>
<path d="M28.93 13.4968C30.7359 13.5946 33.187 13.5221 35.034 13.5198L46.1897 13.5108C48.6373 13.5096 51.3061 13.4057 53.718 13.7466C55.4972 13.9978 58.9742 15.1884 60.1316 16.5767C59.7448 16.4947 59.6446 16.3057 59.3134 16.1176C58.2939 15.539 57.5352 15.044 56.363 14.9698L56.3441 15.0143C57.0165 15.2617 57.1593 15.4203 57.7028 15.9077C56.2697 15.5138 54.9983 14.4473 53.4572 14.243C50.8896 13.9026 47.9283 14.0382 45.3299 14.0473L33.5296 14.0182C30.8555 13.9328 28.0729 14.0656 25.3755 13.9817C25.6622 13.7948 26.8261 13.9723 27.4742 13.8238L27.4942 13.7076C27.2042 13.5316 26.233 13.5727 25.8258 13.5572C26.8608 13.5529 27.8956 13.5328 28.93 13.4968Z" fill="#FEF8D3"/>
<path d="M55.4258 23.6688C56.2043 23.6899 56.3213 23.9412 56.8043 24.5498L56.965 24.4507C57.0879 23.7685 59.0337 22.5007 59.6268 22.0929C60.2456 21.6675 62.2777 21.1077 62.6704 20.5192C62.6813 19.829 61.4317 19.0704 61.1798 18.4056C61.4545 18.5181 61.6608 18.8481 61.881 19.0733C63.1494 20.3686 64.1481 22.127 64.8522 23.8039L64.8889 23.8913C65.1289 24.9016 65.4651 25.7277 65.6288 26.7592C65.0754 26.1645 65.0982 24.2174 64.6271 24.0198L64.5428 24.0865C63.4737 24.9215 59.5911 26.3006 58.8294 27.3752C58.9365 27.7159 59.3213 28.8536 59.1835 29.131L59.0069 28.9502L58.9772 28.8844C58.8046 28.4848 58.8096 28.2604 58.6479 27.8928L58.7253 27.7749L58.5944 27.7287L58.6727 27.6621L58.5646 27.5969C58.5448 27.7204 58.5527 27.7076 58.5656 27.839L58.6826 27.8567C58.7243 28.3399 58.8076 28.8087 58.6569 29.263C58.6033 29.1532 58.6003 29.1701 58.5825 29.0697C58.2145 27.0342 57.0859 24.9322 55.4258 23.6688Z" fill="#FFE381"/>
<path d="M24.982 30.0314L25.1057 30.1225C24.8988 30.5221 13.4456 41.6778 12.4592 42.6225C12.5736 42.9165 12.626 42.9503 12.8417 43.19C13.158 43.3705 13.8709 44.0843 14.1165 44.3762C17.4181 47.6217 21.3044 50.8026 24.5046 54.1667L24.4853 54.3337C23.1585 54.3635 21.6965 54.316 20.3602 54.2999C16.4056 50.2543 12.0408 46.5338 8.08609 42.6007C8.80659 41.8222 12.7796 37.8838 13.5507 37.3862C15.8009 35.3995 18.828 32.2315 21.0364 30.0124C22.3516 29.995 23.667 30.0012 24.982 30.0314Z" fill="#C1791C"/>
<path d="M21.0364 30.0124C22.3516 29.995 23.667 30.0012 24.982 30.0314C24.207 30.8941 22.4626 30.4992 21.351 30.5935C20.3384 31.4394 18.8621 32.9969 17.8911 33.9599C15.989 35.856 14.0685 37.7329 12.1298 39.5906C11.0488 40.6318 9.41204 42.3442 8.12427 43.0005C9.45895 41.0092 12.4826 38.9543 13.5506 37.3862C15.8009 35.3995 18.828 32.2315 21.0364 30.0124Z" fill="#FBE181"/>
<path d="M12.6938 43.7011L12.8986 43.6449C13.4358 44.0614 13.4872 44.0875 14.1165 44.3762C17.4181 47.6217 21.3044 50.8026 24.5046 54.1667L24.4853 54.3337C22.815 53.7385 14.556 45.509 12.6938 43.7011Z" fill="#F9CA5D"/>
<path d="M12.6938 43.7011C12.397 43.5812 12.004 43.1761 11.9033 42.8609L11.9212 42.8277C12.3592 42.81 12.3884 42.9316 12.8416 43.19C13.158 43.3705 13.8709 44.0843 14.1165 44.3762C13.4872 44.0876 13.4358 44.0614 12.8986 43.6449L12.6938 43.7011Z" fill="#D99B30"/>
<path d="M68.6575 38.2375C68.8172 37.9769 69.1286 37.5026 69.4251 37.4144L69.5064 37.5574C69.9983 37.9828 71.9005 39.5809 72.2159 39.9905C72.8863 40.4716 73.3306 40.958 73.9068 41.5451C74.3213 41.7245 74.8588 42.2645 75.1643 42.6118C71.2459 46.1736 67.284 50.5105 63.3775 54.0767C62.9193 54.3671 59.2688 54.4137 58.7749 54.2173C58.884 53.9626 58.8304 54.0487 59.115 53.8868C61.7144 51.2472 64.5924 48.6345 67.2572 46.0428C68.0317 45.2894 69.7742 43.3769 70.5438 42.8229C70.4883 42.3641 67.8185 40.3149 67.5983 39.6522L67.8483 39.2367C68.0893 38.9828 68.4284 38.5284 68.6575 38.2375Z" fill="#C1791C"/>
<path d="M68.6575 38.2375C68.8172 37.9769 69.1286 37.5026 69.4251 37.4144L69.5064 37.5574C69.9983 37.9828 71.9005 39.5809 72.2159 39.9905C72.8863 40.4716 73.3306 40.958 73.9068 41.5451C74.1567 41.9904 74.5117 42.1244 74.7944 42.5628L74.7388 42.6926C74.4522 42.6694 74.4403 42.6636 74.1765 42.5415C73.3603 42.326 70.3355 39.2805 69.4043 38.489C69.0562 39.0141 68.719 39.6298 68.1388 39.8796C68.4651 40.6119 72.0671 40.2078 71.6992 42.6403C70.9613 43.4353 69.7157 44.8915 68.8063 45.378C69.3398 44.6909 70.9087 43.4415 71.2598 42.7109L71.1408 42.6285C70.9038 42.7962 70.8334 42.8173 70.5438 42.8229C70.4883 42.3641 67.8185 40.3149 67.5983 39.6522L67.8482 39.2367C68.0892 38.9828 68.4284 38.5284 68.6575 38.2375Z" fill="#EAB445"/>
<path d="M69.5065 37.5574C69.9984 37.9828 71.9005 39.5808 72.2159 39.9905L71.962 40.5125C71.3689 39.9982 69.7554 38.6659 69.3686 38.0381C69.326 37.7115 69.2923 37.8454 69.5065 37.5574Z" fill="#FBE181"/>
<path d="M72.2159 39.9905C72.8863 40.4716 73.3306 40.958 73.9068 41.545C74.1567 41.9904 74.5117 42.1243 74.7944 42.5628L74.7388 42.6925C74.4522 42.6693 74.4403 42.6635 74.1765 42.5414C73.5488 41.914 72.6364 41.1351 71.962 40.5125L72.2159 39.9905Z" fill="#FCEDA6"/>
<path d="M68.6575 38.2376L69.0969 38.2083C69.3944 38.7309 68.5812 39.4639 68.0992 39.6006L67.9494 39.5419L67.8483 39.2367C68.0893 38.9829 68.4284 38.5285 68.6575 38.2376Z" fill="#F9CA5D"/>
<path d="M70.5438 42.8229C70.8334 42.8173 70.9038 42.7962 71.1408 42.6284L71.2598 42.7109C70.9088 43.4415 69.3398 44.6908 68.8063 45.3779C66.2109 47.7116 62.597 51.1011 60.1316 53.6022C59.8162 53.8079 59.6456 53.9576 59.2648 53.9774L59.1151 53.8868C61.7144 51.2471 64.5924 48.6345 67.2572 46.0428C68.0317 45.2893 69.7742 43.3768 70.5438 42.8229Z" fill="#F9CA5D"/>
<path d="M59.115 53.8868L59.2648 53.9774C59.6456 53.9576 59.8162 53.8079 60.1316 53.6022C60.9111 54.1359 62.6843 53.541 63.3775 54.0766C62.9193 54.367 59.2688 54.4137 58.7749 54.2172C58.884 53.9625 58.8304 54.0486 59.115 53.8868Z" fill="#D99B30"/>
<path d="M36.3162 38.7665C37.2157 38.6897 38.597 38.7332 39.5392 38.7196C42.9557 38.6704 46.398 38.7768 49.8126 38.7036C50.8876 38.6805 52.0945 38.3983 53.1676 38.2573C52.6271 38.8728 51.9745 38.6254 51.6899 39.0269C51.8099 39.013 51.918 39.0128 52.037 39.0293L52.1134 39.1103C50.8093 39.3924 49.3772 39.3853 48.0393 39.42C45.2972 39.3983 42.203 39.7103 39.4975 39.3866C38.7577 39.2288 37.9048 39.275 37.1955 39.0938C36.9735 39.0371 36.571 38.8466 36.3162 38.7665Z" fill="#FEF9CA"/>
<path d="M9.13129 72.8387L9.22541 72.8154C9.44795 72.9362 10.0188 73.5275 10.2343 73.7393C9.77463 73.6779 9.33697 73.2385 9.13129 72.8387Z" fill="#3D1E02" fill-opacity="0.321569"/>
<path d="M4.73838 7.65014C5.68113 7.04211 6.22579 5.79997 7.2329 5.29791C7.55828 5.13575 7.5808 5.22315 7.94695 5.37388L7.54807 5.70905C7.58565 6.04994 7.69822 6.56053 7.55104 6.82867L7.41756 6.83469C7.33534 6.55832 7.37868 6.48256 7.44582 6.18853L7.3166 6.10574C7.04833 6.27744 7.01035 6.54046 6.92447 6.88015C6.60572 6.98491 6.34995 7.01863 6.16519 7.28135C6.22777 7.82926 7.31154 8.54135 7.76129 8.59674C7.38205 9.06779 6.63637 10.0504 6.25247 10.4585C5.91022 10.9872 4.89865 12.8438 4.69128 13.0885C3.03547 17.6388 2.77534 19.714 2.95604 24.6492C2.95812 24.6704 2.9602 24.6917 2.96228 24.7129C3.08784 35.3398 2.89365 46.0097 3.07524 56.6402C3.11501 58.9704 3.00413 61.775 3.45775 63.9844C4.82287 70.5431 9.17749 75.7684 15.4909 77.925C16.2185 78.1738 17.1773 78.2351 17.9354 78.4327C20.6055 79.1292 23.4356 78.7609 26.1894 78.8944C26.5367 78.8462 27.9121 78.8683 28.3229 78.8673H32.8984L49.0936 78.8733C56.7874 78.8753 62.3441 79.8166 69.1911 75.4844L69.3557 75.6219C69.8704 75.3961 69.9359 75.1091 70.3951 75.058C70.2255 75.6902 67.3792 76.9104 66.9855 77.3439C67.3564 77.368 68.8936 77.8537 69.2268 78.0574L69.3091 78.209C69.0195 78.5351 68.481 78.7458 68.0942 78.9827C68.0952 79.074 68.0962 79.1643 68.0982 79.2556C67.9415 79.3349 67.5022 79.5567 67.3762 79.6199C67.6598 79.6881 68.7646 79.0278 68.9967 79.0619C68.484 79.7132 64.8136 80.8943 63.8922 81.0981C61.9861 81.5195 59.6367 81.8848 57.687 81.9109C55.3336 82.0424 52.5676 81.9741 50.1914 81.9731L38.5812 81.9842H28.0985C24.4056 81.9852 19.4778 82.1638 15.9904 81.0128C14.5621 80.8883 10.9902 79.069 9.74744 78.2742C5.35365 75.4634 1.92354 70.9655 0.782746 65.7822C0.618911 64.246 0.0883308 62.9215 0.060463 61.0505C0.0157358 58.0543 0.0183135 55.0711 0.0274375 52.077L0.044495 37.4916L0.0416198 25.9975C0.0387438 22.5904 -0.21306 16.0794 1.48747 13.0917C1.95973 11.7325 3.65431 8.61541 4.73838 7.65014Z" fill="#8B4D0B"/>
<path d="M69.1911 75.4845L69.3557 75.622C69.8704 75.3962 69.9359 75.1092 70.395 75.058C70.2255 75.6902 67.3792 76.9105 66.9855 77.344C67.3564 77.3681 68.8936 77.8538 69.2268 78.0575L69.3091 78.209C69.0195 78.5351 68.481 78.7459 68.0942 78.9827C68.0952 79.074 68.0962 79.1643 68.0982 79.2557C67.9415 79.3349 67.5021 79.5567 67.3762 79.6199C67.6598 79.6882 68.7646 79.0279 68.9967 79.062C68.484 79.7133 64.8136 80.8944 63.8922 81.0981C61.9861 81.5196 59.6367 81.8848 57.6869 81.9109C57.435 81.7484 57.1564 81.7183 56.8618 81.7132C50.0754 81.5999 43.2463 81.8236 36.4612 81.6591C36.9931 81.5948 38.2053 81.628 38.6317 81.5176C37.5261 81.2286 36.5787 81.2747 35.5169 81.1152C33.0141 80.8372 31.2629 80.7388 28.9308 79.6641C28.8159 79.6109 26.8519 79.4664 26.5307 79.4252L25.8364 79.4162C25.8925 79.2346 25.9061 79.2787 26.1259 79.1533L26.1894 78.8944C26.5367 78.8462 27.9121 78.8683 28.3229 78.8673H32.8984L49.0936 78.8733C56.7874 78.8753 62.3441 79.8166 69.1911 75.4845Z" fill="#CF8523"/>
<path d="M66.9855 77.344C67.3564 77.3681 68.8936 77.8538 69.2268 78.0575L69.3091 78.209C69.0195 78.5352 68.481 78.7459 68.0942 78.9827C68.0952 79.074 68.0962 79.1644 68.0982 79.2557C67.9415 79.335 67.5022 79.5567 67.3762 79.62C67.6598 79.6882 68.7646 79.0279 68.9967 79.062C68.484 79.7133 64.8136 80.8944 63.8922 81.0981C61.9861 81.5196 59.6367 81.8849 57.687 81.911C57.4351 81.7484 57.1564 81.7183 56.8618 81.7133C50.0754 81.5999 43.2463 81.8237 36.4612 81.6591C36.9931 81.5949 38.2053 81.628 38.6318 81.5176C37.5261 81.2286 36.5788 81.2747 35.5169 81.1152C35.559 80.9727 35.6038 80.8302 35.6512 80.6877L35.8147 80.6636L35.857 80.8944C36.5148 81.0078 38.1627 80.8252 38.9799 80.8593C40.9395 80.9416 42.8913 81.1654 44.847 81.2486C47.2856 81.351 56.7805 81.5015 58.6965 80.4659C59.238 80.1729 59.5127 79.929 59.6932 79.3269C62.3025 79.074 64.5994 78.48 66.9855 77.344Z" fill="#A86110"/>
<path d="M69.1911 75.4845L69.3557 75.622C69.8704 75.3962 69.9359 75.1092 70.395 75.058C70.2255 75.6902 67.3792 76.9105 66.9855 77.344C64.5993 78.4799 62.3025 79.074 59.6932 79.3269C52.1967 79.4804 44.6992 79.5196 37.2017 79.4443L30.2709 79.4182C29.3046 79.4122 27.4282 79.349 26.5307 79.4252L25.8364 79.4162C25.8925 79.2346 25.9061 79.2787 26.1259 79.1533L26.1894 78.8944C26.5367 78.8462 27.9121 78.8683 28.3229 78.8673H32.8984L49.0936 78.8733C56.7874 78.8753 62.3441 79.8166 69.1911 75.4845Z" fill="#F1D281"/>
<path d="M4.73839 7.65014C5.68114 7.04211 6.2258 5.79997 7.23291 5.29791C7.55829 5.13575 7.58081 5.22315 7.94696 5.37388L7.54808 5.70905C7.58566 6.04994 7.69823 6.56053 7.55105 6.82867L7.41757 6.83469C7.33535 6.55832 7.37869 6.48256 7.44583 6.18853L7.31661 6.10574C7.04834 6.27744 7.01036 6.54046 6.92448 6.88015C6.60573 6.98491 6.34996 7.01863 6.1652 7.28135C6.22778 7.82926 7.31155 8.54135 7.7613 8.59674C7.38206 9.06779 6.63638 10.0504 6.25248 10.4585C5.91023 10.9872 4.89866 12.8438 4.69129 13.0885C3.03549 17.6388 2.77535 19.714 2.95605 24.6492L2.80292 24.6276C2.80233 24.3766 2.80034 24.0346 2.74778 23.7905C2.55489 22.8944 2.83218 20.9949 2.74034 20.2327L2.63115 20.2783C2.6261 20.5666 2.68302 22.4877 2.59515 22.583C2.50123 21.6106 2.29932 20.6803 2.61043 19.7814L2.55449 19.604C2.14887 20.4304 2.5537 23.9577 2.36279 25.1897C1.88517 24.3156 2.70236 20.8877 0.818554 19.9883C0.641926 19.9039 0.874293 19.7702 0.636871 19.4303C0.63221 18.1607 1.16269 16.296 1.51922 15.0996C1.62404 14.6542 1.85333 14.0558 2.01112 13.609C1.87932 13.706 1.78203 13.7251 1.62652 13.7774C1.42937 13.5724 1.49571 13.4508 1.48748 13.0917C1.95974 11.7325 3.65433 8.61541 4.73839 7.65014Z" fill="#C1791C"/>
<path d="M4.73838 7.65014C5.68112 7.04211 6.22579 5.79997 7.23289 5.29791C7.55828 5.13575 7.58079 5.22315 7.94694 5.37388L7.54806 5.70905C7.58565 6.04994 7.69822 6.56053 7.55104 6.82867L7.41755 6.83469C7.33534 6.55832 7.37867 6.48256 7.44582 6.18853L7.31659 6.10574C7.04833 6.27744 7.01035 6.54046 6.92446 6.88015C6.60572 6.98491 6.34995 7.01863 6.16519 7.28135C6.22777 7.82926 7.31154 8.54135 7.76129 8.59674C7.38205 9.06779 6.63636 10.0504 6.25246 10.4585L6.07395 10.457C5.69719 10.9183 4.64277 12.6709 4.3753 12.739C3.92773 12.5537 3.31613 12.2782 2.87075 12.1284C3.06255 11.7435 3.19226 11.6683 3.11045 11.3332C2.69977 12.1144 2.37487 12.8038 2.01111 13.609C1.8793 13.706 1.78202 13.7251 1.62651 13.7774C1.42935 13.5724 1.4957 13.4508 1.48747 13.0917C1.95973 11.7325 3.65431 8.61541 4.73838 7.65014Z" fill="#F9CA5D"/>
<path d="M4.73838 7.65014C5.68112 7.04211 6.22579 5.79997 7.23289 5.29791C7.55828 5.13575 7.58079 5.22315 7.94694 5.37388L7.54806 5.70905C6.38188 6.63469 3.64817 10.0559 3.11045 11.3332C2.69977 12.1144 2.37487 12.8038 2.01111 13.609C1.8793 13.706 1.78202 13.7251 1.62651 13.7774C1.42935 13.5724 1.4957 13.4508 1.48747 13.0917C1.95973 11.7325 3.65431 8.61541 4.73838 7.65014Z" fill="#FEF9D4"/>
<path d="M2.87074 12.1285C3.31613 12.2783 3.92773 12.5538 4.3753 12.7391C4.64277 12.671 5.69718 10.9184 6.07394 10.4572L6.25246 10.4586C5.91021 10.9873 4.89864 12.8439 4.69127 13.0887C4.2189 13.6287 3.90571 15.0373 3.51903 15.211L3.54759 15.2463C3.52468 15.0033 3.7873 14.4011 3.94151 14.1908C3.76965 13.6751 2.83265 13.6395 2.29215 13.4779C2.09777 13.9736 1.85877 14.7212 1.5192 15.0997C1.62402 14.6543 1.85331 14.0559 2.0111 13.6091C2.37487 12.804 2.69976 12.1145 3.11044 11.3333C3.19226 11.6684 3.06254 11.7437 2.87074 12.1285Z" fill="#D99B30"/>
<path d="M2.36277 25.1898C2.55368 23.9578 2.14885 20.4305 2.55447 19.6041L2.61041 19.7815C2.2993 20.6804 2.50121 21.6107 2.59513 22.5831C2.683 22.4878 2.62607 20.5667 2.63113 20.2784L2.74032 20.2328C2.83216 20.995 2.55486 22.8945 2.74776 23.7906C2.80032 24.0347 2.8023 24.3767 2.8029 24.6277L2.95602 24.6493C2.95811 24.6705 2.96019 24.6918 2.96227 24.713C3.08782 35.3399 2.89364 46.0098 3.07523 56.6403C3.115 58.9705 3.00412 61.7751 3.45774 63.9845C4.82286 70.5432 9.17748 75.7685 15.4909 77.9251C16.2185 78.174 17.1773 78.2352 17.9354 78.4328C20.6054 79.1293 23.4356 78.761 26.1894 78.8945L26.1258 79.1534C25.9061 79.2788 25.8925 79.2347 25.8363 79.4163C25.2092 79.4966 23.7381 79.4283 23.0221 79.4374C18.8579 79.4855 15.65 78.9216 11.9936 76.772C8.18643 74.5202 5.30098 70.9641 3.8586 66.7473C3.39586 65.4305 2.96465 63.5264 2.59513 62.1142C2.61288 62.0627 2.63073 62.0112 2.64849 61.9596C2.70541 61.8043 2.78237 61.6046 2.77454 61.437C2.69926 59.8392 2.68002 58.2492 2.66921 56.6493L2.59781 43.7339L2.59582 37.6939C2.59672 36.8445 2.64075 34.9061 2.49903 34.1773C2.51579 31.8769 2.06307 27.2741 2.36277 25.1898Z" fill="#D99B30"/>
<path d="M2.49903 34.1772C2.64075 34.9061 2.59672 36.8445 2.59583 37.6938L2.59781 43.7339L2.66922 56.6493C2.68003 58.2492 2.69927 59.8391 2.77454 61.437C2.78237 61.6046 2.70542 61.8043 2.64849 61.9596C2.63074 62.0111 2.61288 62.0627 2.59513 62.1142C2.38598 61.5165 2.45143 59.8024 2.34224 59.0163C1.97857 56.399 1.22148 53.8305 1.04773 51.194C0.972855 50.0578 1.38918 48.5788 1.34813 47.4105C1.41983 46.9854 0.976821 45.5694 1.07232 45.2436C1.79322 42.7836 1.98432 40.5169 2.10908 37.9676C2.15599 37.0091 2.10055 34.9307 2.49903 34.1772Z" fill="#C1791C"/>
<path d="M1.48747 13.0917C1.4957 13.4508 1.42936 13.5725 1.62651 13.7774C1.78202 13.7251 1.87931 13.706 2.01111 13.609C1.85332 14.0558 1.62403 14.6542 1.51921 15.0996C1.16268 16.296 0.6322 18.1607 0.636861 19.4303C0.376431 20.2728 0.445155 25.8672 0.446643 27.1204L0.469457 40.1879L0.492665 53.1026C0.492367 56.569 0.190185 62.4852 1.25402 65.6693C1.12787 65.7031 0.902647 65.7734 0.782746 65.7822C0.618911 64.246 0.0883308 62.9215 0.060463 61.0505C0.0157358 58.0543 0.0183135 55.0711 0.0274375 52.077L0.044495 37.4917L0.0416198 25.9975C0.0387438 22.5904 -0.21306 16.0794 1.48747 13.0917Z" fill="#EDC261"/>
<path d="M1.25402 65.6693C4.05547 74.9015 9.64232 79.1865 18.6257 81.1694C19.2848 81.3149 20.174 81.2226 20.7961 81.3862C20.0121 82.0946 17.1373 80.8182 15.9904 81.0128C14.5621 80.8884 10.9902 79.069 9.74744 78.2743C5.35365 75.4634 1.92354 70.9656 0.782745 65.7823C0.902646 65.7735 1.12787 65.7031 1.25402 65.6693Z" fill="#995103"/>
<path d="M18.5667 0.232282C21.3727 -0.0471949 24.355 0.0501453 27.1885 0.0566681L39.6215 0.0777409L52.9861 0.0726235C60.5015 0.0727239 66.1028 -0.337008 72.3359 4.8432C76.6717 8.40605 79.397 13.5922 79.8939 19.2211C80.0387 20.7386 79.9821 22.781 79.9831 24.3483L79.9821 32.5359L79.9683 58.484C79.9841 60.6717 79.9782 61.385 79.6023 63.5543C79.1154 63.6759 79.4734 63.3708 79.0023 63.0492C78.9934 62.5357 79.1054 61.195 79.1947 60.7046C79.2294 60.1886 79.2125 59.3942 79.2195 58.8556C79.2056 58.5905 79.1739 57.6089 79.1025 57.4215C79.16 57.681 79.0271 59.9111 79.0767 60.4727L79.034 60.5243C78.9745 60.0779 78.9091 59.4328 78.798 59.0166C78.7841 59.6973 78.6225 60.4437 78.9785 61.0296C79.2165 61.4201 77.6942 62.3303 77.4592 62.4848C77.473 62.1701 77.5722 60.9909 77.4671 60.8033C77.4125 60.9449 77.0892 62.7893 77.0664 63.022L76.8909 62.9937L77.1735 32.2553L77.1725 24.7059C77.1616 22.742 77.1547 20.6247 76.879 18.7015C75.8803 11.7349 71.1616 5.84841 64.5418 3.60116C61.2889 2.4965 59.4304 2.61421 56.0307 2.60678L47.9729 2.58972L26.2361 2.60076C23.7583 2.61009 21.2755 2.56664 18.8088 2.76524C18.7778 2.75761 18.7468 2.74998 18.7159 2.74225C14.2013 3.05605 10.8449 5.47852 7.76128 8.59682C7.31153 8.54143 6.22776 7.82934 6.16518 7.28142C6.34995 7.0187 6.60571 6.98499 6.92446 6.88022C7.01034 6.54053 7.04832 6.27751 7.31659 6.10581L7.44581 6.1886C7.37867 6.48263 7.33533 6.55839 7.41755 6.83476L7.55104 6.82874C7.69821 6.5606 7.58564 6.05002 7.54806 5.70913L7.94694 5.37395C7.58079 5.22323 7.55827 5.13582 7.23289 5.29799C6.22578 5.80004 5.68112 7.04219 4.73837 7.65021C7.04019 3.79403 14.1818 0.361132 18.5667 0.232282Z" fill="#F9CA5D"/>
<path d="M18.5667 0.232282C21.3727 -0.0471949 24.355 0.0501453 27.1885 0.0566681L39.6215 0.0777409L52.9861 0.0726235C60.5015 0.0727239 66.1028 -0.337008 72.3359 4.8432C76.6717 8.40605 79.397 13.5922 79.8939 19.2211C80.0387 20.7386 79.9821 22.781 79.9831 24.3483L79.9821 32.5359L79.9683 58.484C79.9841 60.6717 79.9782 61.385 79.6023 63.5543C79.1154 63.6759 79.4734 63.3708 79.0023 63.0492C78.9934 62.5357 79.1054 61.195 79.1947 60.7046C79.2294 60.1886 79.2125 59.3942 79.2195 58.8556C79.3206 58.1764 79.275 55.6931 79.2721 54.887L79.2393 46.807L79.2096 28.8329C79.1997 26.0457 79.2185 23.2107 79.1798 20.4484C79.1044 14.977 76.6906 9.99621 72.8079 6.28865C68.2826 1.96865 63.4886 0.611106 57.4003 0.722797C56.1616 0.745275 54.7921 0.488679 53.5673 0.546883C49.9683 0.717981 46.3762 0.487374 42.7712 0.599064C41.9729 0.342668 39.6721 0.530324 38.7249 0.548487C37.2569 0.576786 35.3943 0.520189 33.9756 0.57197C32.2202 0.635994 23.625 1.02917 22.6137 0.663691C21.788 0.679747 19.4515 0.674328 18.7588 0.82636C19.3254 0.948386 19.4634 0.964843 20.0418 0.96113C20.7859 1.64151 19.9548 2.16062 20.9163 2.34878C20.2277 2.60598 19.0338 2.43889 18.7159 2.74225C14.2013 3.05605 10.8449 5.47852 7.76128 8.59682C7.31153 8.54143 6.22776 7.82934 6.16518 7.28142C6.34995 7.0187 6.60571 6.98499 6.92446 6.88022C7.01034 6.54053 7.04832 6.27751 7.31659 6.10581L7.44581 6.1886C7.37867 6.48263 7.33533 6.55839 7.41755 6.83476L7.55104 6.82874C7.69821 6.5606 7.58564 6.05002 7.54806 5.70913L7.94694 5.37395C7.58079 5.22323 7.55827 5.13582 7.23289 5.29799C6.22578 5.80004 5.68112 7.04219 4.73837 7.65021C7.04019 3.79403 14.1818 0.361132 18.5667 0.232282Z" fill="#FCEDA6"/>
<path d="M18.7588 0.826294C19.3254 0.94832 19.4634 0.964777 20.0419 0.961064C20.7859 1.64144 19.9548 2.16056 20.9163 2.34871C20.2277 2.60591 19.0339 2.43883 18.7159 2.74219C14.2013 3.05599 10.8449 5.47845 7.76129 8.59675C7.31154 8.54136 6.22777 7.82927 6.16519 7.28135C6.34995 7.01864 6.60572 6.98492 6.92446 6.88015C7.01035 6.54047 7.04833 6.27745 7.3166 6.10575L7.44582 6.18854C7.37868 6.48256 7.33534 6.55833 7.41755 6.83469L7.55104 6.82867C7.69822 6.56054 7.58565 6.04995 7.54806 5.70906L7.94694 5.37389C10.5181 3.31369 12.7247 2.03542 15.9911 1.27697C16.8805 1.07045 17.8352 1.01656 18.7588 0.826294Z" fill="#EFAF3F"/>
<path d="M4.73837 7.65023C7.04019 3.79405 14.1818 0.36115 18.5667 0.2323L18.6763 0.243438C21.2061 0.486086 25.2913 0.175601 28.0876 0.323919C27.1531 0.391255 26.3272 0.526828 25.4175 0.599382C24.4951 0.672939 23.5725 0.545897 22.6137 0.663709C21.788 0.679765 19.4515 0.674346 18.7588 0.826378C17.8352 1.01664 16.8805 1.07053 15.9911 1.27705C12.7247 2.0355 10.5181 3.31377 7.94694 5.37397C7.58079 5.22324 7.55828 5.13584 7.23289 5.29801C6.22578 5.80006 5.68112 7.0422 4.73837 7.65023Z" fill="#FEEFAC"/>
<path d="M79.1947 60.7046C79.2195 61.0542 79.2691 61.6199 79.4804 61.9004L79.5835 61.8398C79.9941 60.6092 79.6787 59.5383 79.9683 58.484C79.9842 60.6718 79.9782 61.385 79.6023 63.5543C79.1154 63.676 79.4734 63.3708 79.0023 63.0492C78.9934 62.5357 79.1055 61.195 79.1947 60.7046Z" fill="#F9CA5D"/>
<path d="M22.6137 0.663636C23.625 1.02911 32.2202 0.635939 33.9756 0.571915C35.3943 0.520134 37.2569 0.576731 38.725 0.548432C39.6721 0.530269 41.9729 0.342613 42.7712 0.599009C40.8364 0.811351 38.4998 0.705782 36.5321 0.769404C34.5042 0.835034 32.5376 0.904375 30.5062 0.891731C30.1821 1.48792 30.0674 1.57241 30.0642 2.24747C30.5452 2.24817 33.6291 2.2255 33.8927 2.28219C30.7437 2.3407 27.5942 2.3704 24.4447 2.3711C23.8148 2.3716 21.346 2.41606 20.9163 2.34873C19.9548 2.16057 20.786 1.64145 20.0419 0.961075C19.4634 0.964788 19.3254 0.948331 18.7589 0.826305C19.4515 0.674273 21.788 0.679692 22.6137 0.663636Z" fill="#FBE181"/>
<path d="M76.8909 62.9937L77.0665 63.022C77.0893 62.7894 77.4126 60.9449 77.4671 60.8033C77.5722 60.9909 77.4731 62.1701 77.4592 62.4848C77.6942 62.3304 79.2165 61.4201 78.9785 61.0296C78.6225 60.4438 78.7842 59.6974 78.798 59.0166C78.9091 59.4328 78.9746 60.0779 79.0341 60.5244L79.0767 60.4728C79.0271 59.9111 79.16 57.681 79.1025 57.4215C79.1739 57.609 79.2056 58.5905 79.2195 58.8556C79.2126 59.3942 79.2294 60.1886 79.1947 60.7046C79.1055 61.195 78.9934 62.5357 79.0023 63.0492C79.4734 63.3708 79.1154 63.676 79.6023 63.5543C79.1908 68.1343 75.5541 74.9687 71.6238 77.3952C70.9356 77.9712 69.7901 78.6165 68.9967 79.062C68.7647 79.0279 67.6598 79.6882 67.3762 79.62C67.5022 79.5568 67.9415 79.335 68.0982 79.2557C68.0962 79.1644 68.0952 79.0741 68.0942 78.9828C68.481 78.746 69.0195 78.5352 69.3091 78.2091L69.2268 78.0575C68.8936 77.8538 67.3564 77.3681 66.9855 77.344C67.3792 76.9105 70.2255 75.6903 70.3951 75.0581C69.9359 75.1092 69.8704 75.3962 69.3557 75.622L69.1911 75.4845C71.9313 73.2896 73.8552 71.5581 75.2823 68.197C75.6949 66.6915 76.5498 64.9445 76.766 63.2965C76.7858 63.1459 76.7937 63.1191 76.8909 62.9937Z" fill="#B06A14"/>
<path d="M75.2823 68.197C75.6354 67.7749 75.8526 66.9117 76.0628 66.7473C76.0718 67.205 75.1861 69.1962 74.9124 69.7214C74.0883 71.3046 72.8486 72.6601 71.724 74.0159C72.3379 73.9787 73.0351 73.9206 73.643 73.9011C73.4754 74.2098 73.3375 74.3211 73.3941 74.6015C73.8542 74.7098 74.0595 74.3209 74.2767 74.5092C73.8701 75.5568 71.7399 76.751 71.6238 77.3952C70.9356 77.9712 69.7901 78.6165 68.9967 79.0621C68.7647 79.0279 67.6598 79.6883 67.3762 79.62C67.5022 79.5568 67.9415 79.335 68.0982 79.2557C68.0962 79.1644 68.0952 79.0741 68.0942 78.9828C68.481 78.746 69.0195 78.5352 69.3091 78.2091L69.2268 78.0575C68.8936 77.8538 67.3564 77.3681 66.9855 77.3441C67.3792 76.9105 70.2255 75.6903 70.3951 75.0581C69.9359 75.1092 69.8704 75.3962 69.3557 75.622L69.1911 75.4846C71.9313 73.2896 73.8552 71.5581 75.2823 68.197Z" fill="#EAB445"/>
<path d="M79.0023 63.0491C79.4734 63.3707 79.1153 63.6759 79.6023 63.5542C79.1907 68.1341 75.554 74.9686 71.6238 77.3951C71.7398 76.7509 73.8701 75.5567 74.2767 74.509C74.0595 74.3208 73.8542 74.7097 73.394 74.6014C73.3375 74.321 73.4753 74.2097 73.643 73.901C76.5844 73.3296 78.6343 65.6833 79.0023 63.0491Z" fill="#D88C1F"/>
</g>
<defs>
<clipPath id="clip0_48_526">
<rect width="80" height="82" fill="white"/>
</clipPath>
</defs>
</svg>
