<svg width="25" height="25" viewBox="0 0 25 25" fill="none" xmlns="http://www.w3.org/2000/svg">
<path d="M23.9052 17.5092L18.6552 15.2592C18.4309 15.1637 18.1816 15.1435 17.9449 15.2019C17.7082 15.2602 17.4968 15.3938 17.3427 15.5827L15.0177 18.4233C11.3688 16.7029 8.43228 13.7664 6.71187 10.1175L9.5525 7.79252C9.74172 7.63862 9.87565 7.42726 9.93401 7.19044C9.99237 6.95361 9.97198 6.70422 9.87593 6.48002L7.62593 1.23002C7.52052 0.988341 7.33408 0.791014 7.09875 0.67207C6.86343 0.553127 6.59399 0.520021 6.33687 0.578462L1.46187 1.70346C1.21398 1.7607 0.992814 1.90028 0.834466 2.09941C0.676118 2.29853 0.589939 2.54545 0.589996 2.79987C0.589996 14.8233 10.3353 24.5499 22.34 24.5499C22.5945 24.55 22.8415 24.4639 23.0407 24.3055C23.24 24.1472 23.3796 23.926 23.4369 23.678L24.5619 18.803C24.6199 18.5446 24.5861 18.2741 24.4663 18.038C24.3464 17.8018 24.148 17.6149 23.9052 17.5092Z" fill="#FFEDE6"/>
</svg>
