<svg width="23" height="23" viewBox="0 0 23 23" fill="none" xmlns="http://www.w3.org/2000/svg">
<path d="M11.4749 5.72461C8.36938 5.72461 5.8645 8.22949 5.8645 11.335C5.8645 14.4404 8.36938 16.9453 11.4749 16.9453C14.5803 16.9453 17.0852 14.4404 17.0852 11.335C17.0852 8.22949 14.5803 5.72461 11.4749 5.72461ZM11.4749 14.9824C9.46802 14.9824 7.82739 13.3467 7.82739 11.335C7.82739 9.32324 9.46313 7.6875 11.4749 7.6875C13.4866 7.6875 15.1223 9.32324 15.1223 11.335C15.1223 13.3467 13.4817 14.9824 11.4749 14.9824ZM18.6233 5.49512C18.6233 6.22266 18.0374 6.80371 17.3147 6.80371C16.5872 6.80371 16.0061 6.21777 16.0061 5.49512C16.0061 4.77246 16.592 4.18652 17.3147 4.18652C18.0374 4.18652 18.6233 4.77246 18.6233 5.49512ZM22.3391 6.82324C22.2561 5.07031 21.8557 3.51758 20.5715 2.23828C19.2922 0.958984 17.7395 0.558594 15.9866 0.470703C14.1799 0.368164 8.76489 0.368164 6.95825 0.470703C5.21021 0.553711 3.65747 0.954102 2.37329 2.2334C1.08911 3.5127 0.693604 5.06543 0.605713 6.81836C0.503174 8.625 0.503174 14.04 0.605713 15.8467C0.688721 17.5996 1.08911 19.1523 2.37329 20.4316C3.65747 21.7109 5.20532 22.1113 6.95825 22.1992C8.76489 22.3018 14.1799 22.3018 15.9866 22.1992C17.7395 22.1162 19.2922 21.7158 20.5715 20.4316C21.8508 19.1523 22.2512 17.5996 22.3391 15.8467C22.4417 14.04 22.4417 8.62988 22.3391 6.82324ZM20.0051 17.7852C19.6243 18.7422 18.887 19.4795 17.9251 19.8652C16.4846 20.4365 13.0667 20.3047 11.4749 20.3047C9.88306 20.3047 6.46021 20.4316 5.02466 19.8652C4.06763 19.4844 3.33032 18.7471 2.94458 17.7852C2.37329 16.3447 2.50513 12.9268 2.50513 11.335C2.50513 9.74316 2.37817 6.32031 2.94458 4.88477C3.32544 3.92773 4.06274 3.19043 5.02466 2.80469C6.46509 2.2334 9.88306 2.36523 11.4749 2.36523C13.0667 2.36523 16.4895 2.23828 17.9251 2.80469C18.8821 3.18555 19.6194 3.92285 20.0051 4.88477C20.5764 6.3252 20.4446 9.74316 20.4446 11.335C20.4446 12.9268 20.5764 16.3496 20.0051 17.7852Z" fill="white"/>
</svg>
