<svg width="25" height="19" viewBox="0 0 25 19" fill="none" xmlns="http://www.w3.org/2000/svg">
<path d="M24.2953 6.49368C24.4781 6.34836 24.75 6.4843 24.75 6.71399V16.2999C24.75 17.5421 23.7422 18.5499 22.5 18.5499H3C1.75781 18.5499 0.75 17.5421 0.75 16.2999V6.71868C0.75 6.4843 1.01719 6.35305 1.20469 6.49836C2.25469 7.31399 3.64688 8.34993 8.42813 11.8234C9.41719 12.5452 11.0859 14.064 12.75 14.0546C14.4234 14.0687 16.125 12.5171 17.0766 11.8234C21.8578 8.34993 23.2453 7.3093 24.2953 6.49368ZM12.75 12.5499C13.8375 12.5687 15.4031 11.1812 16.1906 10.6093C22.4109 6.09524 22.8844 5.70149 24.3187 4.57649C24.5906 4.36555 24.75 4.03743 24.75 3.69055V2.79993C24.75 1.55774 23.7422 0.549927 22.5 0.549927H3C1.75781 0.549927 0.75 1.55774 0.75 2.79993V3.69055C0.75 4.03743 0.909375 4.36086 1.18125 4.57649C2.61563 5.6968 3.08906 6.09524 9.30938 10.6093C10.0969 11.1812 11.6625 12.5687 12.75 12.5499Z" fill="#FFEDE6"/>
</svg>
