<svg width="23" height="23" viewBox="0 0 23 23" fill="none" xmlns="http://www.w3.org/2000/svg">
<path d="M19.1311 3.58105C17.0852 1.53027 14.3606 0.402344 11.4651 0.402344C5.48853 0.402344 0.625244 5.26562 0.625244 11.2422C0.625244 13.1514 1.12329 15.0166 2.07056 16.6621L0.532471 22.2773L6.27954 20.7686C7.86157 21.6328 9.6438 22.0869 11.4602 22.0869H11.4651C17.4368 22.0869 22.4075 17.2236 22.4075 11.2471C22.4075 8.35156 21.177 5.63184 19.1311 3.58105ZM11.4651 20.2607C9.84399 20.2607 8.25708 19.8262 6.87524 19.0059L6.5481 18.8105L3.13989 19.7041L4.0481 16.3789L3.83325 16.0371C2.92993 14.6016 2.4563 12.9463 2.4563 11.2422C2.4563 6.27637 6.49927 2.2334 11.47 2.2334C13.8772 2.2334 16.1379 3.1709 17.8372 4.875C19.5364 6.5791 20.5813 8.83984 20.5764 11.2471C20.5764 16.2178 16.4309 20.2607 11.4651 20.2607ZM16.4065 13.5127C16.1379 13.376 14.8049 12.7217 14.5559 12.6338C14.3069 12.541 14.1262 12.4971 13.9456 12.7705C13.7649 13.0439 13.2473 13.6494 13.0862 13.835C12.9299 14.0156 12.7688 14.04 12.5002 13.9033C10.9084 13.1074 9.86353 12.4824 8.81372 10.6807C8.5354 10.2021 9.09204 10.2363 9.60962 9.20117C9.69751 9.02051 9.65356 8.86426 9.58521 8.72754C9.51685 8.59082 8.97485 7.25781 8.75024 6.71582C8.53052 6.18848 8.30591 6.26172 8.13989 6.25195C7.98364 6.24219 7.80298 6.24219 7.62231 6.24219C7.44165 6.24219 7.14868 6.31055 6.89966 6.5791C6.65063 6.85254 5.95239 7.50684 5.95239 8.83984C5.95239 10.1729 6.92407 11.4619 7.05591 11.6426C7.19263 11.8232 8.96509 14.5576 11.6848 15.7344C13.4036 16.4766 14.0774 16.54 14.9368 16.4131C15.4592 16.335 16.5383 15.7588 16.7629 15.124C16.9875 14.4893 16.9875 13.9473 16.9192 13.835C16.8557 13.7129 16.675 13.6445 16.4065 13.5127Z" fill="white"/>
</svg>
