<svg width="12" height="14" viewBox="0 0 12 14" fill="none" xmlns="http://www.w3.org/2000/svg">
<path d="M5.51922 0.684684C5.65726 0.200971 6.34278 0.200971 6.48082 0.684685L7.39504 3.88813C7.4691 4.14761 7.73568 4.30152 7.99742 4.23591L11.2288 3.42592C11.7167 3.30362 12.0595 3.89729 11.7096 4.2587L9.39244 6.65216C9.20475 6.84603 9.20475 7.15385 9.39244 7.34772L11.7096 9.74118C12.0595 10.1026 11.7167 10.6963 11.2288 10.574L7.99742 9.76397C7.73568 9.69837 7.4691 9.85228 7.39504 10.1118L6.48082 13.3152C6.34278 13.7989 5.65726 13.7989 5.51922 13.3152L4.605 10.1118C4.53094 9.85228 4.26436 9.69837 4.00262 9.76397L0.771249 10.574C0.283318 10.6963 -0.0594391 10.1026 0.290446 9.74118L2.6076 7.34772C2.79529 7.15385 2.79529 6.84603 2.6076 6.65216L0.290446 4.2587C-0.0594397 3.89729 0.283319 3.30362 0.77125 3.42593L4.00262 4.23591C4.26436 4.30152 4.53094 4.14761 4.605 3.88813L5.51922 0.684684Z" fill="#F37825"/>
</svg>
