<svg width="34" height="34" viewBox="0 0 34 34" fill="none" xmlns="http://www.w3.org/2000/svg">
<path d="M15.8746 1.04137C16.2612 -0.00337434 17.7389 -0.0033716 18.1254 1.04137L21.9403 11.3507C22.0618 11.6792 22.3208 11.9382 22.6492 12.0597L32.9586 15.8745C34.0034 16.2611 34.0034 17.7388 32.9586 18.1254L22.6492 21.9402C22.3208 22.0617 22.0618 22.3207 21.9403 22.6492L18.1254 32.9586C17.7389 34.0033 16.2612 34.0033 15.8746 32.9586L12.0598 22.6492C11.9382 22.3207 11.6793 22.0617 11.3508 21.9402L1.04143 18.1254C-0.00331318 17.7388 -0.00331056 16.2611 1.04143 15.8745L11.3508 12.0597C11.6793 11.9382 11.9382 11.6792 12.0598 11.3507L15.8746 1.04137Z" fill="#F0E714"/>
</svg>
