<svg width="26" height="28" viewBox="0 0 26 28" fill="none" xmlns="http://www.w3.org/2000/svg">
<path d="M9.68585 27.1677C10.8182 27.1677 11.7361 26.2497 11.7361 25.1174C11.7361 23.9851 10.8182 23.0671 9.68585 23.0671C8.55352 23.0671 7.63559 23.9851 7.63559 25.1174C7.63559 26.2497 8.55352 27.1677 9.68585 27.1677Z" fill="#623D2A"/>
<path d="M22.1423 27.1677C23.2746 27.1677 24.1926 26.2497 24.1926 25.1174C24.1926 23.9851 23.2746 23.0671 22.1423 23.0671C21.01 23.0671 20.092 23.9851 20.092 25.1174C20.092 26.2497 21.01 27.1677 22.1423 27.1677Z" fill="#623D2A"/>
<path d="M15.932 4.38715C15.8905 4.08517 15.8692 3.78075 15.8682 3.47593C15.8692 3.1711 15.8905 2.86668 15.932 2.5647H5.33959L5.93188 4.38715H15.932Z" fill="#623D2A"/>
<path d="M24.3265 12.5H23.9438L23.3541 15.3218H9.68572L5.52141 2.13628C5.47636 1.99637 5.39814 1.86943 5.29342 1.7663C5.1887 1.66316 5.06058 1.58689 4.92 1.54399L1.18396 0.395839C1.06909 0.360538 0.94838 0.34821 0.828737 0.359558C0.709095 0.370906 0.59286 0.405708 0.486667 0.461977C0.272202 0.575618 0.111665 0.7698 0.0403717 1.00181C-0.0309217 1.23381 -0.0071312 1.48464 0.10651 1.6991C0.22015 1.91357 0.414333 2.0741 0.646338 2.1454L3.91765 3.14775L8.10018 16.3605L6.60577 17.5816L6.48731 17.7001C6.11766 18.126 5.90813 18.6676 5.89483 19.2315C5.88152 19.7953 6.06526 20.3462 6.41441 20.7891C6.66277 21.0912 6.97838 21.3309 7.33597 21.4891C7.69357 21.6473 8.08323 21.7197 8.47379 21.7003H23.6822C23.9239 21.7003 24.1556 21.6043 24.3265 21.4335C24.4974 21.2626 24.5934 21.0308 24.5934 20.7891C24.5934 20.5474 24.4974 20.3157 24.3265 20.1448C24.1556 19.9739 23.9239 19.8779 23.6822 19.8779H8.32799C8.22306 19.8743 8.12082 19.8437 8.03116 19.7891C7.9415 19.7345 7.86745 19.6576 7.81615 19.566C7.76485 19.4744 7.73804 19.3711 7.73831 19.2661C7.73858 19.1611 7.76593 19.058 7.8177 18.9667L10.0138 17.1442H24.0831C24.2938 17.1494 24.4997 17.0813 24.6658 16.9518C24.832 16.8222 24.9481 16.639 24.9943 16.4334L25.8756 12.3269C25.3675 12.4434 24.8478 12.5015 24.3265 12.5Z" fill="#623D2A"/>
</svg>
