<svg width="81" height="25" viewBox="0 0 81 25" fill="none" xmlns="http://www.w3.org/2000/svg">
<path d="M5.55515e-05 24.2045V0.931816H14.4319V3.95454H3.51142V11.0455H13.3978V14.0568H3.51142V24.2045H5.55515e-05ZM28.4404 16.9659V6.75H31.8495V24.2045H28.5086V21.1818H28.3268C27.9252 22.1136 27.2813 22.8902 26.3949 23.5114C25.5162 24.125 24.4215 24.4318 23.1109 24.4318C21.9896 24.4318 20.9972 24.1856 20.1336 23.6932C19.2775 23.1932 18.6033 22.4545 18.1109 21.4773C17.626 20.5 17.3836 19.2917 17.3836 17.8523V6.75H20.7813V17.4432C20.7813 18.6326 21.1109 19.5795 21.7699 20.2841C22.429 20.9886 23.2851 21.3409 24.3381 21.3409C24.9745 21.3409 25.6071 21.1818 26.2359 20.8636C26.8722 20.5455 27.3987 20.0644 27.8154 19.4205C28.2396 18.7765 28.448 17.9583 28.4404 16.9659ZM36.4148 24.2045V6.75H39.6989V9.52273H39.8807C40.1989 8.58333 40.7595 7.84469 41.5626 7.30682C42.3732 6.76136 43.2898 6.48863 44.3126 6.48863C44.5247 6.48863 44.7747 6.49621 45.0626 6.51136C45.358 6.52651 45.5891 6.54545 45.7557 6.56818V9.81818C45.6194 9.7803 45.3769 9.73863 45.0285 9.69318C44.68 9.64015 44.3315 9.61363 43.983 9.61363C43.18 9.61363 42.4641 9.78409 41.8353 10.125C41.2141 10.4583 40.7216 10.9242 40.358 11.5227C39.9944 12.1136 39.8126 12.7879 39.8126 13.5455V24.2045H36.4148ZM52.0938 13.8409V24.2045H48.6961V6.75H51.9574V9.59091H52.1734C52.5749 8.66667 53.2037 7.92424 54.0597 7.36363C54.9234 6.80303 56.0105 6.52273 57.3211 6.52273C58.5105 6.52273 59.5521 6.77273 60.4461 7.27273C61.34 7.76515 62.0332 8.5 62.5256 9.47727C63.018 10.4545 63.2643 11.6629 63.2643 13.1023V24.2045H59.8665V13.5114C59.8665 12.2462 59.537 11.2576 58.8779 10.5455C58.2188 9.82576 57.3135 9.46591 56.162 9.46591C55.3741 9.46591 54.6734 9.63636 54.0597 9.97727C53.4537 10.3182 52.9726 10.8182 52.6165 11.4773C52.268 12.1288 52.0938 12.9167 52.0938 13.8409ZM67.8211 24.2045V6.75H71.2188V24.2045H67.8211ZM69.537 4.05682C68.9461 4.05682 68.4385 3.85985 68.0143 3.46591C67.5976 3.06439 67.3893 2.58712 67.3893 2.03409C67.3893 1.47348 67.5976 0.99621 68.0143 0.60227C68.4385 0.200755 68.9461 -1.90735e-06 69.537 -1.90735e-06C70.1279 -1.90735e-06 70.6317 0.200755 71.0484 0.60227C71.4726 0.99621 71.6847 1.47348 71.6847 2.03409C71.6847 2.58712 71.4726 3.06439 71.0484 3.46591C70.6317 3.85985 70.1279 4.05682 69.537 4.05682Z" fill="white"/>
<path d="M78.0285 24.4205C77.4073 24.4205 76.8732 24.2008 76.4262 23.7614C75.9792 23.3144 75.7557 22.7765 75.7557 22.1477C75.7557 21.5265 75.9792 20.9962 76.4262 20.5568C76.8732 20.1098 77.4073 19.8864 78.0285 19.8864C78.6497 19.8864 79.1838 20.1098 79.6307 20.5568C80.0777 20.9962 80.3012 21.5265 80.3012 22.1477C80.3012 22.5644 80.1951 22.947 79.983 23.2955C79.7785 23.6364 79.5057 23.9091 79.1648 24.1136C78.8239 24.3182 78.4451 24.4205 78.0285 24.4205Z" fill="white" fill-opacity="0.28"/>
</svg>
