<svg width="18" height="20" viewBox="0 0 18 20" fill="none" xmlns="http://www.w3.org/2000/svg">
<path d="M17.9471 6.30496C17.937 5.54758 17.7952 4.79773 17.5281 4.08896C17.2964 3.49111 16.9426 2.94816 16.4892 2.49479C16.0359 2.04142 15.4929 1.68761 14.8951 1.45596C14.1954 1.19331 13.4562 1.0513 12.7091 1.03596C11.7471 0.992957 11.4421 0.980957 9.00007 0.980957C6.55807 0.980957 6.24507 0.980957 5.29007 1.03596C4.54323 1.05141 3.80442 1.19343 3.10507 1.45596C2.50713 1.68745 1.96409 2.0412 1.5107 2.49459C1.05732 2.94798 0.703559 3.49102 0.47207 4.08896C0.208901 4.78809 0.0671935 5.52707 0.0530703 6.27396C0.0100703 7.23696 -0.00292969 7.54196 -0.00292969 9.98396C-0.00292969 12.426 -0.00292969 12.738 0.0530703 13.694C0.0680703 14.442 0.20907 15.18 0.47207 15.881C0.703948 16.4787 1.05797 17.0215 1.51151 17.4747C1.96505 17.9279 2.50813 18.2815 3.10607 18.513C3.8035 18.7862 4.54244 18.9383 5.29107 18.963C6.25407 19.006 6.55907 19.019 9.00107 19.019C11.4431 19.019 11.7561 19.019 12.7111 18.963C13.4582 18.9482 14.1974 18.8066 14.8971 18.544C15.4948 18.312 16.0376 17.9581 16.4909 17.5048C16.9442 17.0515 17.2982 16.5086 17.5301 15.911C17.7931 15.211 17.9341 14.473 17.9491 13.724C17.9921 12.762 18.0051 12.457 18.0051 10.014C18.0031 7.57196 18.0031 7.26196 17.9471 6.30496ZM8.99407 14.602C6.44007 14.602 4.37107 12.533 4.37107 9.97896C4.37107 7.42496 6.44007 5.35596 8.99407 5.35596C10.2202 5.35596 11.396 5.84302 12.263 6.71C13.13 7.57698 13.6171 8.75286 13.6171 9.97896C13.6171 11.2051 13.13 12.3809 12.263 13.2479C11.396 14.1149 10.2202 14.602 8.99407 14.602ZM13.8011 6.26296C13.6595 6.26309 13.5192 6.2353 13.3884 6.18117C13.2575 6.12704 13.1386 6.04764 13.0385 5.94751C12.9384 5.84738 12.859 5.72849 12.8049 5.59765C12.7507 5.4668 12.7229 5.32656 12.7231 5.18496C12.7231 5.04346 12.7509 4.90334 12.8051 4.77262C12.8592 4.64189 12.9386 4.5231 13.0387 4.42305C13.1387 4.32299 13.2575 4.24363 13.3882 4.18948C13.519 4.13533 13.6591 4.10746 13.8006 4.10746C13.9421 4.10746 14.0822 4.13533 14.2129 4.18948C14.3436 4.24363 14.4624 4.32299 14.5625 4.42305C14.6625 4.5231 14.7419 4.64189 14.7961 4.77262C14.8502 4.90334 14.8781 5.04346 14.8781 5.18496C14.8781 5.78096 14.3961 6.26296 13.8011 6.26296Z" fill="#EB0029"/>
</svg>
