<svg width="17" height="17" viewBox="0 0 17 17" fill="none" xmlns="http://www.w3.org/2000/svg">
<path d="M13.5 15.5H7.5C7.23478 15.5 6.98043 15.3946 6.79289 15.2071C6.60536 15.0196 6.5 14.7652 6.5 14.5V13H7.5V14.5H13.5V2.5H7.5V4H6.5V2.5C6.5 2.23478 6.60536 1.98043 6.79289 1.79289C6.98043 1.60536 7.23478 1.5 7.5 1.5H13.5C13.7652 1.5 14.0196 1.60536 14.2071 1.79289C14.3946 1.98043 14.5 2.23478 14.5 2.5V14.5C14.5 14.7652 14.3946 15.0196 14.2071 15.2071C14.0196 15.3946 13.7652 15.5 13.5 15.5Z" fill="#F2F2F2"/>
<path d="M14.25 2.5C14.25 2.30109 14.1709 2.11038 14.0303 1.96973C13.8896 1.82907 13.6989 1.75 13.5 1.75H7.5C7.30109 1.75 7.11038 1.82907 6.96973 1.96973C6.82907 2.11038 6.75 2.30109 6.75 2.5V3.75H7.25V2.25H13.75V14.75H7.25V13.25H6.75V14.5C6.75 14.6989 6.82907 14.8896 6.96973 15.0303C7.11038 15.1709 7.30109 15.25 7.5 15.25H13.5C13.6989 15.25 13.8896 15.1709 14.0303 15.0303C14.1709 14.8896 14.25 14.6989 14.25 14.5V2.5ZM14.75 14.5C14.75 14.8315 14.6182 15.1494 14.3838 15.3838C14.1494 15.6182 13.8315 15.75 13.5 15.75H7.5C7.16848 15.75 6.85063 15.6182 6.61621 15.3838C6.38179 15.1494 6.25 14.8315 6.25 14.5V12.75H7.75V14.25H13.25V2.75H7.75V4.25H6.25V2.5C6.25 2.16848 6.38179 1.85063 6.61621 1.61621C6.85063 1.38179 7.16848 1.25 7.5 1.25H13.5C13.8315 1.25 14.1494 1.38179 14.3838 1.61621C14.6182 1.85063 14.75 2.16848 14.75 2.5V14.5Z" fill="#F2F2F2"/>
<path d="M7.795 10.795L9.585 9H2.5V8H9.585L7.795 6.205L8.5 5.5L11.5 8.5L8.5 11.5L7.795 10.795Z" fill="#F2F2F2"/>
<path d="M11.8535 8.5L8.5 11.8535L7.44141 10.7949L7.61816 10.6182L8.98242 9.25H2.25V7.75H8.98242L7.61816 6.38184L7.44141 6.20508L8.5 5.14648L11.8535 8.5ZM8.14746 6.20508L10.1875 8.25H2.75V8.75H10.1875L8.14746 10.7939L8.5 11.1465L11.1465 8.5L8.5 5.85352L8.14746 6.20508Z" fill="#F2F2F2"/>
</svg>
