<svg width="10" height="10" viewBox="0 0 10 10" fill="none" xmlns="http://www.w3.org/2000/svg">
<path d="M2.25801 6.1615L1.51301 9.3875C1.48994 9.48518 1.49687 9.58755 1.53289 9.68124C1.5689 9.77493 1.63233 9.85558 1.7149 9.91265C1.79746 9.96973 1.89532 10.0006 1.99569 10.0012C2.09606 10.0018 2.19428 9.97209 2.27751 9.916L5.00001 8.101L7.72251 9.916C7.80768 9.97255 7.90812 10.0017 8.01033 9.99941C8.11253 9.99717 8.2116 9.96369 8.29421 9.90346C8.37682 9.84323 8.439 9.75915 8.4724 9.66253C8.50579 9.56591 8.5088 9.46138 8.48101 9.363L7.56651 6.163L9.83451 4.122C9.90715 4.05659 9.95903 3.97133 9.98372 3.87675C10.0084 3.78218 10.0048 3.68244 9.97346 3.58987C9.94207 3.4973 9.88424 3.41596 9.80711 3.35591C9.72999 3.29586 9.63695 3.25973 9.53951 3.252L6.68901 3.025L5.45551 0.294499C5.41618 0.206577 5.35224 0.131916 5.27142 0.0795288C5.19059 0.0271412 5.09633 -0.000734806 5.00001 -0.000734806C4.90369 -0.000734806 4.80943 0.0271412 4.72861 0.0795288C4.64778 0.131916 4.58384 0.206577 4.54451 0.294499L3.31101 3.025L0.460513 3.2515C0.364741 3.25909 0.273182 3.2941 0.196791 3.35236C0.120399 3.41062 0.0624096 3.48966 0.0297597 3.58001C-0.00289019 3.67037 -0.00881797 3.76822 0.0126856 3.86185C0.0341892 3.95548 0.0822135 4.04094 0.151013 4.108L2.25801 6.1615ZM3.68451 3.9985C3.77376 3.99147 3.85947 3.96056 3.93266 3.90901C4.00586 3.85745 4.06383 3.78716 4.10051 3.7055L5.00001 1.715L5.89951 3.7055C5.93619 3.78716 5.99417 3.85745 6.06736 3.90901C6.14055 3.96056 6.22627 3.99147 6.31551 3.9985L8.30151 4.156L6.66601 5.628C6.52401 5.756 6.46751 5.953 6.51951 6.137L7.14601 8.3295L5.27801 7.084C5.19602 7.02897 5.09951 6.99958 5.00076 6.99958C4.90202 6.99958 4.8055 7.02897 4.72351 7.084L2.77151 8.3855L3.29651 6.1125C3.31576 6.0289 3.31318 5.94175 3.28901 5.85944C3.26484 5.77713 3.2199 5.70242 3.15851 5.6425L1.63951 4.1615L3.68451 3.9985Z" fill="#F2C94C"/>
</svg>
