<svg width="10" height="10" viewBox="0 0 10 10" fill="none" xmlns="http://www.w3.org/2000/svg">
<path d="M9.97351 3.5895C9.94209 3.49693 9.88424 3.4156 9.80711 3.35553C9.72998 3.29547 9.63696 3.2593 9.53951 3.2515L6.68901 3.025L5.45551 0.294502C5.41623 0.206558 5.35233 0.131862 5.27154 0.0794303C5.19074 0.0269983 5.09649 -0.000929345 5.00017 -0.000982209C4.90386 -0.00103507 4.80958 0.0267891 4.72873 0.0791324C4.64787 0.131476 4.58389 0.206101 4.54451 0.294002L3.31101 3.025L0.460513 3.2515C0.364741 3.25909 0.273182 3.29411 0.196791 3.35237C0.120399 3.41063 0.0624096 3.48966 0.0297597 3.58002C-0.00289019 3.67037 -0.00881797 3.76822 0.0126856 3.86185C0.0341892 3.95549 0.0822135 4.04095 0.151013 4.108L2.25751 6.1615L1.51251 9.3875C1.48989 9.48515 1.49714 9.58735 1.53332 9.68082C1.5695 9.7743 1.63294 9.85475 1.71541 9.91172C1.79788 9.96869 1.89557 9.99957 1.9958 10.0003C2.09604 10.0011 2.19419 9.97171 2.27751 9.916L5.00001 8.101L7.72251 9.916C7.80768 9.97255 7.90812 10.0017 8.01033 9.99942C8.11253 9.99718 8.2116 9.96369 8.29421 9.90346C8.37682 9.84324 8.439 9.75916 8.4724 9.66254C8.50579 9.56592 8.5088 9.46138 8.48101 9.363L7.56651 6.163L9.83451 4.122C9.98301 3.988 10.0375 3.779 9.97351 3.5895Z" fill="#F2C94C"/>
</svg>
