<svg width="20" height="20" viewBox="0 0 20 20" fill="none" xmlns="http://www.w3.org/2000/svg">
<path d="M16.4165 9.62531C16.4165 7.82404 15.7009 6.09626 14.4272 4.82257C13.1537 3.54906 11.4266 2.8334 9.62549 2.83331C7.82423 2.83331 6.09644 3.54889 4.82275 4.82257C3.54907 6.09626 2.8335 7.82404 2.8335 9.62531C2.83358 11.4264 3.54925 13.1535 4.82275 14.4271C6.09644 15.7007 7.82423 16.4163 9.62549 16.4163C11.4266 16.4162 13.1536 15.7007 14.4272 14.4271C15.7009 13.1535 16.4164 11.4265 16.4165 9.62531ZM18.4165 9.62531C18.4164 11.6196 17.7371 13.5424 16.5093 15.0892L19.9575 18.5433L18.5425 19.9564L15.0962 16.5042C13.5483 17.7353 11.6226 18.4162 9.62549 18.4163C7.29395 18.4163 5.05742 17.4907 3.40869 15.8421C1.76001 14.1934 0.833582 11.9569 0.833496 9.62531C0.833496 7.29361 1.75993 5.05727 3.40869 3.40851C5.05745 1.75975 7.29379 0.833313 9.62549 0.833313C11.9571 0.833399 14.1936 1.75983 15.8423 3.40851C17.4908 5.05723 18.4165 7.29376 18.4165 9.62531Z" fill="black"/>
</svg>
