<svg width="20" height="21" viewBox="0 0 20 21" fill="none" xmlns="http://www.w3.org/2000/svg">
<path d="M17.1564 9.94369L3.40636 3.06869C3.29859 3.0148 3.17754 2.9932 3.05778 3.00651C2.93803 3.01981 2.82467 3.06746 2.73136 3.14369C2.64225 3.21838 2.57574 3.31643 2.5393 3.42685C2.50287 3.53726 2.49795 3.65564 2.52511 3.76869L4.37511 10.4999L2.50011 17.2124C2.47463 17.3069 2.47165 17.4059 2.49143 17.5017C2.5112 17.5975 2.55317 17.6873 2.61396 17.7639C2.67475 17.8405 2.75267 17.9017 2.84144 17.9427C2.93022 17.9837 3.02738 18.0033 3.12511 17.9999C3.22295 17.9994 3.31928 17.9758 3.40636 17.9312L17.1564 11.0562C17.2587 11.0037 17.3447 10.9241 17.4046 10.8259C17.4646 10.7278 17.4964 10.615 17.4964 10.4999C17.4964 10.3849 17.4646 10.2721 17.4046 10.174C17.3447 10.0758 17.2587 9.99614 17.1564 9.94369ZM4.09386 16.1937L5.47511 11.1249H11.2501V9.87494H5.47511L4.09386 4.80619L15.4751 10.4999L4.09386 16.1937Z" fill="#EB0029"/>
<path d="M17.2463 10.4999C17.2462 10.431 17.2275 10.3634 17.1916 10.3046C17.1561 10.2465 17.1054 10.1993 17.0451 10.1679L3.29511 3.29286C3.23045 3.26052 3.157 3.24679 3.08515 3.25477C3.01344 3.26281 2.94572 3.29212 2.88984 3.33778C2.83762 3.38232 2.79807 3.44054 2.77655 3.50575C2.75501 3.57133 2.75194 3.64169 2.76777 3.70887L4.63495 10.5009L2.7414 17.2802C2.7267 17.336 2.72486 17.3944 2.73652 17.4511C2.74836 17.5084 2.7734 17.5624 2.80976 17.6083C2.84622 17.6542 2.89323 17.6911 2.94648 17.7157C2.99967 17.7403 3.05784 17.7519 3.1164 17.7499H3.12421C3.18266 17.7495 3.24014 17.7355 3.29218 17.7089L3.29511 17.7079L3.40644 17.9315L3.42499 17.9686L3.29511 17.7079L17.0422 10.8339L17.1262 10.7753C17.1514 10.752 17.1735 10.7248 17.1916 10.6952C17.2274 10.6364 17.2463 10.5688 17.2463 10.4999ZM4.09394 16.1942L4.20624 16.4179L3.70624 16.6679L3.85273 16.1278L4.09394 16.1942ZM15.5871 10.2763L15.4748 10.4999L15.5871 10.7235L4.20624 16.4179L4.09394 16.1942L3.85273 16.1278L5.23456 11.0595L5.28437 10.8749H11.0002V10.1249H5.28437L5.23456 9.94032L3.70624 4.3329L15.5871 10.2763ZM5.6662 9.62489H11.5002V11.3749H5.6662L4.48163 15.7206L14.9162 10.4999L4.48163 5.28016L5.6662 9.62489ZM16.0344 10.4999L15.5871 10.7235L15.4748 10.4999L15.5871 10.2763L16.0344 10.4999ZM17.7463 10.4999C17.7463 10.6609 17.7023 10.8195 17.6184 10.9569C17.5344 11.0942 17.4139 11.2058 17.2707 11.2792L3.51874 18.1552C3.3992 18.216 3.2671 18.2472 3.133 18.2489L3.13398 18.2499C3.13205 18.25 3.13005 18.2489 3.12812 18.2489L3.12714 18.2499L3.12616 18.2489C2.99195 18.2524 2.85846 18.2261 2.73652 18.1698C2.61239 18.1124 2.50319 18.0269 2.41816 17.9198C2.33312 17.8127 2.27497 17.6866 2.24726 17.5526C2.21957 17.4185 2.2233 17.2795 2.25898 17.1473L2.25995 17.1454L2.50019 17.2128L2.51581 17.2167L2.25995 17.1454L4.11542 10.4999L2.28437 3.83485L2.52558 3.76844L2.51191 3.77137L2.28437 3.83485L2.28241 3.82704C2.24443 3.6688 2.25095 3.50305 2.30194 3.34852C2.35293 3.19404 2.44585 3.05656 2.5705 2.95204L2.75019 3.16688L2.73163 3.14344L2.5705 2.95204L2.57343 2.95008C2.70404 2.8434 2.86285 2.77632 3.03046 2.7577C3.19807 2.7391 3.36791 2.77016 3.51874 2.84559L17.2687 9.72059L17.1916 9.87489L17.2707 9.72157C17.4139 9.795 17.5344 9.9065 17.6184 10.0438C17.7022 10.1811 17.7462 10.339 17.7463 10.4999Z" fill="#EB0029"/>
</svg>
