<svg width="20" height="22" viewBox="0 0 20 22" fill="none" xmlns="http://www.w3.org/2000/svg">
<path d="M15.5266 6.33337C16.2388 6.3333 16.9251 6.60136 17.4485 7.08435C17.9719 7.56735 18.2938 8.2299 18.3508 8.93982L19.0872 18.1068C19.1184 18.4966 19.0683 18.8885 18.9407 19.2582C18.813 19.6278 18.6102 19.9668 18.345 20.2543C18.0798 20.5417 17.7579 20.7711 17.3997 20.9281C17.0863 21.0654 16.7512 21.1447 16.4104 21.1625L16.2639 21.1664H3.7356L3.73657 19.1664H16.2629C16.3778 19.1663 16.4917 19.1431 16.5969 19.097C16.7022 19.0509 16.7973 18.9832 16.8752 18.8988C16.9532 18.8143 17.0135 18.7145 17.051 18.6058C17.0885 18.4972 17.1032 18.3815 17.094 18.267L16.3577 9.09998C16.3409 8.89117 16.246 8.69614 16.092 8.55408C15.9766 8.4476 15.8342 8.37685 15.6819 8.34802L15.5266 8.33337H4.4729C4.26349 8.33339 4.06138 8.41206 3.90747 8.55408C3.75357 8.69614 3.65861 8.8912 3.64185 9.09998L2.9065 18.267C2.89733 18.3816 2.91194 18.4972 2.94947 18.6058C2.98703 18.7144 3.04637 18.8144 3.12427 18.8988C3.20226 18.9833 3.29726 19.0509 3.40259 19.097C3.50786 19.1431 3.62166 19.1663 3.73657 19.1664L3.7356 21.1664C3.34465 21.1662 2.95795 21.085 2.59986 20.9281C2.24169 20.7711 1.91972 20.5417 1.65454 20.2543C1.38943 19.9669 1.18649 19.6278 1.05884 19.2582C0.931208 18.8886 0.881092 18.4966 0.912356 18.1068L1.64868 8.93982C1.70572 8.22987 2.02857 7.56736 2.552 7.08435C3.07529 6.60162 3.76097 6.33437 4.4729 6.33435L15.5266 6.33337Z" fill="black"/>
<path d="M12.6665 10.0834V5.50037C12.6665 4.79328 12.3861 4.11469 11.8862 3.61462C11.3862 3.1146 10.7076 2.83346 10.0005 2.83337C9.29324 2.83337 8.61484 3.11453 8.11475 3.61462C7.61465 4.11472 7.3335 4.79312 7.3335 5.50037V10.0834C7.3335 10.6357 6.88578 11.0834 6.3335 11.0834C5.78121 11.0834 5.3335 10.6357 5.3335 10.0834V5.50037C5.3335 4.26269 5.82551 3.07573 6.70068 2.20056C7.57585 1.32539 8.76281 0.833374 10.0005 0.833374C11.238 0.83346 12.4252 1.32547 13.3003 2.20056C14.1753 3.0757 14.6665 4.26284 14.6665 5.50037V10.0834C14.6665 10.6357 14.2188 11.0834 13.6665 11.0834C13.1144 11.0832 12.6665 10.6355 12.6665 10.0834Z" fill="black"/>
</svg>
