<svg width="24" height="29" viewBox="0 0 24 29" fill="none" xmlns="http://www.w3.org/2000/svg">
<path d="M20 27.6618C20.5523 27.6618 21 27.0934 21 26.3922C21 25.691 20.5523 25.1226 20 25.1226C19.4477 25.1226 19 25.691 19 26.3922C19 27.0934 19.4477 27.6618 20 27.6618Z" stroke="white" stroke-width="2" stroke-linecap="round" stroke-linejoin="round"/>
<path d="M9 27.6618C9.55228 27.6618 10 27.0934 10 26.3922C10 25.691 9.55228 25.1226 9 25.1226C8.44772 25.1226 8 25.691 8 26.3922C8 27.0934 8.44772 27.6618 9 27.6618Z" stroke="white" stroke-width="2" stroke-linecap="round" stroke-linejoin="round"/>
<path d="M1 1H5L7.68 18.0001C7.77144 18.5846 8.02191 19.1097 8.38755 19.4834C8.75318 19.8571 9.2107 20.0556 9.68 20.0442H19.4C19.8693 20.0556 20.3268 19.8571 20.6925 19.4834C21.0581 19.1097 21.3086 18.5846 21.4 18.0001L23 7.34806H6" stroke="white" stroke-width="2" stroke-linecap="round" stroke-linejoin="round"/>
</svg>
