<svg width="18" height="25" viewBox="0 0 18 25" fill="none" xmlns="http://www.w3.org/2000/svg">
<path d="M16 23.9463V21.3974C16 20.2421 15.6384 19.1685 15.042 18.4082C14.4502 17.6538 13.7064 17.2978 13 17.2978H5C4.29358 17.2978 3.54982 17.6538 2.95801 18.4082C2.3616 19.1685 2 20.2421 2 21.3974V23.9463C2 24.4986 1.55228 24.9463 1 24.9463C0.447715 24.9463 0 24.4986 0 23.9463V21.3974C0 19.8479 0.480884 18.3261 1.38477 17.1738C2.29323 16.0158 3.5848 15.2978 5 15.2978H13C14.4152 15.2978 15.7068 16.0158 16.6152 17.1738C17.5191 18.3261 18 19.8479 18 21.3974V23.9463C18 24.4986 17.5523 24.9463 17 24.9463C16.4477 24.9463 16 24.4986 16 23.9463Z" fill="white"/>
<path d="M12 6.09961C12 3.59588 10.4443 2 9 2C7.55569 2 6 3.59588 6 6.09961C6.00014 8.60315 7.55575 10.1982 9 10.1982C10.4442 10.1982 11.9999 8.60315 12 6.09961ZM14 6.09961C13.9999 9.22826 11.9739 12.1982 9 12.1982C6.02614 12.1982 4.00014 9.22826 4 6.09961C4 2.97084 6.02603 0 9 0C11.974 0 14 2.97084 14 6.09961Z" fill="white"/>
</svg>
