<svg width="120" height="24" viewBox="0 0 120 24" fill="none" xmlns="http://www.w3.org/2000/svg">
<path d="M106.89 3.56738C107.329 2.62379 108.671 2.62379 109.11 3.56738L110.55 6.65527C110.874 7.35085 111.534 7.83049 112.296 7.92383L115.677 8.33789C116.71 8.46449 117.125 9.74043 116.363 10.4502L113.871 12.7725C113.309 13.2959 113.057 14.0726 113.204 14.8262L113.855 18.1699C114.054 19.1915 112.969 19.9801 112.059 19.4756L109.079 17.8232C108.408 17.4509 107.592 17.4509 106.921 17.8232L103.941 19.4756C103.031 19.9801 101.946 19.1915 102.145 18.1699L102.796 14.8262C102.943 14.0726 102.691 13.2959 102.129 12.7725L99.6367 10.4502C98.8752 9.74043 99.29 8.46449 100.323 8.33789L103.704 7.92383C104.466 7.83049 105.126 7.35085 105.45 6.65527L106.89 3.56738Z" stroke="#FFB547"/>
<path d="M82.8896 3.56738C83.3294 2.62379 84.6706 2.62379 85.1104 3.56738L86.5498 6.65527C86.8742 7.35085 87.5341 7.83049 88.2959 7.92383L91.6768 8.33789C92.71 8.46449 93.1248 9.74043 92.3633 10.4502L89.8711 12.7725C89.3095 13.2959 89.0574 14.0726 89.2041 14.8262L89.8555 18.1699C90.0541 19.1915 88.9688 19.9801 88.0586 19.4756L85.0791 17.8232C84.4077 17.4509 83.5923 17.4509 82.9209 17.8232L79.9414 19.4756C79.0312 19.9801 77.9459 19.1915 78.1445 18.1699L78.7959 14.8262C78.9426 14.0726 78.6905 13.2959 78.1289 12.7725L75.6367 10.4502C74.8752 9.74043 75.29 8.46449 76.3232 8.33789L79.7041 7.92383C80.4659 7.83049 81.1258 7.35085 81.4502 6.65527L82.8896 3.56738Z" stroke="#FFB547"/>
<path d="M58.8896 3.56738C59.3294 2.62379 60.6706 2.62379 61.1104 3.56738L62.5498 6.65527C62.8742 7.35085 63.5341 7.83049 64.2959 7.92383L67.6768 8.33789C68.71 8.46449 69.1248 9.74043 68.3633 10.4502L65.8711 12.7725C65.3095 13.2959 65.0574 14.0726 65.2041 14.8262L65.8555 18.1699C66.0541 19.1915 64.9688 19.9801 64.0586 19.4756L61.0791 17.8232C60.4077 17.4509 59.5923 17.4509 58.9209 17.8232L55.9414 19.4756C55.0312 19.9801 53.9459 19.1915 54.1445 18.1699L54.7959 14.8262C54.9426 14.0726 54.6905 13.2959 54.1289 12.7725L51.6367 10.4502C50.8752 9.74043 51.29 8.46449 52.3232 8.33789L55.7041 7.92383C56.4659 7.83049 57.1258 7.35085 57.4502 6.65527L58.8896 3.56738Z" stroke="#FFB547"/>
<path d="M34.8896 3.56738C35.3294 2.62379 36.6706 2.62379 37.1104 3.56738L38.5498 6.65527C38.8742 7.35085 39.5341 7.83049 40.2959 7.92383L43.6768 8.33789C44.71 8.46449 45.1248 9.74043 44.3633 10.4502L41.8711 12.7725C41.3095 13.2959 41.0574 14.0726 41.2041 14.8262L41.8555 18.1699C42.0541 19.1915 40.9688 19.9801 40.0586 19.4756L37.0791 17.8232C36.4077 17.4509 35.5923 17.4509 34.9209 17.8232L31.9414 19.4756C31.0312 19.9801 29.9459 19.1915 30.1445 18.1699L30.7959 14.8262C30.9426 14.0726 30.6905 13.2959 30.1289 12.7725L27.6367 10.4502C26.8752 9.74043 27.29 8.46449 28.3232 8.33789L31.7041 7.92383C32.4659 7.83049 33.1258 7.35085 33.4502 6.65527L34.8896 3.56738Z" stroke="#FFB547"/>
<path d="M10.8896 3.56738C11.3294 2.62379 12.6706 2.62379 13.1104 3.56738L14.5498 6.65527C14.8742 7.35085 15.5341 7.83049 16.2959 7.92383L19.6768 8.33789C20.71 8.46449 21.1248 9.74043 20.3633 10.4502L17.8711 12.7725C17.3095 13.2959 17.0574 14.0726 17.2041 14.8262L17.8555 18.1699C18.0541 19.1915 16.9688 19.9801 16.0586 19.4756L13.0791 17.8232C12.4077 17.4509 11.5923 17.4509 10.9209 17.8232L7.94141 19.4756C7.03119 19.9801 5.94587 19.1915 6.14453 18.1699L6.7959 14.8262C6.94258 14.0726 6.69051 13.2959 6.12891 12.7725L3.63672 10.4502C2.87518 9.74043 3.28996 8.46449 4.32324 8.33789L7.7041 7.92383C8.46592 7.83049 9.12584 7.35085 9.4502 6.65527L10.8896 3.56738Z" stroke="#FFB547"/>
</svg>
