<svg width="20" height="18" viewBox="0 0 20 18" fill="none" xmlns="http://www.w3.org/2000/svg">
<path fill-rule="evenodd" clip-rule="evenodd" d="M10.7929 0.792893C11.1834 0.402369 11.8166 0.402369 12.2071 0.792893L19.7071 8.29289C19.8946 8.48043 20 8.73478 20 9C20 9.26522 19.8946 9.51957 19.7071 9.70711L12.2071 17.2071C11.8166 17.5976 11.1834 17.5976 10.7929 17.2071C10.4024 16.8166 10.4024 16.1834 10.7929 15.7929L16.5858 10H1C0.447715 10 0 9.55229 0 9C0 8.44772 0.447715 8 1 8H16.5858L10.7929 2.20711C10.4024 1.81658 10.4024 1.18342 10.7929 0.792893Z" fill="#999999"/>
</svg>
