<svg width="128" height="24" viewBox="0 0 128 24" fill="none" xmlns="http://www.w3.org/2000/svg">
<path d="M12.5 0L16.6545 6.28187L23.9127 8.2918L19.2221 14.1841L19.5534 21.7082L12.5 19.068L5.44658 21.7082L5.77793 14.1841L1.08732 8.2918L8.34553 6.28187L12.5 0Z" fill="#f9ad3d"/>
<path d="M38.5 0L42.6545 6.28187L49.9127 8.2918L45.2221 14.1841L45.5534 21.7082L38.5 19.068L31.4466 21.7082L31.7779 14.1841L27.0873 8.2918L34.3455 6.28187L38.5 0Z" fill="#f9ad3d"/>
<path d="M64.5 0L68.6545 6.28187L75.9127 8.2918L71.2221 14.1841L71.5534 21.7082L64.5 19.068L57.4466 21.7082L57.7779 14.1841L53.0873 8.2918L60.3455 6.28187L64.5 0Z" fill="#f9ad3d"/>
<path d="M90.5 0L94.6545 6.28187L101.913 8.2918L97.2221 14.1841L97.5534 21.7082L90.5 19.068L83.4466 21.7082L83.7779 14.1841L79.0873 8.2918L86.3455 6.28187L90.5 0Z" fill="#f9ad3d"/>
<path d="M115.913 0L120.067 6.28187L127.325 8.2918L122.635 14.1841L122.966 21.7082L115.913 19.068L108.859 21.7082L109.191 14.1841L104.5 8.2918L111.758 6.28187L115.913 0Z" fill="#f9ad3d"/>
</svg>
