<svg width="170" height="170" viewBox="0 0 170 170" fill="none" xmlns="http://www.w3.org/2000/svg">
<g id="Mask group">
<mask id="mask0_0_1848" style="mask-type:alpha" maskUnits="userSpaceOnUse" x="0" y="0" width="170" height="170">
<circle id="Ellipse 374" cx="85" cy="85" r="85" fill="#FEFEFE"/>
</mask>
<g mask="url(#mask0_0_1848)">
<circle id="Ellipse 48" cx="3.86837" cy="6.26278" r="2.69442" fill="#605F5F"/>
<circle id="Ellipse 70" cx="3.86837" cy="21.2315" r="2.69442" fill="#605F5F"/>
<circle id="Ellipse 92" cx="3.86825" cy="35.6016" r="2.69442" fill="#605F5F"/>
<circle id="Ellipse 114" cx="3.86825" cy="49.9727" r="2.69442" fill="#605F5F"/>
<circle id="Ellipse 136" cx="3.86837" cy="64.9415" r="2.69442" fill="#605F5F"/>
<circle id="Ellipse 158" cx="3.86825" cy="79.3116" r="2.69442" fill="#605F5F"/>
<circle id="Ellipse 180" cx="3.86837" cy="93.682" r="2.69442" fill="#605F5F"/>
<circle id="Ellipse 202" cx="3.86837" cy="108.651" r="2.69442" fill="#605F5F"/>
<circle id="Ellipse 224" cx="3.86837" cy="123.022" r="2.69442" fill="#605F5F"/>
<circle id="Ellipse 246" cx="3.86825" cy="137.392" r="2.69442" fill="#605F5F"/>
<circle id="Ellipse 268" cx="3.86837" cy="152.361" r="2.69442" fill="#605F5F"/>
<circle id="Ellipse 290" cx="3.86837" cy="166.731" r="2.69442" fill="#605F5F"/>
<circle id="Ellipse 49" cx="14.6457" cy="6.26278" r="2.69442" fill="#605F5F"/>
<circle id="Ellipse 71" cx="14.6457" cy="21.2315" r="2.69442" fill="#605F5F"/>
<circle id="Ellipse 93" cx="14.6456" cy="35.6016" r="2.69442" fill="#605F5F"/>
<circle id="Ellipse 115" cx="14.6456" cy="49.9727" r="2.69442" fill="#605F5F"/>
<circle id="Ellipse 137" cx="14.6457" cy="64.9415" r="2.69442" fill="#605F5F"/>
<circle id="Ellipse 159" cx="14.6456" cy="79.3116" r="2.69442" fill="#605F5F"/>
<circle id="Ellipse 181" cx="14.6457" cy="93.682" r="2.69442" fill="#605F5F"/>
<circle id="Ellipse 203" cx="14.6457" cy="108.651" r="2.69442" fill="#605F5F"/>
<circle id="Ellipse 225" cx="14.6457" cy="123.022" r="2.69442" fill="#605F5F"/>
<circle id="Ellipse 247" cx="14.6456" cy="137.392" r="2.69442" fill="#605F5F"/>
<circle id="Ellipse 269" cx="14.6457" cy="152.361" r="2.69442" fill="#605F5F"/>
<circle id="Ellipse 291" cx="14.6457" cy="166.731" r="2.69442" fill="#605F5F"/>
<circle id="Ellipse 50" cx="24.8233" cy="6.26278" r="2.69442" fill="#605F5F"/>
<circle id="Ellipse 72" cx="24.8233" cy="21.2315" r="2.69442" fill="#605F5F"/>
<circle id="Ellipse 94" cx="24.8233" cy="35.6026" r="2.69442" fill="#605F5F"/>
<circle id="Ellipse 116" cx="24.8233" cy="49.9718" r="2.69442" fill="#605F5F"/>
<circle id="Ellipse 138" cx="24.8233" cy="64.9415" r="2.69442" fill="#605F5F"/>
<circle id="Ellipse 160" cx="24.8233" cy="79.3116" r="2.69442" fill="#605F5F"/>
<circle id="Ellipse 182" cx="24.8233" cy="93.6817" r="2.69442" fill="#605F5F"/>
<circle id="Ellipse 204" cx="24.8233" cy="108.651" r="2.69442" fill="#605F5F"/>
<circle id="Ellipse 226" cx="24.8233" cy="123.022" r="2.69442" fill="#605F5F"/>
<circle id="Ellipse 248" cx="24.8233" cy="137.392" r="2.69442" fill="#605F5F"/>
<circle id="Ellipse 270" cx="24.8233" cy="152.361" r="2.69442" fill="#605F5F"/>
<circle id="Ellipse 292" cx="24.8233" cy="166.731" r="2.69442" fill="#605F5F"/>
<circle id="Ellipse 51" cx="35.6026" cy="6.26278" r="2.69442" fill="#605F5F"/>
<circle id="Ellipse 73" cx="35.6026" cy="21.2315" r="2.69442" fill="#605F5F"/>
<circle id="Ellipse 95" cx="35.6026" cy="35.6026" r="2.69442" fill="#605F5F"/>
<circle id="Ellipse 117" cx="35.6026" cy="49.9718" r="2.69442" fill="#605F5F"/>
<circle id="Ellipse 139" cx="35.6026" cy="64.9415" r="2.69442" fill="#605F5F"/>
<circle id="Ellipse 161" cx="35.6026" cy="79.3116" r="2.69442" fill="#605F5F"/>
<circle id="Ellipse 183" cx="35.6026" cy="93.6817" r="2.69442" fill="#605F5F"/>
<circle id="Ellipse 205" cx="35.6026" cy="108.651" r="2.69442" fill="#605F5F"/>
<circle id="Ellipse 227" cx="35.6026" cy="123.022" r="2.69442" fill="#605F5F"/>
<circle id="Ellipse 249" cx="35.6026" cy="137.392" r="2.69442" fill="#605F5F"/>
<circle id="Ellipse 271" cx="35.6026" cy="152.361" r="2.69442" fill="#605F5F"/>
<circle id="Ellipse 293" cx="35.6026" cy="166.731" r="2.69442" fill="#605F5F"/>
<circle id="Ellipse 52" cx="45.7804" cy="6.26278" r="2.69442" fill="#605F5F"/>
<circle id="Ellipse 74" cx="45.7804" cy="21.2315" r="2.69442" fill="#605F5F"/>
<circle id="Ellipse 96" cx="45.7804" cy="35.6026" r="2.69442" fill="#605F5F"/>
<circle id="Ellipse 118" cx="45.7804" cy="49.9718" r="2.69442" fill="#605F5F"/>
<circle id="Ellipse 140" cx="45.7804" cy="64.9415" r="2.69442" fill="#605F5F"/>
<circle id="Ellipse 162" cx="45.7804" cy="79.3116" r="2.69442" fill="#605F5F"/>
<circle id="Ellipse 184" cx="45.7804" cy="93.6817" r="2.69442" fill="#605F5F"/>
<circle id="Ellipse 206" cx="45.7804" cy="108.651" r="2.69442" fill="#605F5F"/>
<circle id="Ellipse 228" cx="45.7804" cy="123.022" r="2.69442" fill="#605F5F"/>
<circle id="Ellipse 250" cx="45.7804" cy="137.392" r="2.69442" fill="#605F5F"/>
<circle id="Ellipse 272" cx="45.7804" cy="152.361" r="2.69442" fill="#605F5F"/>
<circle id="Ellipse 294" cx="45.7804" cy="166.731" r="2.69442" fill="#605F5F"/>
<circle id="Ellipse 53" cx="56.5597" cy="6.26278" r="2.69442" fill="#605F5F"/>
<circle id="Ellipse 75" cx="56.5597" cy="21.2315" r="2.69442" fill="#605F5F"/>
<circle id="Ellipse 97" cx="56.5597" cy="35.6026" r="2.69442" fill="#605F5F"/>
<circle id="Ellipse 119" cx="56.5597" cy="49.9718" r="2.69442" fill="#605F5F"/>
<circle id="Ellipse 141" cx="56.5597" cy="64.9415" r="2.69442" fill="#605F5F"/>
<circle id="Ellipse 163" cx="56.5597" cy="79.3116" r="2.69442" fill="#605F5F"/>
<circle id="Ellipse 185" cx="56.5597" cy="93.6817" r="2.69442" fill="#605F5F"/>
<circle id="Ellipse 207" cx="56.5597" cy="108.651" r="2.69442" fill="#605F5F"/>
<circle id="Ellipse 229" cx="56.5597" cy="123.022" r="2.69442" fill="#605F5F"/>
<circle id="Ellipse 251" cx="56.5597" cy="137.392" r="2.69442" fill="#605F5F"/>
<circle id="Ellipse 273" cx="56.5597" cy="152.361" r="2.69442" fill="#605F5F"/>
<circle id="Ellipse 295" cx="56.5597" cy="166.731" r="2.69442" fill="#605F5F"/>
<circle id="Ellipse 54" cx="66.7372" cy="6.26278" r="2.69442" fill="#605F5F"/>
<circle id="Ellipse 76" cx="66.7372" cy="21.2315" r="2.69442" fill="#605F5F"/>
<circle id="Ellipse 98" cx="66.7374" cy="35.6016" r="2.69442" fill="#605F5F"/>
<circle id="Ellipse 120" cx="66.7374" cy="49.9727" r="2.69442" fill="#605F5F"/>
<circle id="Ellipse 142" cx="66.7372" cy="64.9415" r="2.69442" fill="#605F5F"/>
<circle id="Ellipse 164" cx="66.7374" cy="79.3116" r="2.69442" fill="#605F5F"/>
<circle id="Ellipse 186" cx="66.7372" cy="93.682" r="2.69442" fill="#605F5F"/>
<circle id="Ellipse 208" cx="66.7372" cy="108.651" r="2.69442" fill="#605F5F"/>
<circle id="Ellipse 230" cx="66.7372" cy="123.022" r="2.69442" fill="#605F5F"/>
<circle id="Ellipse 252" cx="66.7374" cy="137.392" r="2.69442" fill="#605F5F"/>
<circle id="Ellipse 274" cx="66.7372" cy="152.361" r="2.69442" fill="#605F5F"/>
<circle id="Ellipse 296" cx="66.7372" cy="166.731" r="2.69442" fill="#605F5F"/>
<circle id="Ellipse 55" cx="77.5155" cy="6.26278" r="2.69442" fill="#605F5F"/>
<circle id="Ellipse 77" cx="77.5155" cy="21.2315" r="2.69442" fill="#605F5F"/>
<circle id="Ellipse 99" cx="77.5157" cy="35.6016" r="2.69442" fill="#605F5F"/>
<circle id="Ellipse 121" cx="77.5157" cy="49.9727" r="2.69442" fill="#605F5F"/>
<circle id="Ellipse 143" cx="77.5155" cy="64.9415" r="2.69442" fill="#605F5F"/>
<circle id="Ellipse 165" cx="77.5157" cy="79.3116" r="2.69442" fill="#605F5F"/>
<circle id="Ellipse 187" cx="77.5155" cy="93.682" r="2.69442" fill="#605F5F"/>
<circle id="Ellipse 209" cx="77.5155" cy="108.651" r="2.69442" fill="#605F5F"/>
<circle id="Ellipse 231" cx="77.5155" cy="123.022" r="2.69442" fill="#605F5F"/>
<circle id="Ellipse 253" cx="77.5157" cy="137.392" r="2.69442" fill="#605F5F"/>
<circle id="Ellipse 275" cx="77.5155" cy="152.361" r="2.69442" fill="#605F5F"/>
<circle id="Ellipse 297" cx="77.5155" cy="166.731" r="2.69442" fill="#605F5F"/>
<circle id="Ellipse 56" cx="87.6944" cy="6.26278" r="2.69442" fill="#605F5F"/>
<circle id="Ellipse 78" cx="87.6944" cy="21.2315" r="2.69442" fill="#605F5F"/>
<circle id="Ellipse 100" cx="87.6944" cy="35.6016" r="2.69442" fill="#605F5F"/>
<circle id="Ellipse 122" cx="87.6944" cy="49.9727" r="2.69442" fill="#605F5F"/>
<circle id="Ellipse 144" cx="87.6944" cy="64.9415" r="2.69442" fill="#605F5F"/>
<circle id="Ellipse 166" cx="87.6944" cy="79.3116" r="2.69442" fill="#605F5F"/>
<circle id="Ellipse 188" cx="87.6944" cy="93.682" r="2.69442" fill="#605F5F"/>
<circle id="Ellipse 210" cx="87.6944" cy="108.651" r="2.69442" fill="#605F5F"/>
<circle id="Ellipse 232" cx="87.6944" cy="123.022" r="2.69442" fill="#605F5F"/>
<circle id="Ellipse 254" cx="87.6944" cy="137.392" r="2.69442" fill="#605F5F"/>
<circle id="Ellipse 276" cx="87.6944" cy="152.361" r="2.69442" fill="#605F5F"/>
<circle id="Ellipse 298" cx="87.6944" cy="166.731" r="2.69442" fill="#605F5F"/>
<circle id="Ellipse 57" cx="98.4718" cy="6.26278" r="2.69442" fill="#605F5F"/>
<circle id="Ellipse 79" cx="98.4718" cy="21.2315" r="2.69442" fill="#605F5F"/>
<circle id="Ellipse 101" cx="98.4718" cy="35.6016" r="2.69442" fill="#605F5F"/>
<circle id="Ellipse 123" cx="98.4718" cy="49.9727" r="2.69442" fill="#605F5F"/>
<circle id="Ellipse 145" cx="98.4718" cy="64.9415" r="2.69442" fill="#605F5F"/>
<circle id="Ellipse 167" cx="98.4718" cy="79.3116" r="2.69442" fill="#605F5F"/>
<circle id="Ellipse 189" cx="98.4718" cy="93.682" r="2.69442" fill="#605F5F"/>
<circle id="Ellipse 211" cx="98.4718" cy="108.651" r="2.69442" fill="#605F5F"/>
<circle id="Ellipse 233" cx="98.4718" cy="123.022" r="2.69442" fill="#605F5F"/>
<circle id="Ellipse 255" cx="98.4718" cy="137.392" r="2.69442" fill="#605F5F"/>
<circle id="Ellipse 277" cx="98.4718" cy="152.361" r="2.69442" fill="#605F5F"/>
<circle id="Ellipse 299" cx="98.4718" cy="166.731" r="2.69442" fill="#605F5F"/>
<circle id="Ellipse 58" cx="108.652" cy="6.26278" r="2.69442" fill="#605F5F"/>
<circle id="Ellipse 80" cx="108.652" cy="21.2315" r="2.69442" fill="#605F5F"/>
<circle id="Ellipse 102" cx="108.651" cy="35.6016" r="2.69442" fill="#605F5F"/>
<circle id="Ellipse 124" cx="108.651" cy="49.9727" r="2.69442" fill="#605F5F"/>
<circle id="Ellipse 146" cx="108.652" cy="64.9415" r="2.69442" fill="#605F5F"/>
<circle id="Ellipse 168" cx="108.651" cy="79.3116" r="2.69442" fill="#605F5F"/>
<circle id="Ellipse 190" cx="108.652" cy="93.682" r="2.69442" fill="#605F5F"/>
<circle id="Ellipse 212" cx="108.652" cy="108.651" r="2.69442" fill="#605F5F"/>
<circle id="Ellipse 234" cx="108.652" cy="123.022" r="2.69442" fill="#605F5F"/>
<circle id="Ellipse 256" cx="108.651" cy="137.392" r="2.69442" fill="#605F5F"/>
<circle id="Ellipse 278" cx="108.652" cy="152.361" r="2.69442" fill="#605F5F"/>
<circle id="Ellipse 300" cx="108.652" cy="166.731" r="2.69442" fill="#605F5F"/>
<circle id="Ellipse 59" cx="119.429" cy="6.26278" r="2.69442" fill="#605F5F"/>
<circle id="Ellipse 81" cx="119.429" cy="21.2315" r="2.69442" fill="#605F5F"/>
<circle id="Ellipse 103" cx="119.429" cy="35.6016" r="2.69442" fill="#605F5F"/>
<circle id="Ellipse 125" cx="119.429" cy="49.9727" r="2.69442" fill="#605F5F"/>
<circle id="Ellipse 147" cx="119.429" cy="64.9415" r="2.69442" fill="#605F5F"/>
<circle id="Ellipse 169" cx="119.429" cy="79.3116" r="2.69442" fill="#605F5F"/>
<circle id="Ellipse 191" cx="119.429" cy="93.682" r="2.69442" fill="#605F5F"/>
<circle id="Ellipse 213" cx="119.429" cy="108.651" r="2.69442" fill="#605F5F"/>
<circle id="Ellipse 235" cx="119.429" cy="123.022" r="2.69442" fill="#605F5F"/>
<circle id="Ellipse 257" cx="119.429" cy="137.392" r="2.69442" fill="#605F5F"/>
<circle id="Ellipse 279" cx="119.429" cy="152.361" r="2.69442" fill="#605F5F"/>
<circle id="Ellipse 301" cx="119.429" cy="166.731" r="2.69442" fill="#605F5F"/>
<circle id="Ellipse 60" cx="129.608" cy="6.26278" r="2.69442" fill="#605F5F"/>
<circle id="Ellipse 82" cx="129.608" cy="21.2315" r="2.69442" fill="#605F5F"/>
<circle id="Ellipse 104" cx="129.608" cy="35.6026" r="2.69442" fill="#605F5F"/>
<circle id="Ellipse 126" cx="129.608" cy="49.9718" r="2.69442" fill="#605F5F"/>
<circle id="Ellipse 148" cx="129.608" cy="64.9415" r="2.69442" fill="#605F5F"/>
<circle id="Ellipse 170" cx="129.608" cy="79.3116" r="2.69442" fill="#605F5F"/>
<circle id="Ellipse 192" cx="129.608" cy="93.6817" r="2.69442" fill="#605F5F"/>
<circle id="Ellipse 214" cx="129.608" cy="108.651" r="2.69442" fill="#605F5F"/>
<circle id="Ellipse 236" cx="129.608" cy="123.022" r="2.69442" fill="#605F5F"/>
<circle id="Ellipse 258" cx="129.608" cy="137.392" r="2.69442" fill="#605F5F"/>
<circle id="Ellipse 280" cx="129.608" cy="152.361" r="2.69442" fill="#605F5F"/>
<circle id="Ellipse 302" cx="129.608" cy="166.731" r="2.69442" fill="#605F5F"/>
<circle id="Ellipse 61" cx="140.385" cy="6.26278" r="2.69442" fill="#605F5F"/>
<circle id="Ellipse 83" cx="140.385" cy="21.2315" r="2.69442" fill="#605F5F"/>
<circle id="Ellipse 105" cx="140.385" cy="35.6026" r="2.69442" fill="#605F5F"/>
<circle id="Ellipse 127" cx="140.385" cy="49.9718" r="2.69442" fill="#605F5F"/>
<circle id="Ellipse 149" cx="140.385" cy="64.9415" r="2.69442" fill="#605F5F"/>
<circle id="Ellipse 171" cx="140.385" cy="79.3116" r="2.69442" fill="#605F5F"/>
<circle id="Ellipse 193" cx="140.385" cy="93.6817" r="2.69442" fill="#605F5F"/>
<circle id="Ellipse 215" cx="140.385" cy="108.651" r="2.69442" fill="#605F5F"/>
<circle id="Ellipse 237" cx="140.385" cy="123.022" r="2.69442" fill="#605F5F"/>
<circle id="Ellipse 259" cx="140.385" cy="137.392" r="2.69442" fill="#605F5F"/>
<circle id="Ellipse 281" cx="140.385" cy="152.361" r="2.69442" fill="#605F5F"/>
<circle id="Ellipse 303" cx="140.385" cy="166.731" r="2.69442" fill="#605F5F"/>
<circle id="Ellipse 62" cx="150.566" cy="6.26278" r="2.69442" fill="#605F5F"/>
<circle id="Ellipse 84" cx="150.566" cy="21.2315" r="2.69442" fill="#605F5F"/>
<circle id="Ellipse 106" cx="150.566" cy="35.6026" r="2.69442" fill="#605F5F"/>
<circle id="Ellipse 128" cx="150.566" cy="49.9718" r="2.69442" fill="#605F5F"/>
<circle id="Ellipse 150" cx="150.566" cy="64.9415" r="2.69442" fill="#605F5F"/>
<circle id="Ellipse 172" cx="150.566" cy="79.3116" r="2.69442" fill="#605F5F"/>
<circle id="Ellipse 194" cx="150.566" cy="93.6817" r="2.69442" fill="#605F5F"/>
<circle id="Ellipse 216" cx="150.566" cy="108.651" r="2.69442" fill="#605F5F"/>
<circle id="Ellipse 238" cx="150.566" cy="123.022" r="2.69442" fill="#605F5F"/>
<circle id="Ellipse 260" cx="150.566" cy="137.392" r="2.69442" fill="#605F5F"/>
<circle id="Ellipse 282" cx="150.566" cy="152.361" r="2.69442" fill="#605F5F"/>
<circle id="Ellipse 304" cx="150.566" cy="166.731" r="2.69442" fill="#605F5F"/>
<circle id="Ellipse 63" cx="161.343" cy="6.26278" r="2.69442" fill="#605F5F"/>
<circle id="Ellipse 85" cx="161.343" cy="21.2315" r="2.69442" fill="#605F5F"/>
<circle id="Ellipse 107" cx="161.343" cy="35.6026" r="2.69442" fill="#605F5F"/>
<circle id="Ellipse 129" cx="161.343" cy="49.9718" r="2.69442" fill="#605F5F"/>
<circle id="Ellipse 151" cx="161.343" cy="64.9415" r="2.69442" fill="#605F5F"/>
<circle id="Ellipse 173" cx="161.343" cy="79.3116" r="2.69442" fill="#605F5F"/>
<circle id="Ellipse 195" cx="161.343" cy="93.6817" r="2.69442" fill="#605F5F"/>
<circle id="Ellipse 217" cx="161.343" cy="108.651" r="2.69442" fill="#605F5F"/>
<circle id="Ellipse 239" cx="161.343" cy="123.022" r="2.69442" fill="#605F5F"/>
<circle id="Ellipse 261" cx="161.343" cy="137.392" r="2.69442" fill="#605F5F"/>
<circle id="Ellipse 283" cx="161.343" cy="152.361" r="2.69442" fill="#605F5F"/>
<circle id="Ellipse 305" cx="161.343" cy="166.731" r="2.69442" fill="#605F5F"/>
<circle id="Ellipse 64" cx="171.52" cy="6.26278" r="2.69442" fill="#605F5F"/>
<circle id="Ellipse 86" cx="171.52" cy="21.2315" r="2.69442" fill="#605F5F"/>
<circle id="Ellipse 108" cx="171.521" cy="35.6016" r="2.69442" fill="#605F5F"/>
<circle id="Ellipse 130" cx="171.521" cy="49.9727" r="2.69442" fill="#605F5F"/>
<circle id="Ellipse 152" cx="171.52" cy="64.9415" r="2.69442" fill="#605F5F"/>
<circle id="Ellipse 174" cx="171.521" cy="79.3116" r="2.69442" fill="#605F5F"/>
<circle id="Ellipse 196" cx="171.52" cy="93.682" r="2.69442" fill="#605F5F"/>
<circle id="Ellipse 218" cx="171.52" cy="108.651" r="2.69442" fill="#605F5F"/>
<circle id="Ellipse 240" cx="171.52" cy="123.022" r="2.69442" fill="#605F5F"/>
<circle id="Ellipse 262" cx="171.521" cy="137.392" r="2.69442" fill="#605F5F"/>
<circle id="Ellipse 284" cx="171.52" cy="152.361" r="2.69442" fill="#605F5F"/>
<circle id="Ellipse 306" cx="171.52" cy="166.731" r="2.69442" fill="#605F5F"/>
</g>
</g>
</svg>
