<svg width="28" height="28" viewBox="0 0 28 28" fill="none" xmlns="http://www.w3.org/2000/svg">
<path d="M21.5 11.875C21.5 6.55926 17.1907 2.25 11.875 2.25C6.55926 2.25 2.25 6.55926 2.25 11.875C2.25 17.1907 6.55926 21.5 11.875 21.5C14.5331 21.5 16.9378 20.4235 18.6807 18.6807C20.4235 16.9378 21.5 14.5331 21.5 11.875ZM23.5 11.875C23.5 14.7247 22.4711 17.334 20.7695 19.3555L27.457 26.043C27.8476 26.4335 27.8476 27.0665 27.457 27.457C27.0665 27.8476 26.4335 27.8476 26.043 27.457L19.3555 20.7695C17.334 22.4711 14.7247 23.5 11.875 23.5C5.45469 23.5 0.25 18.2953 0.25 11.875C0.25 5.45469 5.45469 0.25 11.875 0.25C18.2953 0.25 23.5 5.45469 23.5 11.875Z" fill="white"/>
</svg>
