<svg width="27" height="30" viewBox="0 0 27 30" fill="none" xmlns="http://www.w3.org/2000/svg">
<path d="M5.33337 1.33337L1.33337 6.66671V25.3334C1.33337 26.0406 1.61433 26.7189 2.11442 27.219C2.61452 27.7191 3.2928 28 4.00004 28H22.6667C23.374 28 24.0522 27.7191 24.5523 27.219C25.0524 26.7189 25.3334 26.0406 25.3334 25.3334V6.66671L21.3334 1.33337H5.33337Z" stroke="black" stroke-width="2.66667" stroke-linecap="round" stroke-linejoin="round"/>
<path d="M18.6667 12C18.6667 13.4145 18.1048 14.771 17.1046 15.7712C16.1044 16.7714 14.7478 17.3333 13.3333 17.3333C11.9188 17.3333 10.5623 16.7714 9.5621 15.7712C8.5619 14.771 8 13.4145 8 12" stroke="black" stroke-width="2.66667" stroke-linecap="round" stroke-linejoin="round"/>
<path d="M1.33337 6.66663H25.3334" stroke="black" stroke-width="2.66667" stroke-linecap="round" stroke-linejoin="round"/>
</svg>
