<svg width="34" height="29" viewBox="0 0 34 29" fill="none" xmlns="http://www.w3.org/2000/svg">
<path d="M26.0681 26.7727C28.0137 26.7727 29.5909 25.1956 29.5909 23.25C29.5909 21.3045 28.0137 19.7273 26.0681 19.7273C24.1226 19.7273 22.5454 21.3045 22.5454 23.25C22.5454 25.1956 24.1226 26.7727 26.0681 26.7727Z" stroke="black" stroke-width="2.81818" stroke-linecap="round" stroke-linejoin="round"/>
<path d="M7.75002 26.7727C9.69557 26.7727 11.2727 25.1956 11.2727 23.25C11.2727 21.3045 9.69557 19.7273 7.75002 19.7273C5.80447 19.7273 4.22729 21.3045 4.22729 23.25C4.22729 25.1956 5.80447 26.7727 7.75002 26.7727Z" stroke="black" stroke-width="2.81818" stroke-linecap="round" stroke-linejoin="round"/>
<path d="M22.5454 8.45447H28.1818L32.409 12.6817V19.7272H22.5454V8.45447Z" stroke="black" stroke-width="2.81818" stroke-linecap="round" stroke-linejoin="round"/>
<path d="M22.5454 1.40906H1.40906V19.7272H22.5454V1.40906Z" stroke="black" stroke-width="2.81818" stroke-linecap="round" stroke-linejoin="round"/>
</svg>
