<svg width="20" height="20" viewBox="0 0 20 20" fill="none" xmlns="http://www.w3.org/2000/svg">
<g clip-path="url(#clip0_106_3464)">
<path d="M12.1133 18.0717C12.145 18.1506 12.2 18.2179 12.2711 18.2646C12.3421 18.3114 12.4257 18.3352 12.5107 18.3331C12.5957 18.3309 12.678 18.3028 12.7465 18.2525C12.8151 18.2022 12.8666 18.1321 12.8942 18.0517L18.3108 2.21836C18.3375 2.14452 18.3426 2.06461 18.3255 1.98799C18.3084 1.91136 18.2699 1.84119 18.2144 1.78567C18.1588 1.73016 18.0887 1.69161 18.012 1.67452C17.9354 1.65743 17.8555 1.66252 17.7817 1.68919L1.94833 7.10586C1.86791 7.13344 1.79785 7.18496 1.74756 7.2535C1.69727 7.32205 1.66914 7.40434 1.66697 7.48933C1.66479 7.57431 1.68866 7.65794 1.73538 7.72897C1.7821 7.79999 1.84943 7.85503 1.92833 7.88669L8.53667 10.5367C8.74557 10.6203 8.93538 10.7454 9.09464 10.9044C9.2539 11.0634 9.37932 11.2529 9.46333 11.4617L12.1133 18.0717Z" stroke="black" stroke-width="1.66667" stroke-linecap="round" stroke-linejoin="round"/>
<path d="M18.2117 1.78918L9.095 10.905" stroke="black" stroke-width="1.66667" stroke-linecap="round" stroke-linejoin="round"/>
</g>
<defs>
<clipPath id="clip0_106_3464">
<rect width="20" height="20" fill="white"/>
</clipPath>
</defs>
</svg>
