<svg width="32" height="32" viewBox="0 0 32 32" fill="none" xmlns="http://www.w3.org/2000/svg">
<path d="M8 29.3334V5.33335C8 4.62611 8.28095 3.94783 8.78105 3.44774C9.28115 2.94764 9.95942 2.66669 10.6667 2.66669H21.3333C22.0406 2.66669 22.7189 2.94764 23.219 3.44774C23.719 3.94783 24 4.62611 24 5.33335V29.3334H8Z" stroke="#FFB900" stroke-width="2" stroke-linecap="round" stroke-linejoin="round"/>
<path d="M7.99999 16H5.33332C4.62608 16 3.9478 16.281 3.4477 16.781C2.94761 17.2811 2.66666 17.9594 2.66666 18.6667V26.6667C2.66666 27.3739 2.94761 28.0522 3.4477 28.5523C3.9478 29.0524 4.62608 29.3333 5.33332 29.3333H7.99999" stroke="#FFB900" stroke-width="2" stroke-linecap="round" stroke-linejoin="round"/>
<path d="M24 12H26.6667C27.3739 12 28.0522 12.281 28.5523 12.781C29.0524 13.2811 29.3333 13.9594 29.3333 14.6667V26.6667C29.3333 27.3739 29.0524 28.0522 28.5523 28.5523C28.0522 29.0524 27.3739 29.3333 26.6667 29.3333H24" stroke="#FFB900" stroke-width="2" stroke-linecap="round" stroke-linejoin="round"/>
<path d="M13.3333 8H18.6667" stroke="#FFB900" stroke-width="2" stroke-linecap="round" stroke-linejoin="round"/>
<path d="M13.3333 13.3333H18.6667" stroke="#FFB900" stroke-width="2" stroke-linecap="round" stroke-linejoin="round"/>
<path d="M13.3333 18.6667H18.6667" stroke="#FFB900" stroke-width="2" stroke-linecap="round" stroke-linejoin="round"/>
<path d="M13.3333 24H18.6667" stroke="#FFB900" stroke-width="2" stroke-linecap="round" stroke-linejoin="round"/>
</svg>
