<svg width="32" height="32" viewBox="0 0 32 32" fill="none" xmlns="http://www.w3.org/2000/svg">
<path d="M18 9.33333C18.3682 9.33333 18.6667 9.03486 18.6667 8.66667C18.6667 8.29848 18.3682 8 18 8C17.6318 8 17.3333 8.29848 17.3333 8.66667C17.3333 9.03486 17.6318 9.33333 18 9.33333Z" fill="#FFB900" stroke="#FFB900" stroke-width="1.33333" stroke-linecap="round" stroke-linejoin="round"/>
<path d="M23.3333 14.6666C23.7015 14.6666 24 14.3682 24 14C24 13.6318 23.7015 13.3333 23.3333 13.3333C22.9651 13.3333 22.6667 13.6318 22.6667 14C22.6667 14.3682 22.9651 14.6666 23.3333 14.6666Z" fill="#FFB900" stroke="#FFB900" stroke-width="1.33333" stroke-linecap="round" stroke-linejoin="round"/>
<path d="M11.3333 10.6666C11.7015 10.6666 12 10.3682 12 9.99998C12 9.63179 11.7015 9.33331 11.3333 9.33331C10.9651 9.33331 10.6667 9.63179 10.6667 9.99998C10.6667 10.3682 10.9651 10.6666 11.3333 10.6666Z" fill="#FFB900" stroke="#FFB900" stroke-width="1.33333" stroke-linecap="round" stroke-linejoin="round"/>
<path d="M8.66667 17.3333C9.03486 17.3333 9.33333 17.0349 9.33333 16.6667C9.33333 16.2985 9.03486 16 8.66667 16C8.29848 16 8 16.2985 8 16.6667C8 17.0349 8.29848 17.3333 8.66667 17.3333Z" fill="#FFB900" stroke="#FFB900" stroke-width="1.33333" stroke-linecap="round" stroke-linejoin="round"/>
<path d="M16 2.66669C8.66667 2.66669 2.66667 8.66669 2.66667 16C2.66667 23.3334 8.66667 29.3334 16 29.3334C17.2347 29.3334 18.1973 28.3387 18.1973 27.0827C18.1973 26.5 17.9573 25.9694 17.6147 25.5827C17.228 25.1974 17.0307 24.7134 17.0307 24.0827C17.0256 23.7892 17.0797 23.4978 17.1897 23.2257C17.2996 22.9535 17.4633 22.7064 17.6708 22.4988C17.8783 22.2913 18.1255 22.1277 18.3976 22.0177C18.6698 21.9077 18.9612 21.8536 19.2547 21.8587H21.916C25.984 21.8587 29.3227 18.5214 29.3227 14.4534C29.2867 8.01602 23.2813 2.66669 16 2.66669Z" stroke="#FFB900" stroke-width="1.33333" stroke-linecap="round" stroke-linejoin="round"/>
</svg>
