<svg width="64" height="64" viewBox="0 0 64 64" fill="none" xmlns="http://www.w3.org/2000/svg">
<path d="M42.6666 56V50.6667C42.6666 47.8377 41.5428 45.1246 39.5425 43.1242C37.5421 41.1238 34.829 40 32 40H16C13.171 40 10.4579 41.1238 8.45751 43.1242C6.45712 45.1246 5.33331 47.8377 5.33331 50.6667V56" stroke="#FFB900" stroke-width="5.33333" stroke-linecap="round" stroke-linejoin="round"/>
<path d="M24 29.3333C29.891 29.3333 34.6666 24.5577 34.6666 18.6667C34.6666 12.7756 29.891 8 24 8C18.1089 8 13.3333 12.7756 13.3333 18.6667C13.3333 24.5577 18.1089 29.3333 24 29.3333Z" stroke="#FFB900" stroke-width="5.33333" stroke-linecap="round" stroke-linejoin="round"/>
<path d="M58.6667 56V50.6667C58.6649 48.3033 57.8783 46.0074 56.4303 44.1395C54.9824 42.2716 52.955 40.9375 50.6667 40.3467" stroke="#FFB900" stroke-width="5.33333" stroke-linecap="round" stroke-linejoin="round"/>
<path d="M42.6667 8.34668C44.9611 8.93415 46.9948 10.2685 48.4471 12.1395C49.8993 14.0105 50.6876 16.3116 50.6876 18.68C50.6876 21.0485 49.8993 23.3496 48.4471 25.2205C46.9948 27.0915 44.9611 28.4259 42.6667 29.0133" stroke="#FFB900" stroke-width="5.33333" stroke-linecap="round" stroke-linejoin="round"/>
</svg>
