<svg width="40" height="38" viewBox="0 0 40 38" fill="none" xmlns="http://www.w3.org/2000/svg">
<path d="M7.50002 26.125C5.00002 28.12 4.16669 34.0417 4.16669 34.0417C4.16669 34.0417 10.4 33.25 12.5 30.875C13.6834 29.545 13.6667 27.5025 12.35 26.2675C11.7022 25.6801 10.8488 25.3407 9.95373 25.3144C9.05862 25.2881 8.18481 25.5768 7.50002 26.125Z" stroke="#FFB900" stroke-width="1.33333" stroke-linecap="round" stroke-linejoin="round"/>
<path d="M20 23.75L15 19C15.8869 16.8141 17.0037 14.7188 18.3333 12.7458C20.2753 9.79605 22.9794 7.36731 26.1883 5.69063C29.3973 4.01395 33.0044 3.14507 36.6667 3.16665C36.6667 7.47332 35.3667 15.0417 26.6667 20.5833C24.5615 21.848 22.3281 22.9088 20 23.75Z" stroke="#FFB900" stroke-width="1.33333" stroke-linecap="round" stroke-linejoin="round"/>
<path d="M15 19H6.66669C6.66669 19 7.58335 14.2025 10 12.6667C12.7 10.9567 18.3334 12.6667 18.3334 12.6667" stroke="#FFB900" stroke-width="1.33333" stroke-linecap="round" stroke-linejoin="round"/>
<path d="M20 23.75V31.6666C20 31.6666 25.05 30.7958 26.6667 28.5C28.4667 25.935 26.6667 20.5833 26.6667 20.5833" stroke="#FFB900" stroke-width="1.33333" stroke-linecap="round" stroke-linejoin="round"/>
</svg>
