<svg width="70" height="13" viewBox="0 0 70 13" fill="none" xmlns="http://www.w3.org/2000/svg">
<path d="M34.8242 0.5C34.8331 0.5 34.8401 0.50302 34.8457 0.503906L34.8467 0.505859L36.4912 4.39746L36.6084 4.6748L36.9082 4.70117L41.0918 5.06641C41.1098 5.06988 41.121 5.07295 41.127 5.0752C41.1294 5.07766 41.1317 5.08207 41.1357 5.08789L41.126 5.09766L37.9307 7.86719L37.7031 8.06543L37.7715 8.35938L38.7383 12.4697L38.7402 12.4785C38.7245 12.4873 38.7136 12.4913 38.7051 12.4932C38.7004 12.4915 38.6943 12.4889 38.6865 12.4854L35.083 10.3096L34.8242 10.1543L34.5664 10.3096L30.9639 12.4844C30.9556 12.4882 30.9492 12.4905 30.9443 12.4922C30.9348 12.4899 30.9233 12.4863 30.9082 12.4785L30.9111 12.4697L31.877 8.35938L31.9463 8.06543L31.7178 7.86719L28.5234 5.09766L28.5146 5.08887C28.5183 5.08345 28.5204 5.07863 28.5234 5.0752C28.5301 5.0728 28.5408 5.06968 28.5566 5.06641L32.7412 4.70117L33.041 4.6748L33.1582 4.39746L34.8018 0.505859V0.503906C34.8074 0.502877 34.8144 0.500019 34.8242 0.5Z" fill="#FFB900" stroke="#FFB900"/>
<path d="M20.8242 0.5C20.8331 0.5 20.8401 0.50302 20.8457 0.503906L20.8467 0.505859L22.4912 4.39746L22.6084 4.6748L22.9082 4.70117L27.0918 5.06641C27.1098 5.06988 27.121 5.07295 27.127 5.0752C27.1294 5.07766 27.1317 5.08207 27.1357 5.08789L27.126 5.09766L23.9307 7.86719L23.7031 8.06543L23.7715 8.35938L24.7383 12.4697L24.7402 12.4785C24.7245 12.4873 24.7136 12.4913 24.7051 12.4932C24.7004 12.4915 24.6943 12.4889 24.6865 12.4854L21.083 10.3096L20.8242 10.1543L20.5664 10.3096L16.9639 12.4844C16.9556 12.4882 16.9492 12.4905 16.9443 12.4922C16.9348 12.4899 16.9233 12.4863 16.9082 12.4785L16.9111 12.4697L17.877 8.35938L17.9463 8.06543L17.7178 7.86719L14.5234 5.09766L14.5146 5.08887C14.5183 5.08345 14.5204 5.07863 14.5234 5.0752C14.5301 5.0728 14.5408 5.06968 14.5566 5.06641L18.7412 4.70117L19.041 4.6748L19.1582 4.39746L20.8018 0.505859V0.503906C20.8074 0.502877 20.8144 0.500019 20.8242 0.5Z" fill="#FFB900" stroke="#FFB900"/>
<path d="M6.82422 0.5C6.83306 0.5 6.84008 0.50302 6.8457 0.503906L6.84668 0.505859L8.49121 4.39746L8.6084 4.6748L8.9082 4.70117L13.0918 5.06641C13.1098 5.06988 13.121 5.07295 13.127 5.0752C13.1294 5.07766 13.1317 5.08207 13.1357 5.08789L13.126 5.09766L9.93066 7.86719L9.70312 8.06543L9.77148 8.35938L10.7383 12.4697L10.7402 12.4785C10.7245 12.4873 10.7136 12.4913 10.7051 12.4932C10.7004 12.4915 10.6943 12.4889 10.6865 12.4854L7.08301 10.3096L6.82422 10.1543L6.56641 10.3096L2.96387 12.4844C2.9556 12.4882 2.94918 12.4905 2.94434 12.4922C2.93482 12.4899 2.92327 12.4863 2.9082 12.4785L2.91113 12.4697L3.87695 8.35938L3.94629 8.06543L3.71777 7.86719L0.523438 5.09766L0.514648 5.08887C0.518264 5.08345 0.520449 5.07863 0.523438 5.0752C0.530083 5.0728 0.540755 5.06968 0.556641 5.06641L4.74121 4.70117L5.04102 4.6748L5.1582 4.39746L6.80176 0.505859V0.503906C6.80738 0.502877 6.81439 0.500019 6.82422 0.5Z" fill="#FFB900" stroke="#FFB900"/>
<path d="M48.8242 0.5C48.8331 0.5 48.8401 0.50302 48.8457 0.503906L48.8467 0.505859L50.4912 4.39746L50.6084 4.6748L50.9082 4.70117L55.0918 5.06641C55.1098 5.06988 55.121 5.07295 55.127 5.0752C55.1294 5.07766 55.1317 5.08207 55.1357 5.08789L55.126 5.09766L51.9307 7.86719L51.7031 8.06543L51.7715 8.35938L52.7383 12.4697L52.7402 12.4785C52.7245 12.4873 52.7136 12.4913 52.7051 12.4932C52.7004 12.4915 52.6943 12.4889 52.6865 12.4854L49.083 10.3096L48.8242 10.1543L48.5664 10.3096L44.9639 12.4844C44.9556 12.4882 44.9492 12.4905 44.9443 12.4922C44.9348 12.4899 44.9233 12.4863 44.9082 12.4785L44.9111 12.4697L45.877 8.35938L45.9463 8.06543L45.7178 7.86719L42.5234 5.09766L42.5146 5.08887C42.5183 5.08345 42.5204 5.07863 42.5234 5.0752C42.5301 5.0728 42.5408 5.06968 42.5566 5.06641L46.7412 4.70117L47.041 4.6748L47.1582 4.39746L48.8018 0.505859V0.503906C48.8074 0.502877 48.8144 0.500019 48.8242 0.5Z" fill="#FFB900" stroke="#FFB900"/>
<path d="M62.8242 0.5C62.8331 0.5 62.8401 0.50302 62.8457 0.503906L62.8467 0.505859L64.4912 4.39746L64.6084 4.6748L64.9082 4.70117L69.0918 5.06641C69.1098 5.06988 69.121 5.07295 69.127 5.0752C69.1294 5.07766 69.1317 5.08207 69.1357 5.08789L69.126 5.09766L65.9307 7.86719L65.7031 8.06543L65.7715 8.35938L66.7383 12.4697L66.7402 12.4785C66.7245 12.4873 66.7136 12.4913 66.7051 12.4932C66.7004 12.4915 66.6943 12.4889 66.6865 12.4854L63.083 10.3096L62.8242 10.1543L62.5664 10.3096L58.9639 12.4844C58.9556 12.4882 58.9492 12.4905 58.9443 12.4922C58.9348 12.4899 58.9233 12.4863 58.9082 12.4785L58.9111 12.4697L59.877 8.35938L59.9463 8.06543L59.7178 7.86719L56.5234 5.09766L56.5146 5.08887C56.5183 5.08345 56.5204 5.07863 56.5234 5.0752C56.5301 5.0728 56.5408 5.06968 56.5566 5.06641L60.7412 4.70117L61.041 4.6748L61.1582 4.39746L62.8018 0.505859V0.503906C62.8074 0.502877 62.8144 0.500019 62.8242 0.5Z" fill="#FFB900" stroke="#FFB900"/>
</svg>
