<svg aria-hidden="true" style="position: absolute; width: 0; height: 0; overflow: hidden;" version="1.1" xmlns="http://www.w3.org/2000/svg" xmlns:xlink="http://www.w3.org/1999/xlink">
<defs>
<symbol id="icon-arrow-1" viewBox="0 0 32 32">
<path fill="none" stroke="currentColor" style="stroke: var(--color1, #99a1af)" stroke-linejoin="round" stroke-linecap="round" stroke-miterlimit="4" stroke-width="1.1594" d="M11.15 20.332l9.182-9.182"></path>
<path fill="none" stroke="currentColor" style="stroke: var(--color1, #99a1af)" stroke-linejoin="round" stroke-linecap="round" stroke-miterlimit="4" stroke-width="1.1594" d="M11.15 11.15h9.182v9.182"></path>
</symbol>
<symbol id="icon-arrow-2" viewBox="0 0 32 32">
<path fill="none" stroke="currentColor" stroke-linejoin="round" stroke-linecap="round" stroke-miterlimit="4" stroke-width="2.6667" d="M6.667 16h18.667"></path>
<path fill="none" stroke="currentColor" stroke-linejoin="round" stroke-linecap="round" stroke-miterlimit="4" stroke-width="2.6667" d="M16 6.667l9.333 9.333-9.333 9.333"></path>
</symbol>
<symbol id="icon-check" viewBox="0 0 32 32">
<path fill="#fff" style="currentColor" d="M10.913 26.462l-10.913-10.793 2.728-2.698 8.185 8.095 17.566-17.373 2.728 2.698-20.294 20.071z"></path>
</symbol>
<symbol id="icon-close" viewBox="0 0 32 32">
<path fill="currentColor" d="M20.865 10.526c0.168-0.168 0.441-0.168 0.609 0s0.168 0.441 0 0.609l-10.339 10.339c-0.168 0.168-0.441 0.168-0.609 0s-0.168-0.441 0-0.609l10.339-10.339z"></path>
<path fill="currentColor" d="M11.135 10.526c-0.168-0.168-0.441-0.168-0.609 0s-0.168 0.441 0 0.609l10.339 10.339c0.168 0.168 0.441 0.168 0.609 0s0.168-0.441 0-0.609l-10.339-10.339z"></path>
</symbol>
<symbol id="icon-github" viewBox="0 0 32 32">
<path fill="none" stroke="currentColor" stroke-linejoin="round" stroke-linecap="round" stroke-miterlimit="4" stroke-width="2.4" d="M20 29.333v-5.333c0.185-1.67-0.293-3.347-1.333-4.667 4 0 8-2.667 8-7.333 0.107-1.667-0.36-3.307-1.333-4.667 0.373-1.533 0.373-3.133 0-4.667 0 0-1.333 0-4 2-3.52-0.667-7.147-0.667-10.667 0-2.667-2-4-2-4-2-0.4 1.533-0.4 3.133 0 4.667-0.971 1.354-1.442 3.004-1.333 4.667 0 4.667 4 7.333 8 7.333-0.52 0.653-0.907 1.4-1.133 2.2s-0.293 1.64-0.2 2.467v5.333"></path>
<path fill="none" stroke="currentColor" stroke-linejoin="round" stroke-linecap="round" stroke-miterlimit="4" stroke-width="2.4" d="M12 24c-6.013 2.667-6.667-2.667-9.333-2.667"></path>
</symbol>
<symbol id="icon-instagram" viewBox="0 0 32 32">
<path fill="none" stroke="currentColor" stroke-linejoin="round" stroke-linecap="round" stroke-miterlimit="4" stroke-width="2.4" d="M22.667 2.667h-13.333c-3.682 0-6.667 2.985-6.667 6.667v13.333c0 3.682 2.985 6.667 6.667 6.667h13.333c3.682 0 6.667-2.985 6.667-6.667v-13.333c0-3.682-2.985-6.667-6.667-6.667z"></path>
<path fill="none" stroke="currentColor" stroke-linejoin="round" stroke-linecap="round" stroke-miterlimit="4" stroke-width="2.4" d="M21.333 15.16c0.165 1.11-0.025 2.243-0.542 3.239s-1.334 1.803-2.336 2.308c-1.002 0.504-2.138 0.68-3.245 0.502s-2.131-0.701-2.924-1.494c-0.793-0.793-1.316-1.816-1.494-2.924s-0.003-2.243 0.502-3.245c0.504-1.002 1.312-1.82 2.308-2.336s2.129-0.706 3.239-0.542c1.132 0.168 2.18 0.695 2.989 1.504s1.336 1.857 1.504 2.989z"></path>
<path fill="none" stroke="currentColor" stroke-linejoin="round" stroke-linecap="round" stroke-miterlimit="4" stroke-width="2.4" d="M23.333 8.667h0.012"></path>
</symbol>
<symbol id="icon-linkedin" viewBox="0 0 32 32">
<path fill="none" stroke="currentColor" stroke-linejoin="round" stroke-linecap="round" stroke-miterlimit="4" stroke-width="2.4" d="M21.333 10.667c2.122 0 4.157 0.843 5.657 2.343s2.343 3.535 2.343 5.657v9.333h-5.333v-9.333c0-0.707-0.281-1.386-0.781-1.886s-1.178-0.781-1.886-0.781c-0.707 0-1.385 0.281-1.886 0.781s-0.781 1.178-0.781 1.886v9.333h-5.333v-9.333c0-2.122 0.843-4.157 2.343-5.657s3.535-2.343 5.657-2.343z"></path>
<path fill="none" stroke="currentColor" stroke-linejoin="round" stroke-linecap="round" stroke-miterlimit="4" stroke-width="2.4" d="M8 12h-5.333v16h5.333v-16z"></path>
<path fill="none" stroke="currentColor" stroke-linejoin="round" stroke-linecap="round" stroke-miterlimit="4" stroke-width="2.4" d="M5.333 8c1.473 0 2.667-1.194 2.667-2.667s-1.194-2.667-2.667-2.667c-1.473 0-2.667 1.194-2.667 2.667s1.194 2.667 2.667 2.667z"></path>
</symbol>
<symbol id="icon-location" viewBox="0 0 32 32">
<path fill="none" stroke="currentColor" stroke-linejoin="round" stroke-linecap="round" stroke-miterlimit="4" stroke-width="2.4" d="M26.667 13.333c0 6.657-7.385 13.591-9.865 15.732-0.231 0.174-0.512 0.268-0.801 0.268s-0.57-0.094-0.801-0.268c-2.48-2.141-9.865-9.075-9.865-15.732 0-2.829 1.124-5.542 3.124-7.542s4.713-3.124 7.542-3.124c2.829 0 5.542 1.124 7.542 3.124s3.124 4.713 3.124 7.542z"></path>
<path fill="none" stroke="currentColor" stroke-linejoin="round" stroke-linecap="round" stroke-miterlimit="4" stroke-width="2.4" d="M16 17.333c2.209 0 4-1.791 4-4s-1.791-4-4-4c-2.209 0-4 1.791-4 4s1.791 4 4 4z"></path>
</symbol>
<symbol id="icon-mail" viewBox="0 0 32 32">
<path fill="none" stroke="currentColor" stroke-linejoin="round" stroke-linecap="round" stroke-miterlimit="4" stroke-width="2.4" d="M26.667 5.333h-21.333c-1.473 0-2.667 1.194-2.667 2.667v16c0 1.473 1.194 2.667 2.667 2.667h21.333c1.473 0 2.667-1.194 2.667-2.667v-16c0-1.473-1.194-2.667-2.667-2.667z"></path>
<path fill="none" stroke="currentColor" stroke-linejoin="round" stroke-linecap="round" stroke-miterlimit="4" stroke-width="2.4" d="M29.333 9.333l-11.96 7.6c-0.412 0.258-0.888 0.395-1.373 0.395s-0.962-0.137-1.373-0.395l-11.96-7.6"></path>
</symbol>
<symbol id="icon-phone" viewBox="0 0 32 32">
<path fill="none" stroke="currentColor" stroke-linejoin="round" stroke-linecap="round" stroke-miterlimit="4" stroke-width="2.4" d="M29.333 22.56v4c0.002 0.371-0.075 0.739-0.223 1.079s-0.367 0.646-0.64 0.897-0.597 0.442-0.948 0.561c-0.352 0.119-0.724 0.163-1.094 0.13-4.103-0.446-8.044-1.848-11.507-4.093-3.222-2.047-5.953-4.778-8-8-2.253-3.478-3.656-7.439-4.093-11.56-0.033-0.369 0.010-0.74 0.129-1.091s0.308-0.673 0.558-0.947c0.25-0.273 0.553-0.492 0.892-0.641s0.705-0.227 1.075-0.227h4c0.647-0.006 1.274 0.223 1.765 0.645s0.811 1.008 0.902 1.649c0.169 1.28 0.482 2.537 0.933 3.747 0.179 0.477 0.218 0.996 0.112 1.495s-0.353 0.956-0.712 1.319l-1.693 1.693c1.898 3.338 4.662 6.102 8 8l1.693-1.693c0.363-0.358 0.82-0.605 1.319-0.712s1.017-0.068 1.494 0.112c1.21 0.451 2.467 0.764 3.747 0.933 0.648 0.092 1.239 0.418 1.662 0.917s0.648 1.136 0.631 1.79z"></path>
</symbol>
<symbol id="icon-required" viewBox="0 0 32 32">
<path fill="#ffb900" style="currentColor" d="M14.734 31.49c-0.341-0.341-0.512-0.764-0.512-1.268v-9.956l-7.022 7.067c-0.356 0.356-0.777 0.533-1.266 0.533s-0.911-0.178-1.268-0.533c-0.357-0.356-0.535-0.777-0.533-1.266s0.179-0.911 0.533-1.268l7.067-7.022h-9.956c-0.504 0-0.926-0.171-1.266-0.512s-0.511-0.763-0.512-1.266 0.169-0.924 0.512-1.266c0.343-0.341 0.764-0.512 1.266-0.512h9.956l-7.067-7.022c-0.356-0.356-0.533-0.777-0.533-1.266s0.178-0.911 0.533-1.268c0.356-0.357 0.778-0.535 1.268-0.533s0.911 0.179 1.266 0.533l7.022 7.067v-9.956c0-0.504 0.171-0.926 0.512-1.266s0.763-0.511 1.266-0.512 0.925 0.169 1.268 0.512c0.343 0.343 0.513 0.764 0.51 1.266v9.956l7.022-7.067c0.356-0.356 0.778-0.533 1.268-0.533s0.911 0.178 1.266 0.533c0.354 0.356 0.532 0.778 0.533 1.268s-0.177 0.911-0.533 1.266l-7.067 7.022h9.956c0.504 0 0.926 0.171 1.268 0.512s0.511 0.763 0.51 1.266c-0.001 0.503-0.172 0.925-0.512 1.268s-0.762 0.513-1.266 0.51h-9.956l7.067 7.022c0.356 0.356 0.533 0.778 0.533 1.268s-0.178 0.911-0.533 1.266c-0.356 0.354-0.777 0.532-1.266 0.533s-0.911-0.177-1.268-0.533l-7.022-7.067v9.956c0 0.504-0.171 0.926-0.512 1.268s-0.763 0.511-1.266 0.51c-0.503-0.001-0.924-0.17-1.266-0.51z"></path>
</symbol>
</defs>
</svg>
