<svg width="29" height="28" viewBox="0 0 29 28" fill="none" xmlns="http://www.w3.org/2000/svg">
<path d="M28.2101 0.302309C28.7821 0.680547 29.0823 1.33436 28.9747 1.98817L25.3497 24.4663C25.2648 24.9905 24.9306 25.4497 24.4435 25.7091C23.9564 25.9685 23.373 26.0009 22.8575 25.7956L15.7038 22.9588L13.4325 26.9843C13.138 27.5084 12.5093 27.7732 11.9032 27.6273C11.2972 27.4814 10.8724 26.9627 10.8724 26.3683V21.1811C10.8724 20.8947 10.9743 20.6137 11.1612 20.3868L20.5239 8.89912C20.6655 8.51548 20.1558 8.12644 19.7876 8.44524L9.64893 17.1933L7.83643 18.7549C7.31534 19.2034 6.57335 19.3277 5.92198 19.0683L1.10753 17.1555C0.473153 16.9016 0.0426839 16.3288 0.00303547 15.6696C-0.036613 15.0104 0.314559 14.389 0.91495 14.0594L26.29 0.226661C26.896 -0.102946 27.6437 -0.0705259 28.2157 0.302309H28.2101Z" fill="white"/>
</svg>
