<svg width="18" height="20" viewBox="0 0 18 20" fill="none" xmlns="http://www.w3.org/2000/svg">
<path d="M15.8555 4.96729C15.8554 4.46089 15.4449 4.05029 14.9385 4.05029H2.74219C2.23584 4.05037 1.82527 4.46094 1.8252 4.96729V17.1636C1.8252 17.67 2.23579 18.0805 2.74219 18.0806H14.9385C15.445 18.0806 15.8555 17.6701 15.8555 17.1636V4.96729ZM17.5059 17.1636C17.5059 18.5817 16.3566 19.731 14.9385 19.731H2.74219C1.32419 19.7309 0.174805 18.5816 0.174805 17.1636V4.96729C0.174879 3.54933 1.32423 2.39998 2.74219 2.3999H14.9385C16.3565 2.3999 17.5058 3.54929 17.5059 4.96729V17.1636Z" fill="#BB6500"/>
<path d="M16.6807 7.62744C17.1365 7.62744 17.5059 7.99683 17.5059 8.45264C17.5059 8.90844 17.1365 9.27783 16.6807 9.27783H1C0.544193 9.27783 0.174805 8.90844 0.174805 8.45264C0.174805 7.99683 0.544193 7.62744 1 7.62744H16.6807Z" fill="#BB6500"/>
<path d="M11.5 4.96729V1.48291C11.5 1.0271 11.8694 0.657715 12.3252 0.657715C12.781 0.657715 13.1504 1.0271 13.1504 1.48291V4.96729C13.1504 5.42309 12.781 5.79248 12.3252 5.79248C11.8694 5.79248 11.5 5.42309 11.5 4.96729Z" fill="#BB6500"/>
<path d="M4.53064 4.96729V1.48291C4.53064 1.0271 4.90003 0.657715 5.35583 0.657715C5.81164 0.657715 6.18103 1.0271 6.18103 1.48291V4.96729C6.18103 5.42309 5.81164 5.79248 5.35583 5.79248C4.90003 5.79248 4.53064 5.42309 4.53064 4.96729Z" fill="#BB6500"/>
</svg>
