<svg width="20" height="21" viewBox="0 0 20 21" fill="none" xmlns="http://www.w3.org/2000/svg">
<path d="M18.1455 10.2935C18.1455 5.78695 14.4918 2.1334 9.98535 2.1333C5.47879 2.1333 1.8252 5.78689 1.8252 10.2935C1.82529 14.7999 5.47885 18.4536 9.98535 18.4536C14.4918 18.4535 18.1454 14.7999 18.1455 10.2935ZM19.7959 10.2935C19.7958 15.7115 15.4034 20.1039 9.98535 20.104C4.56723 20.104 0.174903 15.7116 0.174805 10.2935C0.174805 4.87528 4.56717 0.48291 9.98535 0.48291C15.4034 0.483009 19.7959 4.87534 19.7959 10.2935Z" fill="#BB6500"/>
<path d="M9.16003 10.2925V4.90186C9.16003 4.44605 9.52942 4.07666 9.98523 4.07666C10.441 4.07666 10.8104 4.44605 10.8104 4.90186V9.95068L14.163 13.3032C14.4852 13.6254 14.485 14.1479 14.163 14.4702C13.8407 14.7925 13.3183 14.7925 12.996 14.4702L9.40125 10.8765L9.98621 10.2925H9.98523L9.40125 10.8765C9.24662 10.7217 9.16003 10.5113 9.16003 10.2925Z" fill="#BB6500"/>
</svg>
