<svg width="10" height="21" viewBox="0 0 10 21" fill="none" xmlns="http://www.w3.org/2000/svg">
<path d="M2.03689 4.23306C2.03689 4.75377 2.05405 7.3013 2.05405 7.3013H0.0177612V10.5652L2.03689 10.5592L2.05405 20.9009H6.12663V10.5652L8.73491 10.5592C8.73491 10.5592 8.93192 9.12589 9.05379 7.3013C8.70386 7.3013 6.12663 7.3013 6.12663 7.3013C6.12663 7.3013 6.0604 5.0411 6.0604 4.68647C6.0604 4.33093 6.49738 3.85249 6.92938 3.85249H9.1132C9.1132 3.37868 9.1132 1.7415 9.1132 0.229492C7.9882 0.229492 6.70845 0.229492 6.14399 0.229492C1.93778 0.229492 2.03689 3.71285 2.03689 4.23306Z" fill="#AF6900"/>
</svg>
