<svg width="28" height="25" viewBox="0 0 28 25" fill="none" xmlns="http://www.w3.org/2000/svg">
<path d="M14.5969 6.00006C14.3798 6.29065 14.0388 6.46198 13.676 6.46198C13.3133 6.46186 12.9721 6.29077 12.7551 6.00006C12.7547 5.99951 12.7538 5.99894 12.7532 5.99811C12.7501 5.99408 12.7445 5.98687 12.7366 5.97662C12.7203 5.95571 12.694 5.92181 12.6584 5.87799C12.5872 5.79026 12.4785 5.66112 12.3372 5.50397C12.0528 5.18791 11.642 4.7675 11.1379 4.34967C10.097 3.48685 8.81597 2.7658 7.51489 2.76569C4.73603 2.76569 2.50317 4.99284 2.50317 7.71588C2.50323 8.90927 2.73582 10.998 4.21509 13.5645C5.69833 16.1377 8.47046 19.2539 13.6467 22.4366C13.6512 22.4393 13.6615 22.4434 13.676 22.4434C13.6906 22.4434 13.7007 22.4394 13.7053 22.4366C18.8818 19.2538 21.6547 16.1378 23.1379 13.5645C24.6172 10.998 24.8498 8.90927 24.8499 7.71588C24.8499 4.99284 22.617 2.76569 19.8381 2.76569C18.537 2.76571 17.2561 3.48679 16.2151 4.34967C15.711 4.76751 15.3002 5.18789 15.0159 5.50397C14.8745 5.66107 14.7658 5.79025 14.6946 5.87799C14.659 5.92181 14.6327 5.95571 14.6165 5.97662C14.6085 5.98683 14.603 5.99404 14.5999 5.99811L14.5969 6.00006ZM27.1497 7.71588C27.1496 9.24242 26.843 11.7411 25.1301 14.713C23.4208 17.6783 20.3475 21.0525 14.9104 24.3956C14.1566 24.8591 13.1965 24.8591 12.4426 24.3956C7.00522 21.0524 3.93119 17.6784 2.22192 14.713C0.509027 11.7411 0.202446 9.24241 0.202393 7.71588C0.202393 3.70085 3.48763 0.464905 7.51489 0.464905C9.61664 0.465015 11.4167 1.59259 12.6057 2.57819C13.0218 2.92306 13.3811 3.2681 13.676 3.57135C13.971 3.26801 14.3311 2.9232 14.7473 2.57819C15.9364 1.59258 17.7364 0.464923 19.8381 0.464905C23.8654 0.464905 27.1497 3.70084 27.1497 7.71588Z" fill="#AF6900"/>
</svg>
