<svg width="19" height="19" viewBox="0 0 19 19" fill="none" xmlns="http://www.w3.org/2000/svg">
<path d="M4.39761 18.5936H0.5271V5.69189H4.39761V18.5936ZM18.5895 18.5936H14.719V11.7015C14.719 9.90558 14.079 9.0115 12.8108 9.0115C11.8058 9.0115 11.1684 9.51208 10.8484 10.5145V18.5936H6.97794C6.97794 18.5936 7.02955 6.98206 6.97794 5.69189H10.0331L10.2692 8.27223H10.3492C11.1426 6.98206 12.4108 6.10733 14.15 6.10733C15.4724 6.10733 16.542 6.47503 17.3586 7.39879C18.1805 8.32384 18.5895 9.56498 18.5895 11.308V18.5936Z" fill="#AF6900"/>
<path d="M2.46222 4.40224C3.56666 4.40224 4.46199 3.5358 4.46199 2.46699C4.46199 1.39818 3.56666 0.531738 2.46222 0.531738C1.35779 0.531738 0.462463 1.39818 0.462463 2.46699C0.462463 3.5358 1.35779 4.40224 2.46222 4.40224Z" fill="#AF6900"/>
</svg>
