<svg width="17" height="21" viewBox="0 0 17 21" fill="none" xmlns="http://www.w3.org/2000/svg">
<path d="M8.22951 0.48291C15.1666 0.483235 18.8474 8.67912 14.2383 13.8638L8.84572 19.9292L8.78419 19.9917C8.63318 20.1289 8.43562 20.2064 8.22951 20.2065C8.0232 20.2065 7.82496 20.1291 7.67384 19.9917L7.61232 19.9292L2.21974 13.8638C-2.3895 8.67902 1.29214 0.48291 8.22951 0.48291ZM8.22951 2.1333C2.71602 2.1333 -0.209521 8.64711 3.45314 12.7671L8.22853 18.1382L13.0049 12.7671C16.6675 8.64721 13.7427 2.13363 8.22951 2.1333Z" fill="#BB6500"/>
<path d="M10.1149 8.5376C10.1149 7.49622 9.2705 6.65187 8.22913 6.65186C7.18774 6.65186 6.34338 7.49621 6.34338 8.5376C6.3434 9.57897 7.18775 10.4233 8.22913 10.4233C9.27049 10.4233 10.1149 9.57896 10.1149 8.5376ZM11.7653 8.5376C11.7652 10.4906 10.1821 12.0737 8.22913 12.0737C6.27614 12.0737 4.69301 10.4906 4.69299 8.5376C4.69299 6.5846 6.27613 5.00146 8.22913 5.00146C10.1821 5.00148 11.7653 6.58461 11.7653 8.5376Z" fill="#BB6500"/>
</svg>
