<svg width="21" height="17" viewBox="0 0 21 17" fill="none" xmlns="http://www.w3.org/2000/svg">
<path d="M18.5313 3.15137C18.5313 2.59741 18.0745 2.14062 17.5206 2.14062H2.836C2.28204 2.14062 1.82526 2.59741 1.82526 3.15137V14.165C1.82538 14.7189 2.28211 15.1758 2.836 15.1758H17.5206C18.0745 15.1758 18.5312 14.7189 18.5313 14.165V3.15137ZM20.1817 14.165C20.1816 15.6302 18.9857 16.8252 17.5206 16.8252H2.836C1.37084 16.8252 0.174986 15.6302 0.174866 14.165V3.15137C0.174866 1.68614 1.37077 0.490234 2.836 0.490234H17.5206C18.9858 0.490234 20.1817 1.68614 20.1817 3.15137V14.165Z" fill="#BB6500"/>
<path d="M18.8828 2.47526C19.2561 2.21397 19.7709 2.30511 20.0322 2.67838C20.2932 3.05162 20.2023 3.56561 19.8291 3.82682L10.6514 10.2516C10.4028 10.4256 10.082 10.4476 9.81543 10.3171L9.70508 10.2516L0.527348 3.82682C0.154165 3.56559 0.0631599 3.05163 0.324223 2.67838C0.585452 2.3052 1.09941 2.21419 1.47266 2.47526L10.1777 8.56803L18.8828 2.47526Z" fill="#BB6500"/>
</svg>
