<svg width="20" height="20" viewBox="0 0 20 20" fill="none" xmlns="http://www.w3.org/2000/svg">
<path d="M2.24562 1.0127L2.2759 0.175781L5.48684 0.291992C6.49731 0.328657 7.37962 0.965374 7.75734 1.89941L8.70656 4.24902C9.02785 5.04406 8.94254 5.95079 8.47512 6.66992L7.56789 8.06445C8.35322 9.10416 9.80862 10.8018 11.357 11.9756L12.4351 11.3135C13.0176 10.955 13.7177 10.8468 14.3804 11.0166L17.4556 11.8057C18.6742 12.1184 19.4708 13.2762 19.3775 14.5225L19.1802 17.1543C19.082 18.4624 17.9812 19.6243 16.5396 19.457L16.73 17.8174C17.0829 17.8582 17.4941 17.5702 17.5347 17.0312L17.732 14.3984C17.7675 13.9209 17.462 13.5102 17.0454 13.4033L13.9702 12.6152C13.7435 12.5573 13.5028 12.5935 13.2993 12.7188L11.7525 13.6699C11.4751 13.8405 11.1238 13.8322 10.855 13.6484C8.66112 12.1482 6.63446 9.63225 5.89016 8.56348C5.69836 8.28806 5.69265 7.92399 5.87551 7.64258L7.09133 5.77051C7.2638 5.50516 7.29764 5.16518 7.17727 4.86719L6.22805 2.51855C6.08735 2.1705 5.76909 1.95293 5.42727 1.94043L2.24465 1.8252C2.09997 1.82536 2.02867 1.85767 1.99367 1.87988C1.95875 1.90206 1.91029 1.94586 1.86184 2.0498C1.75193 2.28569 1.68714 2.73836 1.78664 3.44727C1.982 4.83891 2.74821 6.80286 4.04445 8.8623C6.64227 12.9896 11.1539 17.169 16.73 17.8174L16.5386 19.457C10.2689 18.7278 5.38394 14.088 2.64797 9.74121C1.2774 7.56367 0.3915 5.37676 0.152851 3.67676C0.035379 2.83992 0.0588451 2.0112 0.365742 1.35254C0.525611 1.00954 0.767749 0.702937 1.10891 0.486328C1.4501 0.269773 1.84056 0.174823 2.24562 0.174805V1.0127Z" fill="#BB6500"/>
</svg>
