<svg width="22" height="18" viewBox="0 0 22 18" fill="none" xmlns="http://www.w3.org/2000/svg">
<path d="M21.0321 2.84134C20.2719 3.17291 19.4553 3.39694 18.5968 3.49821C19.4726 2.98204 20.1445 2.16297 20.4613 1.18798C19.6419 1.66652 18.7343 2.01422 17.7683 2.20061C16.9945 1.39051 15.8929 0.883301 14.673 0.883301C12.3315 0.883301 10.4324 2.75263 10.4324 5.05926C10.4324 5.38545 10.4706 5.70268 10.5416 6.00916C7.01565 5.83442 3.89208 4.1721 1.79999 1.6468C1.43583 2.26513 1.22644 2.98204 1.22644 3.74554C1.22644 5.19368 1.9757 6.47246 3.11278 7.22073C2.41724 7.19832 1.76358 7.01103 1.19185 6.69828V6.75205C1.19185 8.77461 2.65303 10.462 4.594 10.8456C4.23712 10.9406 3.86295 10.9907 3.47694 10.9907C3.20382 10.9907 2.93708 10.9656 2.67852 10.9173C3.21839 12.5751 4.78427 13.7831 6.64057 13.8153C5.18849 14.9355 3.3595 15.6031 1.37302 15.6031C1.03071 15.6031 0.69295 15.5834 0.360657 15.5449C2.23789 16.7304 4.46654 17.4205 6.86089 17.4205C14.663 17.4205 18.9282 11.0597 18.9282 5.54317C18.9282 5.36395 18.9236 5.18293 18.9154 5.0037C19.7439 4.41405 20.4631 3.68012 21.0303 2.84403L21.0321 2.84134Z" fill="#AF6900"/>
</svg>
