<svg width="48" height="48" viewBox="0 0 48 48" fill="none" xmlns="http://www.w3.org/2000/svg">
<g id="arrow-right-circle">
<path id="Vector (Stroke)" d="M5 24C5 13.5066 13.5066 5 24 5C34.4934 5 43 13.5066 43 24C43 34.4934 34.4934 43 24 43C13.5066 43 5 34.4934 5 24ZM3 24C3 35.598 12.402 45 24 45C35.598 45 45 35.598 45 24C45 12.402 35.598 3 24 3C12.402 3 3 12.402 3 24Z" fill="#828282"/>
<path id="Vector (Stroke)_2" d="M24.707 15.293C24.3165 14.9024 23.6835 14.9024 23.293 15.293L15.293 23.293C14.9025 23.6835 14.9025 24.3165 15.293 24.707L23.293 32.707C23.6835 33.0975 24.3165 33.0975 24.707 32.707C25.0976 32.3165 25.0976 31.6835 24.707 31.293L17.4141 24L24.707 16.707C25.0976 16.3165 25.0976 15.6835 24.707 15.293Z" fill="#828282"/>
<path id="Vector (Stroke)_3" d="M16 23C15.4477 23 15 23.4477 15 24C15 24.5523 15.4477 25 16 25H32C32.5523 25 33 24.5523 33 24C33 23.4477 32.5523 23 32 23H16Z" fill="#828282"/>
</g>
</svg>
